<ttFont>
<head>
    <!-- Most of this table will be recalculated by the compiler -->
    <tableVersion value="1.0"/>
    <fontRevision value="4.00299"/>
    <checkSumAdjustment value="0xef2fe21"/>
    <magicNumber value="0x5f0f3cf5"/>
    <flags value="00000000 00000011"/>
    <unitsPerEm value="1000"/>
    <created value="Tue Mar  5 22:53:17 2019"/>
    <modified value="Tue Mar  5 14:53:19 2019"/>
    <xMin value="-642"/>
    <yMin value="-627"/>
    <xMax value="2486"/>
    <yMax value="1135"/>
    <macStyle value="00000000 00000010"/>
    <lowestRecPPEM value="7"/>
    <fontDirectionHint value="2"/>
    <indexToLocFormat value="1"/>
    <glyphDataFormat value="0"/>
  </head>
    <TTGlyph name=".notdef" xMin="0" yMin="0" xMax="500" yMax="700">
      <contour>
        <pt x="0" y="700" on="1"/>
        <pt x="500" y="700" on="1"/>
        <pt x="500" y="0" on="1"/>
        <pt x="0" y="0" on="1"/>
      </contour>
      <contour>
        <pt x="420" y="650" on="1"/>
        <pt x="80" y="650" on="1"/>
        <pt x="250" y="395" on="1"/>
      </contour>
      <contour>
        <pt x="50" y="95" on="1"/>
        <pt x="220" y="350" on="1"/>
        <pt x="50" y="605" on="1"/>
      </contour>
      <contour>
        <pt x="450" y="95" on="1"/>
        <pt x="450" y="605" on="1"/>
        <pt x="280" y="350" on="1"/>
      </contour>
      <contour>
        <pt x="420" y="50" on="1"/>
        <pt x="250" y="305" on="1"/>
        <pt x="80" y="50" on="1"/>
      </contour>
    </TTGlyph>
    <TTGlyph name="A" xMin="-50" yMin="0" xMax="723" yMax="708">
      <contour>
        <pt x="473" y="107" on="1"/>
        <pt x="237" y="107" on="1"/>
        <pt x="183" y="0" on="1"/>
        <pt x="-50" y="0" on="1"/>
        <pt x="334" y="708" on="1"/>
        <pt x="590" y="708" on="1"/>
        <pt x="723" y="0" on="1"/>
        <pt x="489" y="0" on="1"/>
      </contour>
      <contour>
        <pt x="449" y="274" on="1"/>
        <pt x="420" y="471" on="1"/>
        <pt x="321" y="274" on="1"/>
      </contour>
    </TTGlyph>
    <TTGlyph name="AE" xMin="-50" yMin="0" xMax="1027" yMax="708">
      <contour>
        <pt x="756" y="532" on="1"/>
        <pt x="741" y="447" on="1"/>
        <pt x="951" y="447" on="1"/>
        <pt x="922" y="280" on="1"/>
        <pt x="712" y="280" on="1"/>
        <pt x="693" y="177" on="1"/>
        <pt x="933" y="177" on="1"/>
        <pt x="902" y="0" on="1"/>
        <pt x="440" y="0" on="1"/>
        <pt x="457" y="97" on="1"/>
        <pt x="253" y="97" on="1"/>
        <pt x="191" y="0" on="1"/>
        <pt x="-50" y="0" on="1"/>
        <pt x="414" y="708" on="1"/>
        <pt x="1027" y="708" on="1"/>
        <pt x="996" y="532" on="1"/>
      </contour>
      <contour>
        <pt x="487" y="264" on="1"/>
        <pt x="535" y="537" on="1"/>
        <pt x="360" y="264" on="1"/>
      </contour>
    </TTGlyph>
    <TTGlyph name="Aacute" xMin="-50" yMin="0" xMax="723" yMax="1007">
      <component glyphName="A" x="0" y="0" flags="0x0"/>
      <component glyphName="acute" x="272" y="147" flags="0x4"/>
    </TTGlyph>
    <TTGlyph name="Abreve" xMin="-50" yMin="0" xMax="723" yMax="967">
      <component glyphName="A" x="0" y="0" flags="0x0"/>
      <component glyphName="breve" x="215" y="147" flags="0x4"/>
    </TTGlyph>
    <TTGlyph name="Acircumflex" xMin="-50" yMin="0" xMax="723" yMax="968">
      <component glyphName="A" x="0" y="0" flags="0x0"/>
      <component glyphName="circumflex" x="237" y="147" flags="0x4"/>
    </TTGlyph>
    <TTGlyph name="Adieresis" xMin="-50" yMin="0" xMax="723" yMax="939">
      <component glyphName="A" x="0" y="0" flags="0x0"/>
      <component glyphName="dieresis" x="204" y="147" flags="0x4"/>
    </TTGlyph>
    <TTGlyph name="Agrave" xMin="-50" yMin="0" xMax="723" yMax="1007">
      <component glyphName="A" x="0" y="0" flags="0x0"/>
      <component glyphName="grave" x="272" y="147" flags="0x4"/>
    </TTGlyph>
    <TTGlyph name="Amacron" xMin="-50" yMin="0" xMax="723" yMax="916">
      <component glyphName="A" x="0" y="0" flags="0x0"/>
      <component glyphName="macron" x="188" y="147" flags="0x4"/>
    </TTGlyph>
    <TTGlyph name="Aogonek" xMin="-50" yMin="-223" xMax="723" yMax="708">
      <contour>
        <pt x="590" y="-107" on="0"/>
        <pt x="622" y="-107" on="1"/>
        <pt x="656" y="-107" on="0"/>
        <pt x="707" y="-91" on="1"/>
        <pt x="687" y="-207" on="1"/>
        <pt x="631" y="-223" on="0"/>
        <pt x="570" y="-223" on="1"/>
        <pt x="503" y="-223" on="0"/>
        <pt x="430" y="-170" on="0"/>
        <pt x="430" y="-122" on="1"/>
        <pt x="430" y="-106" on="0"/>
        <pt x="432" y="-97" on="1"/>
        <pt x="438" y="-68" on="0"/>
        <pt x="464" y="-21" on="0"/>
        <pt x="489" y="0" on="1"/>
        <pt x="473" y="107" on="1"/>
        <pt x="237" y="107" on="1"/>
        <pt x="183" y="0" on="1"/>
        <pt x="-50" y="0" on="1"/>
        <pt x="334" y="708" on="1"/>
        <pt x="590" y="708" on="1"/>
        <pt x="723" y="0" on="1"/>
        <pt x="676" y="-19" on="1"/>
        <pt x="625" y="-39" on="0"/>
        <pt x="590" y="-72" on="0"/>
        <pt x="590" y="-87" on="1"/>
      </contour>
      <contour>
        <pt x="449" y="274" on="1"/>
        <pt x="420" y="471" on="1"/>
        <pt x="321" y="274" on="1"/>
      </contour>
    </TTGlyph>
    <TTGlyph name="Aring" xMin="-50" yMin="0" xMax="723" yMax="1004">
      <component glyphName="A" x="0" y="0" flags="0x0"/>
      <component glyphName="ring" x="271" y="147" flags="0x4"/>
    </TTGlyph>
    <TTGlyph name="Atilde" xMin="-50" yMin="0" xMax="726" yMax="936">
      <component glyphName="A" x="0" y="0" flags="0x0"/>
      <component glyphName="tilde" x="179" y="147" flags="0x4"/>
    </TTGlyph>
    <TTGlyph name="B" xMin="0" yMin="0" xMax="689" yMax="708">
      <contour>
        <pt x="675" y="462" on="0"/>
        <pt x="595" y="377" on="0"/>
        <pt x="539" y="363" on="1"/>
        <pt x="591" y="350" on="0"/>
        <pt x="646" y="277" on="0"/>
        <pt x="646" y="228" on="1"/>
        <pt x="646" y="212" on="0"/>
        <pt x="643" y="194" on="1"/>
        <pt x="627" y="101" on="0"/>
        <pt x="486" y="0" on="0"/>
        <pt x="371" y="0" on="1"/>
        <pt x="0" y="0" on="1"/>
        <pt x="125" y="708" on="1"/>
        <pt x="486" y="708" on="1"/>
        <pt x="582" y="708" on="0"/>
        <pt x="689" y="633" on="0"/>
        <pt x="689" y="561" on="1"/>
        <pt x="689" y="544" on="0"/>
        <pt x="686" y="524" on="1"/>
      </contour>
      <contour>
        <pt x="453" y="486" on="0"/>
        <pt x="453" y="494" on="1"/>
        <pt x="453" y="514" on="0"/>
        <pt x="428" y="532" on="0"/>
        <pt x="402" y="532" on="1"/>
        <pt x="316" y="532" on="1"/>
        <pt x="298" y="432" on="1"/>
        <pt x="384" y="432" on="1"/>
        <pt x="414" y="432" on="0"/>
        <pt x="448" y="456" on="0"/>
        <pt x="452" y="481" on="1"/>
      </contour>
      <contour>
        <pt x="423" y="232" on="0"/>
        <pt x="423" y="240" on="1"/>
        <pt x="423" y="278" on="0"/>
        <pt x="372" y="278" on="1"/>
        <pt x="271" y="278" on="1"/>
        <pt x="254" y="178" on="1"/>
        <pt x="355" y="178" on="1"/>
        <pt x="385" y="178" on="0"/>
        <pt x="418" y="201" on="0"/>
        <pt x="422" y="227" on="1"/>
      </contour>
    </TTGlyph>
    <TTGlyph name="C" xMin="36" yMin="-5" xMax="751" yMax="715">
      <contour>
        <pt x="61" y="460" on="0"/>
        <pt x="175" y="624" on="0"/>
        <pt x="349" y="715" on="0"/>
        <pt x="456" y="715" on="1"/>
        <pt x="548" y="715" on="0"/>
        <pt x="681" y="646" on="0"/>
        <pt x="751" y="520" on="0"/>
        <pt x="750" y="436" on="1"/>
        <pt x="516" y="436" on="1"/>
        <pt x="506" y="471" on="0"/>
        <pt x="454" y="510" on="0"/>
        <pt x="416" y="510" on="1"/>
        <pt x="360" y="510" on="0"/>
        <pt x="280" y="426" on="0"/>
        <pt x="268" y="355" on="1"/>
        <pt x="264" y="335" on="0"/>
        <pt x="264" y="312" on="1"/>
        <pt x="264" y="260" on="0"/>
        <pt x="315" y="200" on="0"/>
        <pt x="362" y="200" on="1"/>
        <pt x="400" y="200" on="0"/>
        <pt x="466" y="239" on="0"/>
        <pt x="488" y="274" on="1"/>
        <pt x="722" y="274" on="1"/>
        <pt x="692" y="190" on="0"/>
        <pt x="578" y="64" on="0"/>
        <pt x="421" y="-5" on="0"/>
        <pt x="329" y="-5" on="1"/>
        <pt x="236" y="-5" on="0"/>
        <pt x="104" y="64" on="0"/>
        <pt x="36" y="191" on="0"/>
        <pt x="36" y="275" on="1"/>
        <pt x="36" y="316" on="0"/>
        <pt x="43" y="355" on="1"/>
      </contour>
    </TTGlyph>
    <TTGlyph name="Cacute" xMin="36" yMin="-5" xMax="751" yMax="1007">
      <component glyphName="C" x="0" y="0" flags="0x0"/>
      <component glyphName="acute" x="262" y="147" flags="0x4"/>
    </TTGlyph>
    <TTGlyph name="Ccaron" xMin="36" yMin="-5" xMax="751" yMax="968">
      <component glyphName="C" x="0" y="0" flags="0x0"/>
      <component glyphName="caron" x="227" y="147" flags="0x4"/>
    </TTGlyph>
    <TTGlyph name="Ccedilla" xMin="36" yMin="-278" xMax="751" yMax="715">
      <contour>
        <pt x="360" y="510" on="0"/>
        <pt x="280" y="426" on="0"/>
        <pt x="268" y="355" on="1"/>
        <pt x="264" y="335" on="0"/>
        <pt x="264" y="312" on="1"/>
        <pt x="264" y="260" on="0"/>
        <pt x="315" y="200" on="0"/>
        <pt x="362" y="200" on="1"/>
        <pt x="400" y="200" on="0"/>
        <pt x="466" y="239" on="0"/>
        <pt x="488" y="274" on="1"/>
        <pt x="722" y="274" on="1"/>
        <pt x="683" y="163" on="0"/>
        <pt x="511" y="17" on="0"/>
        <pt x="396" y="0" on="1"/>
        <pt x="401" y="0" on="1"/>
        <pt x="395" y="-34" on="1"/>
        <pt x="436" y="-34" on="0"/>
        <pt x="505" y="-80" on="0"/>
        <pt x="505" y="-130" on="1"/>
        <pt x="505" y="-147" on="0"/>
        <pt x="503" y="-156" on="1"/>
        <pt x="491" y="-221" on="0"/>
        <pt x="391" y="-278" on="0"/>
        <pt x="331" y="-278" on="1"/>
        <pt x="158" y="-278" on="1"/>
        <pt x="178" y="-165" on="1"/>
        <pt x="328" y="-165" on="1"/>
        <pt x="340" y="-165" on="0"/>
        <pt x="356" y="-156" on="0"/>
        <pt x="357" y="-149" on="1"/>
        <pt x="357" y="-146" on="1"/>
        <pt x="357" y="-134" on="0"/>
        <pt x="334" y="-134" on="1"/>
        <pt x="249" y="-134" on="1"/>
        <pt x="273" y="-1" on="1"/>
        <pt x="160" y="15" on="0"/>
        <pt x="36" y="161" on="0"/>
        <pt x="36" y="275" on="1"/>
        <pt x="36" y="316" on="0"/>
        <pt x="43" y="355" on="1"/>
        <pt x="61" y="460" on="0"/>
        <pt x="175" y="624" on="0"/>
        <pt x="349" y="715" on="0"/>
        <pt x="456" y="715" on="1"/>
        <pt x="548" y="715" on="0"/>
        <pt x="681" y="646" on="0"/>
        <pt x="751" y="520" on="0"/>
        <pt x="750" y="436" on="1"/>
        <pt x="516" y="436" on="1"/>
        <pt x="506" y="471" on="0"/>
        <pt x="454" y="510" on="0"/>
        <pt x="416" y="510" on="1"/>
      </contour>
    </TTGlyph>
    <TTGlyph name="Cdotaccent" xMin="36" yMin="-5" xMax="751" yMax="939">
      <component glyphName="C" x="0" y="0" flags="0x0"/>
      <component glyphName="dotaccent" x="306" y="147" flags="0x4"/>
    </TTGlyph>
    <TTGlyph name="D" xMin="0" yMin="0" xMax="732" yMax="708">
      <contour>
        <pt x="518" y="708" on="0"/>
        <pt x="658" y="637" on="0"/>
        <pt x="732" y="510" on="0"/>
        <pt x="732" y="427" on="1"/>
        <pt x="732" y="394" on="0"/>
        <pt x="726" y="356" on="1"/>
        <pt x="708" y="255" on="0"/>
        <pt x="589" y="93" on="0"/>
        <pt x="406" y="0" on="0"/>
        <pt x="295" y="0" on="1"/>
        <pt x="0" y="0" on="1"/>
        <pt x="125" y="708" on="1"/>
        <pt x="420" y="708" on="1"/>
      </contour>
      <contour>
        <pt x="385" y="198" on="0"/>
        <pt x="488" y="280" on="0"/>
        <pt x="501" y="356" on="1"/>
        <pt x="504" y="376" on="0"/>
        <pt x="504" y="393" on="1"/>
        <pt x="504" y="452" on="0"/>
        <pt x="431" y="514" on="0"/>
        <pt x="366" y="514" on="1"/>
        <pt x="313" y="514" on="1"/>
        <pt x="257" y="198" on="1"/>
        <pt x="310" y="198" on="1"/>
      </contour>
    </TTGlyph>
    <TTGlyph name="Dcaron" xMin="0" yMin="0" xMax="732" yMax="968">
      <component glyphName="D" x="0" y="0" flags="0x0"/>
      <component glyphName="caron" x="209" y="147" flags="0x4"/>
    </TTGlyph>
    <TTGlyph name="Dcroat" xMin="-2" yMin="0" xMax="732" yMax="708">
      <component glyphName="Eth" x="0" y="0" flags="0x0"/>
    </TTGlyph>
    <TTGlyph name="E" xMin="0" yMin="0" xMax="597" yMax="708">
      <contour>
        <pt x="316" y="532" on="1"/>
        <pt x="301" y="444" on="1"/>
        <pt x="521" y="444" on="1"/>
        <pt x="491" y="277" on="1"/>
        <pt x="271" y="277" on="1"/>
        <pt x="253" y="177" on="1"/>
        <pt x="503" y="177" on="1"/>
        <pt x="472" y="0" on="1"/>
        <pt x="0" y="0" on="1"/>
        <pt x="125" y="708" on="1"/>
        <pt x="597" y="708" on="1"/>
        <pt x="566" y="532" on="1"/>
      </contour>
    </TTGlyph>
    <TTGlyph name="Eacute" xMin="0" yMin="0" xMax="597" yMax="1007">
      <component glyphName="E" x="0" y="0" flags="0x0"/>
      <component glyphName="acute" x="167" y="147" flags="0x4"/>
    </TTGlyph>
    <TTGlyph name="Ebreve" xMin="0" yMin="0" xMax="597" yMax="967">
      <component glyphName="E" x="0" y="0" flags="0x0"/>
      <component glyphName="breve" x="110" y="147" flags="0x4"/>
    </TTGlyph>
    <TTGlyph name="Ecaron" xMin="0" yMin="0" xMax="597" yMax="968">
      <component glyphName="E" x="0" y="0" flags="0x0"/>
      <component glyphName="caron" x="132" y="147" flags="0x4"/>
    </TTGlyph>
    <TTGlyph name="Ecircumflex" xMin="0" yMin="0" xMax="597" yMax="968">
      <component glyphName="E" x="0" y="0" flags="0x0"/>
      <component glyphName="circumflex" x="132" y="147" flags="0x4"/>
    </TTGlyph>
    <TTGlyph name="Edieresis" xMin="0" yMin="0" xMax="597" yMax="939">
      <component glyphName="E" x="0" y="0" flags="0x0"/>
      <component glyphName="dieresis" x="99" y="147" flags="0x4"/>
    </TTGlyph>
    <TTGlyph name="Edotaccent" xMin="0" yMin="0" xMax="597" yMax="939">
      <component glyphName="E" x="0" y="0" flags="0x0"/>
      <component glyphName="dotaccent" x="211" y="147" flags="0x4"/>
    </TTGlyph>
    <TTGlyph name="Egrave" xMin="0" yMin="0" xMax="597" yMax="1007">
      <component glyphName="E" x="0" y="0" flags="0x0"/>
      <component glyphName="grave" x="167" y="147" flags="0x4"/>
    </TTGlyph>
    <TTGlyph name="Emacron" xMin="0" yMin="0" xMax="610" yMax="916">
      <component glyphName="E" x="0" y="0" flags="0x0"/>
      <component glyphName="macron" x="83" y="147" flags="0x4"/>
    </TTGlyph>
    <TTGlyph name="Eogonek" xMin="0" yMin="-223" xMax="597" yMax="708">
      <contour>
        <pt x="316" y="532" on="1"/>
        <pt x="301" y="444" on="1"/>
        <pt x="521" y="444" on="1"/>
        <pt x="491" y="277" on="1"/>
        <pt x="271" y="277" on="1"/>
        <pt x="253" y="177" on="1"/>
        <pt x="503" y="177" on="1"/>
        <pt x="472" y="0" on="1"/>
        <pt x="426" y="-21" on="1"/>
        <pt x="381" y="-41" on="0"/>
        <pt x="341" y="-71" on="0"/>
        <pt x="338" y="-86" on="1"/>
        <pt x="336" y="-95" on="0"/>
        <pt x="352" y="-107" on="0"/>
        <pt x="368" y="-107" on="1"/>
        <pt x="405" y="-107" on="0"/>
        <pt x="456" y="-91" on="1"/>
        <pt x="436" y="-207" on="1"/>
        <pt x="380" y="-223" on="0"/>
        <pt x="320" y="-223" on="1"/>
        <pt x="252" y="-223" on="0"/>
        <pt x="178" y="-171" on="0"/>
        <pt x="178" y="-125" on="1"/>
        <pt x="178" y="-117" on="0"/>
        <pt x="180" y="-103" on="1"/>
        <pt x="186" y="-74" on="0"/>
        <pt x="217" y="-24" on="0"/>
        <pt x="249" y="0" on="1"/>
        <pt x="0" y="0" on="1"/>
        <pt x="125" y="708" on="1"/>
        <pt x="597" y="708" on="1"/>
        <pt x="566" y="532" on="1"/>
      </contour>
    </TTGlyph>
    <TTGlyph name="Eth" xMin="-2" yMin="0" xMax="732" yMax="708">
      <contour>
        <pt x="518" y="708" on="0"/>
        <pt x="658" y="637" on="0"/>
        <pt x="732" y="510" on="0"/>
        <pt x="732" y="427" on="1"/>
        <pt x="732" y="394" on="0"/>
        <pt x="726" y="356" on="1"/>
        <pt x="708" y="255" on="0"/>
        <pt x="589" y="93" on="0"/>
        <pt x="406" y="0" on="0"/>
        <pt x="295" y="0" on="1"/>
        <pt x="0" y="0" on="1"/>
        <pt x="47" y="268" on="1"/>
        <pt x="-2" y="268" on="1"/>
        <pt x="29" y="444" on="1"/>
        <pt x="78" y="444" on="1"/>
        <pt x="125" y="708" on="1"/>
        <pt x="420" y="708" on="1"/>
      </contour>
      <contour>
        <pt x="504" y="376" on="0"/>
        <pt x="504" y="393" on="1"/>
        <pt x="504" y="452" on="0"/>
        <pt x="431" y="514" on="0"/>
        <pt x="366" y="514" on="1"/>
        <pt x="313" y="514" on="1"/>
        <pt x="301" y="444" on="1"/>
        <pt x="431" y="444" on="1"/>
        <pt x="400" y="268" on="1"/>
        <pt x="269" y="268" on="1"/>
        <pt x="257" y="198" on="1"/>
        <pt x="310" y="198" on="1"/>
        <pt x="385" y="198" on="0"/>
        <pt x="488" y="280" on="0"/>
        <pt x="501" y="356" on="1"/>
      </contour>
    </TTGlyph>
    <TTGlyph name="Euro" xMin="8" yMin="-5" xMax="788" yMax="715">
      <contour>
        <pt x="543" y="471" on="0"/>
        <pt x="491" y="510" on="0"/>
        <pt x="453" y="510" on="1"/>
        <pt x="399" y="510" on="0"/>
        <pt x="360" y="471" on="1"/>
        <pt x="484" y="471" on="1"/>
        <pt x="467" y="371" on="1"/>
        <pt x="308" y="371" on="1"/>
        <pt x="305" y="355" on="1"/>
        <pt x="303" y="343" on="1"/>
        <pt x="462" y="343" on="1"/>
        <pt x="444" y="244" on="1"/>
        <pt x="316" y="244" on="1"/>
        <pt x="343" y="200" on="0"/>
        <pt x="399" y="200" on="1"/>
        <pt x="437" y="200" on="0"/>
        <pt x="503" y="239" on="0"/>
        <pt x="525" y="274" on="1"/>
        <pt x="759" y="274" on="1"/>
        <pt x="729" y="190" on="0"/>
        <pt x="615" y="64" on="0"/>
        <pt x="458" y="-5" on="0"/>
        <pt x="366" y="-5" on="1"/>
        <pt x="236" y="-5" on="0"/>
        <pt x="83" y="129" on="0"/>
        <pt x="74" y="244" on="1"/>
        <pt x="8" y="244" on="1"/>
        <pt x="26" y="343" on="1"/>
        <pt x="78" y="343" on="1"/>
        <pt x="80" y="355" on="1"/>
        <pt x="83" y="371" on="1"/>
        <pt x="31" y="371" on="1"/>
        <pt x="48" y="471" on="1"/>
        <pt x="115" y="471" on="1"/>
        <pt x="165" y="584" on="0"/>
        <pt x="364" y="715" on="0"/>
        <pt x="493" y="715" on="1"/>
        <pt x="585" y="715" on="0"/>
        <pt x="718" y="646" on="0"/>
        <pt x="788" y="520" on="0"/>
        <pt x="787" y="436" on="1"/>
        <pt x="553" y="436" on="1"/>
      </contour>
    </TTGlyph>
    <TTGlyph name="F" xMin="0" yMin="0" xMax="625" yMax="708">
      <contour>
        <pt x="625" y="708" on="1"/>
        <pt x="594" y="532" on="1"/>
        <pt x="316" y="532" on="1"/>
        <pt x="299" y="434" on="1"/>
        <pt x="499" y="434" on="1"/>
        <pt x="469" y="267" on="1"/>
        <pt x="269" y="267" on="1"/>
        <pt x="222" y="0" on="1"/>
        <pt x="0" y="0" on="1"/>
        <pt x="125" y="708" on="1"/>
      </contour>
    </TTGlyph>
    <TTGlyph name="G" xMin="36" yMin="-5" xMax="753" yMax="715">
      <contour>
        <pt x="61" y="460" on="0"/>
        <pt x="177" y="624" on="0"/>
        <pt x="355" y="715" on="0"/>
        <pt x="464" y="715" on="1"/>
        <pt x="557" y="715" on="0"/>
        <pt x="688" y="654" on="0"/>
        <pt x="753" y="542" on="0"/>
        <pt x="750" y="466" on="1"/>
        <pt x="516" y="466" on="1"/>
        <pt x="507" y="487" on="0"/>
        <pt x="463" y="510" on="0"/>
        <pt x="429" y="510" on="1"/>
        <pt x="365" y="510" on="0"/>
        <pt x="280" y="426" on="0"/>
        <pt x="268" y="355" on="1"/>
        <pt x="263" y="325" on="0"/>
        <pt x="263" y="306" on="1"/>
        <pt x="263" y="190" on="0"/>
        <pt x="398" y="190" on="1"/>
        <pt x="475" y="190" on="0"/>
        <pt x="533" y="252" on="1"/>
        <pt x="356" y="252" on="1"/>
        <pt x="383" y="409" on="1"/>
        <pt x="744" y="409" on="1"/>
        <pt x="705" y="187" on="1"/>
        <pt x="645" y="108" on="0"/>
        <pt x="463" y="-5" on="0"/>
        <pt x="339" y="-5" on="1"/>
        <pt x="243" y="-5" on="0"/>
        <pt x="107" y="65" on="0"/>
        <pt x="36" y="192" on="0"/>
        <pt x="36" y="277" on="1"/>
        <pt x="36" y="317" on="0"/>
        <pt x="43" y="355" on="1"/>
      </contour>
    </TTGlyph>
    <TTGlyph name="Gbreve" xMin="36" yMin="-5" xMax="753" yMax="967">
      <component glyphName="G" x="0" y="0" flags="0x0"/>
      <component glyphName="breve" x="205" y="147" flags="0x4"/>
    </TTGlyph>
    <TTGlyph name="Gdotaccent" xMin="36" yMin="-5" xMax="753" yMax="939">
      <component glyphName="G" x="0" y="0" flags="0x0"/>
      <component glyphName="dotaccent" x="306" y="147" flags="0x4"/>
    </TTGlyph>
    <TTGlyph name="H" xMin="0" yMin="0" xMax="780" yMax="708">
      <contour>
        <pt x="780" y="708" on="1"/>
        <pt x="655" y="0" on="1"/>
        <pt x="433" y="0" on="1"/>
        <pt x="482" y="276" on="1"/>
        <pt x="271" y="276" on="1"/>
        <pt x="222" y="0" on="1"/>
        <pt x="0" y="0" on="1"/>
        <pt x="125" y="708" on="1"/>
        <pt x="347" y="708" on="1"/>
        <pt x="302" y="453" on="1"/>
        <pt x="513" y="453" on="1"/>
        <pt x="558" y="708" on="1"/>
      </contour>
    </TTGlyph>
    <TTGlyph name="I" xMin="0" yMin="0" xMax="347" yMax="708">
      <contour>
        <pt x="347" y="708" on="1"/>
        <pt x="222" y="0" on="1"/>
        <pt x="0" y="0" on="1"/>
        <pt x="125" y="708" on="1"/>
      </contour>
    </TTGlyph>
    <TTGlyph name="Iacute" xMin="0" yMin="0" xMax="418" yMax="1007">
      <component glyphName="I" x="0" y="0" flags="0x0"/>
      <component glyphName="acute" x="47" y="147" flags="0x4"/>
    </TTGlyph>
    <TTGlyph name="Icircumflex" xMin="0" yMin="0" xMax="433" yMax="968">
      <component glyphName="I" x="0" y="0" flags="0x0"/>
      <component glyphName="circumflex" x="12" y="147" flags="0x4"/>
    </TTGlyph>
    <TTGlyph name="Idieresis" xMin="0" yMin="0" xMax="462" yMax="939">
      <component glyphName="I" x="0" y="0" flags="0x0"/>
      <component glyphName="dieresis" x="-21" y="147" flags="0x4"/>
    </TTGlyph>
    <TTGlyph name="Idotaccent" xMin="0" yMin="0" xMax="349" yMax="939">
      <component glyphName="I" x="0" y="0" flags="0x0"/>
      <component glyphName="dotaccent" x="91" y="147" flags="0x4"/>
    </TTGlyph>
    <TTGlyph name="Igrave" xMin="0" yMin="0" xMax="399" yMax="1007">
      <component glyphName="I" x="0" y="0" flags="0x0"/>
      <component glyphName="grave" x="47" y="147" flags="0x4"/>
    </TTGlyph>
    <TTGlyph name="Imacron" xMin="0" yMin="0" xMax="490" yMax="916">
      <component glyphName="I" x="0" y="0" flags="0x0"/>
      <component glyphName="macron" x="-37" y="147" flags="0x4"/>
    </TTGlyph>
    <TTGlyph name="Iogonek" xMin="-72" yMin="-223" xMax="347" yMax="708">
      <contour>
        <pt x="131" y="-41" on="0"/>
        <pt x="91" y="-71" on="0"/>
        <pt x="88" y="-86" on="1"/>
        <pt x="86" y="-95" on="0"/>
        <pt x="102" y="-107" on="0"/>
        <pt x="118" y="-107" on="1"/>
        <pt x="155" y="-107" on="0"/>
        <pt x="206" y="-91" on="1"/>
        <pt x="186" y="-207" on="1"/>
        <pt x="130" y="-223" on="0"/>
        <pt x="70" y="-223" on="1"/>
        <pt x="2" y="-223" on="0"/>
        <pt x="-72" y="-171" on="0"/>
        <pt x="-72" y="-125" on="1"/>
        <pt x="-72" y="-117" on="0"/>
        <pt x="-70" y="-103" on="1"/>
        <pt x="-64" y="-73" on="0"/>
        <pt x="-32" y="-22" on="0"/>
        <pt x="0" y="1" on="1"/>
        <pt x="125" y="708" on="1"/>
        <pt x="347" y="708" on="1"/>
        <pt x="222" y="0" on="1"/>
        <pt x="176" y="-21" on="1"/>
      </contour>
    </TTGlyph>
    <TTGlyph name="Itilde" xMin="0" yMin="0" xMax="501" yMax="936">
      <component glyphName="I" x="0" y="0" flags="0x0"/>
      <component glyphName="tilde" x="-46" y="147" flags="0x4"/>
    </TTGlyph>
    <TTGlyph name="J" xMin="2" yMin="-7" xMax="619" yMax="708">
      <contour>
        <pt x="619" y="708" on="1"/>
        <pt x="539" y="251" on="1"/>
        <pt x="516" y="124" on="0"/>
        <pt x="360" y="-7" on="0"/>
        <pt x="240" y="-7" on="1"/>
        <pt x="129" y="-7" on="0"/>
        <pt x="2" y="100" on="0"/>
        <pt x="2" y="204" on="1"/>
        <pt x="2" y="235" on="0"/>
        <pt x="8" y="271" on="1"/>
        <pt x="227" y="271" on="1"/>
        <pt x="224" y="253" on="0"/>
        <pt x="224" y="240" on="1"/>
        <pt x="224" y="193" on="0"/>
        <pt x="265" y="193" on="1"/>
        <pt x="285" y="193" on="0"/>
        <pt x="312" y="219" on="0"/>
        <pt x="318" y="251" on="1"/>
        <pt x="398" y="708" on="1"/>
      </contour>
    </TTGlyph>
    <TTGlyph name="K" xMin="0" yMin="0" xMax="801" yMax="708">
      <contour>
        <pt x="496" y="369" on="1"/>
        <pt x="692" y="0" on="1"/>
        <pt x="428" y="0" on="1"/>
        <pt x="276" y="308" on="1"/>
        <pt x="222" y="0" on="1"/>
        <pt x="0" y="0" on="1"/>
        <pt x="125" y="708" on="1"/>
        <pt x="347" y="708" on="1"/>
        <pt x="294" y="410" on="1"/>
        <pt x="550" y="708" on="1"/>
        <pt x="801" y="708" on="1"/>
      </contour>
    </TTGlyph>
    <TTGlyph name="L" xMin="0" yMin="0" xMax="466" yMax="708">
      <contour>
        <pt x="252" y="168" on="1"/>
        <pt x="466" y="168" on="1"/>
        <pt x="436" y="0" on="1"/>
        <pt x="0" y="0" on="1"/>
        <pt x="125" y="708" on="1"/>
        <pt x="347" y="708" on="1"/>
      </contour>
    </TTGlyph>
    <TTGlyph name="Lacute" xMin="0" yMin="0" xMax="487" yMax="1007">
      <component glyphName="L" x="0" y="0" flags="0x0"/>
      <component glyphName="acute" x="116" y="147" flags="0x4"/>
    </TTGlyph>
    <TTGlyph name="Lcaron" xMin="0" yMin="0" xMax="607" yMax="708">
      <contour>
        <pt x="252" y="168" on="1"/>
        <pt x="466" y="168" on="1"/>
        <pt x="436" y="0" on="1"/>
        <pt x="0" y="0" on="1"/>
        <pt x="125" y="708" on="1"/>
        <pt x="347" y="708" on="1"/>
      </contour>
      <contour>
        <pt x="607" y="676" on="0"/>
        <pt x="607" y="640" on="1"/>
        <pt x="607" y="606" on="0"/>
        <pt x="601" y="574" on="1"/>
        <pt x="587" y="496" on="0"/>
        <pt x="487" y="397" on="0"/>
        <pt x="406" y="397" on="1"/>
        <pt x="420" y="476" on="1"/>
        <pt x="446" y="476" on="0"/>
        <pt x="481" y="513" on="0"/>
        <pt x="488" y="550" on="1"/>
        <pt x="490" y="562" on="1"/>
        <pt x="418" y="562" on="1"/>
        <pt x="444" y="708" on="1"/>
        <pt x="600" y="708" on="1"/>
      </contour>
    </TTGlyph>
    <TTGlyph name="Ldot" xMin="0" yMin="0" xMax="525" yMax="708">
      <contour>
        <pt x="125" y="708" on="1"/>
        <pt x="347" y="708" on="1"/>
        <pt x="252" y="168" on="1"/>
        <pt x="466" y="168" on="1"/>
        <pt x="436" y="0" on="1"/>
        <pt x="0" y="0" on="1"/>
      </contour>
      <contour>
        <pt x="389" y="322" on="0"/>
        <pt x="350" y="361" on="0"/>
        <pt x="350" y="392" on="1"/>
        <pt x="350" y="434" on="0"/>
        <pt x="411" y="494" on="0"/>
        <pt x="451" y="494" on="1"/>
        <pt x="484" y="494" on="0"/>
        <pt x="525" y="455" on="0"/>
        <pt x="525" y="424" on="1"/>
        <pt x="525" y="382" on="0"/>
        <pt x="463" y="322" on="0"/>
        <pt x="421" y="322" on="1"/>
      </contour>
    </TTGlyph>
    <TTGlyph name="Lslash" xMin="-1" yMin="0" xMax="481" yMax="708">
      <contour>
        <pt x="481" y="168" on="1"/>
        <pt x="451" y="0" on="1"/>
        <pt x="15" y="0" on="1"/>
        <pt x="57" y="236" on="1"/>
        <pt x="-1" y="221" on="1"/>
        <pt x="37" y="437" on="1"/>
        <pt x="95" y="452" on="1"/>
        <pt x="140" y="708" on="1"/>
        <pt x="362" y="708" on="1"/>
        <pt x="328" y="513" on="1"/>
        <pt x="406" y="534" on="1"/>
        <pt x="368" y="318" on="1"/>
        <pt x="290" y="297" on="1"/>
        <pt x="267" y="168" on="1"/>
      </contour>
    </TTGlyph>
    <TTGlyph name="M" xMin="0" yMin="0" xMax="976" yMax="708">
      <contour>
        <pt x="976" y="708" on="1"/>
        <pt x="851" y="0" on="1"/>
        <pt x="630" y="0" on="1"/>
        <pt x="692" y="352" on="1"/>
        <pt x="521" y="0" on="1"/>
        <pt x="331" y="0" on="1"/>
        <pt x="284" y="355" on="1"/>
        <pt x="222" y="0" on="1"/>
        <pt x="0" y="0" on="1"/>
        <pt x="125" y="708" on="1"/>
        <pt x="397" y="708" on="1"/>
        <pt x="478" y="282" on="1"/>
        <pt x="705" y="708" on="1"/>
      </contour>
    </TTGlyph>
    <TTGlyph name="N" xMin="0" yMin="0" xMax="804" yMax="708">
      <contour>
        <pt x="679" y="0" on="1"/>
        <pt x="457" y="0" on="1"/>
        <pt x="285" y="356" on="1"/>
        <pt x="222" y="0" on="1"/>
        <pt x="0" y="0" on="1"/>
        <pt x="125" y="708" on="1"/>
        <pt x="347" y="708" on="1"/>
        <pt x="518" y="346" on="1"/>
        <pt x="582" y="708" on="1"/>
        <pt x="804" y="708" on="1"/>
      </contour>
    </TTGlyph>
    <TTGlyph name="Nacute" xMin="0" yMin="0" xMax="804" yMax="1007">
      <component glyphName="N" x="0" y="0" flags="0x0"/>
      <component glyphName="acute" x="274" y="147" flags="0x4"/>
    </TTGlyph>
    <TTGlyph name="Ncaron" xMin="0" yMin="0" xMax="804" yMax="968">
      <component glyphName="N" x="0" y="0" flags="0x0"/>
      <component glyphName="caron" x="239" y="147" flags="0x4"/>
    </TTGlyph>
    <TTGlyph name="Ntilde" xMin="0" yMin="0" xMax="804" yMax="936">
      <component glyphName="N" x="0" y="0" flags="0x0"/>
      <component glyphName="tilde" x="181" y="147" flags="0x4"/>
    </TTGlyph>
    <TTGlyph name="O" xMin="47" yMin="-7" xMax="767" yMax="720">
      <contour>
        <pt x="257" y="-7" on="0"/>
        <pt x="121" y="67" on="0"/>
        <pt x="47" y="202" on="0"/>
        <pt x="47" y="289" on="1"/>
        <pt x="47" y="416" on="0"/>
        <pt x="152" y="611" on="0"/>
        <pt x="341" y="720" on="0"/>
        <pt x="464" y="720" on="1"/>
        <pt x="556" y="720" on="0"/>
        <pt x="693" y="647" on="0"/>
        <pt x="767" y="514" on="0"/>
        <pt x="767" y="427" on="1"/>
        <pt x="767" y="301" on="0"/>
        <pt x="662" y="103" on="0"/>
        <pt x="471" y="-7" on="0"/>
        <pt x="347" y="-7" on="1"/>
      </contour>
      <contour>
        <pt x="433" y="200" on="0"/>
        <pt x="510" y="255" on="0"/>
        <pt x="550" y="346" on="0"/>
        <pt x="550" y="399" on="1"/>
        <pt x="550" y="454" on="0"/>
        <pt x="491" y="515" on="0"/>
        <pt x="436" y="515" on="1"/>
        <pt x="384" y="515" on="0"/>
        <pt x="306" y="461" on="0"/>
        <pt x="265" y="370" on="0"/>
        <pt x="265" y="317" on="1"/>
        <pt x="265" y="262" on="0"/>
        <pt x="324" y="200" on="0"/>
        <pt x="381" y="200" on="1"/>
      </contour>
    </TTGlyph>
    <TTGlyph name="OE" xMin="43" yMin="-12" xMax="1097" yMax="720">
      <contour>
        <pt x="801" y="444" on="1"/>
        <pt x="1021" y="444" on="1"/>
        <pt x="991" y="277" on="1"/>
        <pt x="771" y="277" on="1"/>
        <pt x="753" y="177" on="1"/>
        <pt x="1003" y="177" on="1"/>
        <pt x="972" y="0" on="1"/>
        <pt x="500" y="0" on="1"/>
        <pt x="507" y="37" on="1"/>
        <pt x="441" y="-7" on="0"/>
        <pt x="333" y="-12" on="1"/>
        <pt x="246" y="-12" on="0"/>
        <pt x="114" y="60" on="0"/>
        <pt x="43" y="191" on="0"/>
        <pt x="43" y="277" on="1"/>
        <pt x="43" y="316" on="0"/>
        <pt x="50" y="354" on="1"/>
        <pt x="69" y="460" on="0"/>
        <pt x="187" y="627" on="0"/>
        <pt x="362" y="720" on="0"/>
        <pt x="462" y="720" on="1"/>
        <pt x="508" y="720" on="0"/>
        <pt x="591" y="695" on="0"/>
        <pt x="619" y="671" on="1"/>
        <pt x="625" y="708" on="1"/>
        <pt x="1097" y="708" on="1"/>
        <pt x="1066" y="532" on="1"/>
        <pt x="816" y="532" on="1"/>
      </contour>
      <contour>
        <pt x="272" y="333" on="0"/>
        <pt x="272" y="309" on="1"/>
        <pt x="272" y="254" on="0"/>
        <pt x="330" y="193" on="0"/>
        <pt x="386" y="193" on="1"/>
        <pt x="452" y="193" on="0"/>
        <pt x="539" y="279" on="0"/>
        <pt x="553" y="354" on="1"/>
        <pt x="557" y="374" on="0"/>
        <pt x="557" y="397" on="1"/>
        <pt x="557" y="453" on="0"/>
        <pt x="498" y="515" on="0"/>
        <pt x="443" y="515" on="1"/>
        <pt x="376" y="515" on="0"/>
        <pt x="289" y="429" on="0"/>
        <pt x="276" y="354" on="1"/>
      </contour>
    </TTGlyph>
    <TTGlyph name="Oacute" xMin="47" yMin="-7" xMax="767" yMax="1007">
      <component glyphName="O" x="0" y="0" flags="0x0"/>
      <component glyphName="acute" x="280" y="147" flags="0x4"/>
    </TTGlyph>
    <TTGlyph name="Ocircumflex" xMin="47" yMin="-7" xMax="767" yMax="968">
      <component glyphName="O" x="0" y="0" flags="0x0"/>
      <component glyphName="circumflex" x="245" y="147" flags="0x4"/>
    </TTGlyph>
    <TTGlyph name="Odieresis" xMin="47" yMin="-7" xMax="767" yMax="939">
      <component glyphName="O" x="0" y="0" flags="0x0"/>
      <component glyphName="dieresis" x="212" y="147" flags="0x4"/>
    </TTGlyph>
    <TTGlyph name="Ograve" xMin="47" yMin="-7" xMax="767" yMax="1007">
      <component glyphName="O" x="0" y="0" flags="0x0"/>
      <component glyphName="grave" x="280" y="147" flags="0x4"/>
    </TTGlyph>
    <TTGlyph name="Ohungarumlaut" xMin="47" yMin="-7" xMax="821" yMax="992">
      <component glyphName="O" x="0" y="0" flags="0x0"/>
      <component glyphName="hungarumlaut" x="219" y="147" flags="0x4"/>
    </TTGlyph>
    <TTGlyph name="Omacron" xMin="47" yMin="-7" xMax="767" yMax="916">
      <component glyphName="O" x="0" y="0" flags="0x0"/>
      <component glyphName="macron" x="196" y="147" flags="0x4"/>
    </TTGlyph>
    <TTGlyph name="Oslash" xMin="-32" yMin="-7" xMax="845" yMax="720">
      <contour>
        <pt x="720" y="595" on="1"/>
        <pt x="766" y="524" on="0"/>
        <pt x="766" y="427" on="1"/>
        <pt x="766" y="301" on="0"/>
        <pt x="661" y="103" on="0"/>
        <pt x="470" y="-7" on="0"/>
        <pt x="346" y="-7" on="1"/>
        <pt x="226" y="-7" on="0"/>
        <pt x="146" y="59" on="1"/>
        <pt x="84" y="1" on="1"/>
        <pt x="-32" y="1" on="1"/>
        <pt x="93" y="118" on="1"/>
        <pt x="46" y="192" on="0"/>
        <pt x="46" y="289" on="1"/>
        <pt x="46" y="416" on="0"/>
        <pt x="151" y="611" on="0"/>
        <pt x="340" y="720" on="0"/>
        <pt x="463" y="720" on="1"/>
        <pt x="588" y="720" on="0"/>
        <pt x="668" y="654" on="1"/>
        <pt x="730" y="712" on="1"/>
        <pt x="845" y="712" on="1"/>
      </contour>
      <contour>
        <pt x="264" y="296" on="0"/>
        <pt x="268" y="281" on="1"/>
        <pt x="502" y="499" on="1"/>
        <pt x="473" y="515" on="0"/>
        <pt x="435" y="515" on="1"/>
        <pt x="383" y="515" on="0"/>
        <pt x="305" y="461" on="0"/>
        <pt x="264" y="370" on="0"/>
        <pt x="264" y="317" on="1"/>
      </contour>
      <contour>
        <pt x="549" y="417" on="0"/>
        <pt x="546" y="432" on="1"/>
        <pt x="314" y="216" on="1"/>
        <pt x="339" y="200" on="0"/>
        <pt x="380" y="200" on="1"/>
        <pt x="432" y="200" on="0"/>
        <pt x="509" y="255" on="0"/>
        <pt x="549" y="346" on="0"/>
        <pt x="549" y="399" on="1"/>
      </contour>
    </TTGlyph>
    <TTGlyph name="Otilde" xMin="47" yMin="-7" xMax="767" yMax="936">
      <component glyphName="O" x="0" y="0" flags="0x0"/>
      <component glyphName="tilde" x="187" y="147" flags="0x4"/>
    </TTGlyph>
    <TTGlyph name="P" xMin="0" yMin="0" xMax="666" yMax="708">
      <contour>
        <pt x="649" y="398" on="0"/>
        <pt x="569" y="289" on="0"/>
        <pt x="436" y="225" on="0"/>
        <pt x="350" y="225" on="1"/>
        <pt x="262" y="225" on="1"/>
        <pt x="222" y="0" on="1"/>
        <pt x="0" y="0" on="1"/>
        <pt x="125" y="708" on="1"/>
        <pt x="435" y="708" on="1"/>
        <pt x="548" y="708" on="0"/>
        <pt x="666" y="606" on="0"/>
        <pt x="666" y="517" on="1"/>
        <pt x="666" y="495" on="0"/>
        <pt x="661" y="465" on="1"/>
      </contour>
      <contour>
        <pt x="424" y="400" on="0"/>
        <pt x="436" y="465" on="1"/>
        <pt x="438" y="477" on="0"/>
        <pt x="438" y="482" on="1"/>
        <pt x="438" y="530" on="0"/>
        <pt x="379" y="530" on="1"/>
        <pt x="316" y="530" on="1"/>
        <pt x="293" y="400" on="1"/>
        <pt x="356" y="400" on="1"/>
      </contour>
    </TTGlyph>
    <TTGlyph name="Q" xMin="47" yMin="-115" xMax="767" yMax="720">
      <contour>
        <pt x="767" y="313" on="0"/>
        <pt x="681" y="129" on="0"/>
        <pt x="602" y="71" on="1"/>
        <pt x="708" y="-115" on="1"/>
        <pt x="446" y="-115" on="1"/>
        <pt x="399" y="-4" on="1"/>
        <pt x="374" y="-7" on="0"/>
        <pt x="347" y="-7" on="1"/>
        <pt x="257" y="-7" on="0"/>
        <pt x="121" y="67" on="0"/>
        <pt x="47" y="202" on="0"/>
        <pt x="47" y="289" on="1"/>
        <pt x="47" y="416" on="0"/>
        <pt x="152" y="611" on="0"/>
        <pt x="341" y="720" on="0"/>
        <pt x="464" y="720" on="1"/>
        <pt x="556" y="720" on="0"/>
        <pt x="693" y="647" on="0"/>
        <pt x="767" y="514" on="0"/>
        <pt x="767" y="427" on="1"/>
      </contour>
      <contour>
        <pt x="265" y="262" on="0"/>
        <pt x="324" y="200" on="0"/>
        <pt x="381" y="200" on="1"/>
        <pt x="433" y="200" on="0"/>
        <pt x="510" y="255" on="0"/>
        <pt x="550" y="346" on="0"/>
        <pt x="550" y="399" on="1"/>
        <pt x="550" y="454" on="0"/>
        <pt x="491" y="515" on="0"/>
        <pt x="436" y="515" on="1"/>
        <pt x="384" y="515" on="0"/>
        <pt x="306" y="461" on="0"/>
        <pt x="265" y="370" on="0"/>
        <pt x="265" y="317" on="1"/>
      </contour>
    </TTGlyph>
    <TTGlyph name="R" xMin="0" yMin="0" xMax="687" yMax="708">
      <contour>
        <pt x="569" y="708" on="0"/>
        <pt x="687" y="606" on="0"/>
        <pt x="687" y="521" on="1"/>
        <pt x="687" y="496" on="0"/>
        <pt x="683" y="476" on="1"/>
        <pt x="670" y="404" on="0"/>
        <pt x="572" y="295" on="0"/>
        <pt x="494" y="271" on="1"/>
        <pt x="600" y="0" on="1"/>
        <pt x="356" y="0" on="1"/>
        <pt x="267" y="254" on="1"/>
        <pt x="222" y="0" on="1"/>
        <pt x="0" y="0" on="1"/>
        <pt x="125" y="708" on="1"/>
        <pt x="455" y="708" on="1"/>
      </contour>
      <contour>
        <pt x="293" y="402" on="1"/>
        <pt x="381" y="402" on="1"/>
        <pt x="413" y="402" on="0"/>
        <pt x="450" y="431" on="0"/>
        <pt x="456" y="462" on="1"/>
        <pt x="457" y="467" on="0"/>
        <pt x="457" y="475" on="1"/>
        <pt x="457" y="497" on="0"/>
        <pt x="429" y="522" on="0"/>
        <pt x="402" y="522" on="1"/>
        <pt x="314" y="522" on="1"/>
      </contour>
    </TTGlyph>
    <TTGlyph name="Racute" xMin="0" yMin="0" xMax="687" yMax="1007">
      <component glyphName="R" x="0" y="0" flags="0x0"/>
      <component glyphName="acute" x="210" y="147" flags="0x4"/>
    </TTGlyph>
    <TTGlyph name="Rcaron" xMin="0" yMin="0" xMax="687" yMax="968">
      <component glyphName="R" x="0" y="0" flags="0x0"/>
      <component glyphName="caron" x="175" y="147" flags="0x4"/>
    </TTGlyph>
    <TTGlyph name="S" xMin="19" yMin="-7" xMax="629" yMax="720">
      <contour>
        <pt x="174" y="-7" on="0"/>
        <pt x="19" y="97" on="0"/>
        <pt x="19" y="197" on="1"/>
        <pt x="19" y="207" on="0"/>
        <pt x="21" y="227" on="1"/>
        <pt x="257" y="227" on="1"/>
        <pt x="254" y="196" on="0"/>
        <pt x="279" y="166" on="0"/>
        <pt x="308" y="166" on="1"/>
        <pt x="326" y="166" on="0"/>
        <pt x="350" y="184" on="0"/>
        <pt x="350" y="201" on="1"/>
        <pt x="350" y="225" on="0"/>
        <pt x="303" y="257" on="0"/>
        <pt x="251" y="279" on="1"/>
        <pt x="194" y="303" on="0"/>
        <pt x="121" y="347" on="0"/>
        <pt x="67" y="423" on="0"/>
        <pt x="67" y="480" on="1"/>
        <pt x="67" y="555" on="0"/>
        <pt x="142" y="664" on="0"/>
        <pt x="276" y="720" on="0"/>
        <pt x="362" y="720" on="1"/>
        <pt x="439" y="720" on="0"/>
        <pt x="560" y="672" on="0"/>
        <pt x="629" y="581" on="0"/>
        <pt x="629" y="519" on="1"/>
        <pt x="629" y="511" on="0"/>
        <pt x="627" y="491" on="1"/>
        <pt x="388" y="491" on="1"/>
        <pt x="390" y="503" on="0"/>
        <pt x="390" y="507" on="1"/>
        <pt x="390" y="526" on="0"/>
        <pt x="368" y="547" on="0"/>
        <pt x="349" y="547" on="1"/>
        <pt x="332" y="547" on="0"/>
        <pt x="310" y="527" on="0"/>
        <pt x="310" y="511" on="1"/>
        <pt x="310" y="489" on="0"/>
        <pt x="356" y="456" on="0"/>
        <pt x="406" y="432" on="1"/>
        <pt x="463" y="405" on="0"/>
        <pt x="538" y="357" on="0"/>
        <pt x="592" y="278" on="0"/>
        <pt x="592" y="221" on="1"/>
        <pt x="592" y="156" on="0"/>
        <pt x="523" y="52" on="0"/>
        <pt x="393" y="-7" on="0"/>
        <pt x="304" y="-7" on="1"/>
      </contour>
    </TTGlyph>
    <TTGlyph name="Sacute" xMin="19" yMin="-7" xMax="629" yMax="1007">
      <component glyphName="S" x="0" y="0" flags="0x0"/>
      <component glyphName="acute" x="215" y="147" flags="0x4"/>
    </TTGlyph>
    <TTGlyph name="Scaron" xMin="19" yMin="-7" xMax="629" yMax="968">
      <component glyphName="S" x="0" y="0" flags="0x0"/>
      <component glyphName="caron" x="180" y="147" flags="0x4"/>
    </TTGlyph>
    <TTGlyph name="T" xMin="54" yMin="0" xMax="681" yMax="708">
      <contour>
        <pt x="681" y="708" on="1"/>
        <pt x="650" y="532" on="1"/>
        <pt x="462" y="532" on="1"/>
        <pt x="368" y="0" on="1"/>
        <pt x="146" y="0" on="1"/>
        <pt x="240" y="532" on="1"/>
        <pt x="54" y="532" on="1"/>
        <pt x="85" y="708" on="1"/>
      </contour>
    </TTGlyph>
    <TTGlyph name="Tcaron" xMin="54" yMin="0" xMax="681" yMax="968">
      <component glyphName="T" x="0" y="0" flags="0x0"/>
      <component glyphName="caron" x="153" y="147" flags="0x4"/>
    </TTGlyph>
    <TTGlyph name="Thorn" xMin="0" yMin="0" xMax="646" yMax="708">
      <contour>
        <pt x="631" y="291" on="0"/>
        <pt x="551" y="186" on="0"/>
        <pt x="418" y="125" on="0"/>
        <pt x="332" y="125" on="1"/>
        <pt x="244" y="125" on="1"/>
        <pt x="222" y="0" on="1"/>
        <pt x="0" y="0" on="1"/>
        <pt x="125" y="708" on="1"/>
        <pt x="345" y="708" on="1"/>
        <pt x="324" y="588" on="1"/>
        <pt x="414" y="588" on="1"/>
        <pt x="528" y="588" on="0"/>
        <pt x="646" y="489" on="0"/>
        <pt x="646" y="403" on="1"/>
        <pt x="646" y="378" on="0"/>
        <pt x="642" y="355" on="1"/>
      </contour>
      <contour>
        <pt x="405" y="290" on="0"/>
        <pt x="417" y="355" on="1"/>
        <pt x="419" y="367" on="0"/>
        <pt x="419" y="372" on="1"/>
        <pt x="419" y="395" on="0"/>
        <pt x="389" y="420" on="0"/>
        <pt x="359" y="420" on="1"/>
        <pt x="296" y="420" on="1"/>
        <pt x="273" y="290" on="1"/>
        <pt x="336" y="290" on="1"/>
      </contour>
    </TTGlyph>
    <TTGlyph name="U" xMin="44" yMin="-7" xMax="748" yMax="708">
      <contour>
        <pt x="342" y="708" on="1"/>
        <pt x="272" y="309" on="1"/>
        <pt x="269" y="293" on="0"/>
        <pt x="269" y="276" on="1"/>
        <pt x="269" y="242" on="0"/>
        <pt x="305" y="203" on="0"/>
        <pt x="344" y="203" on="1"/>
        <pt x="392" y="203" on="0"/>
        <pt x="448" y="260" on="0"/>
        <pt x="457" y="309" on="1"/>
        <pt x="527" y="708" on="1"/>
        <pt x="748" y="708" on="1"/>
        <pt x="678" y="309" on="1"/>
        <pt x="660" y="205" on="0"/>
        <pt x="553" y="63" on="0"/>
        <pt x="398" y="-7" on="0"/>
        <pt x="305" y="-7" on="1"/>
        <pt x="186" y="-7" on="0"/>
        <pt x="44" y="118" on="0"/>
        <pt x="44" y="234" on="1"/>
        <pt x="44" y="271" on="0"/>
        <pt x="51" y="309" on="1"/>
        <pt x="121" y="708" on="1"/>
      </contour>
    </TTGlyph>
    <TTGlyph name="Uacute" xMin="44" yMin="-7" xMax="748" yMax="1007">
      <component glyphName="U" x="0" y="0" flags="0x0"/>
      <component glyphName="acute" x="245" y="147" flags="0x4"/>
    </TTGlyph>
    <TTGlyph name="Ubreve" xMin="44" yMin="-7" xMax="748" yMax="967">
      <component glyphName="U" x="0" y="0" flags="0x0"/>
      <component glyphName="breve" x="188" y="147" flags="0x4"/>
    </TTGlyph>
    <TTGlyph name="Ucircumflex" xMin="44" yMin="-7" xMax="748" yMax="968">
      <component glyphName="U" x="0" y="0" flags="0x0"/>
      <component glyphName="circumflex" x="210" y="147" flags="0x4"/>
    </TTGlyph>
    <TTGlyph name="Udieresis" xMin="44" yMin="-7" xMax="748" yMax="939">
      <component glyphName="U" x="0" y="0" flags="0x0"/>
      <component glyphName="dieresis" x="177" y="147" flags="0x4"/>
    </TTGlyph>
    <TTGlyph name="Ugrave" xMin="44" yMin="-7" xMax="748" yMax="1007">
      <component glyphName="U" x="0" y="0" flags="0x0"/>
      <component glyphName="grave" x="245" y="147" flags="0x4"/>
    </TTGlyph>
    <TTGlyph name="Uhungarumlaut" xMin="44" yMin="-7" xMax="786" yMax="992">
      <component glyphName="U" x="0" y="0" flags="0x0"/>
      <component glyphName="hungarumlaut" x="184" y="147" flags="0x4"/>
    </TTGlyph>
    <TTGlyph name="Umacron" xMin="44" yMin="-7" xMax="748" yMax="916">
      <component glyphName="U" x="0" y="0" flags="0x0"/>
      <component glyphName="macron" x="161" y="147" flags="0x4"/>
    </TTGlyph>
    <TTGlyph name="Uogonek" xMin="44" yMin="-220" xMax="748" yMax="708">
      <contour>
        <pt x="748" y="708" on="1"/>
        <pt x="678" y="309" on="1"/>
        <pt x="656" y="181" on="0"/>
        <pt x="508" y="26" on="0"/>
        <pt x="400" y="3" on="1"/>
        <pt x="354" y="-18" on="1"/>
        <pt x="309" y="-38" on="0"/>
        <pt x="269" y="-68" on="0"/>
        <pt x="266" y="-83" on="1"/>
        <pt x="264" y="-92" on="0"/>
        <pt x="280" y="-104" on="0"/>
        <pt x="296" y="-104" on="1"/>
        <pt x="333" y="-104" on="0"/>
        <pt x="384" y="-88" on="1"/>
        <pt x="364" y="-204" on="1"/>
        <pt x="308" y="-220" on="0"/>
        <pt x="248" y="-220" on="1"/>
        <pt x="180" y="-220" on="0"/>
        <pt x="106" y="-168" on="0"/>
        <pt x="106" y="-122" on="1"/>
        <pt x="106" y="-114" on="0"/>
        <pt x="108" y="-100" on="1"/>
        <pt x="114" y="-68" on="0"/>
        <pt x="151" y="-14" on="0"/>
        <pt x="189" y="12" on="1"/>
        <pt x="121" y="37" on="0"/>
        <pt x="44" y="150" on="0"/>
        <pt x="44" y="234" on="1"/>
        <pt x="44" y="271" on="0"/>
        <pt x="51" y="309" on="1"/>
        <pt x="121" y="708" on="1"/>
        <pt x="342" y="708" on="1"/>
        <pt x="272" y="309" on="1"/>
        <pt x="269" y="293" on="0"/>
        <pt x="269" y="276" on="1"/>
        <pt x="269" y="242" on="0"/>
        <pt x="305" y="203" on="0"/>
        <pt x="344" y="203" on="1"/>
        <pt x="392" y="203" on="0"/>
        <pt x="448" y="260" on="0"/>
        <pt x="457" y="309" on="1"/>
        <pt x="527" y="708" on="1"/>
      </contour>
    </TTGlyph>
    <TTGlyph name="Uring" xMin="44" yMin="-7" xMax="748" yMax="1004">
      <component glyphName="U" x="0" y="0" flags="0x0"/>
      <component glyphName="ring" x="244" y="147" flags="0x4"/>
    </TTGlyph>
    <TTGlyph name="Utilde" xMin="44" yMin="-7" xMax="748" yMax="936">
      <component glyphName="U" x="0" y="0" flags="0x0"/>
      <component glyphName="tilde" x="152" y="147" flags="0x4"/>
    </TTGlyph>
    <TTGlyph name="V" xMin="75" yMin="0" xMax="838" yMax="708">
      <contour>
        <pt x="311" y="708" on="1"/>
        <pt x="371" y="221" on="1"/>
        <pt x="602" y="708" on="1"/>
        <pt x="838" y="708" on="1"/>
        <pt x="475" y="0" on="1"/>
        <pt x="188" y="0" on="1"/>
        <pt x="75" y="708" on="1"/>
      </contour>
    </TTGlyph>
    <TTGlyph name="W" xMin="105" yMin="0" xMax="1145" yMax="708">
      <contour>
        <pt x="1145" y="708" on="1"/>
        <pt x="858" y="0" on="1"/>
        <pt x="582" y="0" on="1"/>
        <pt x="571" y="402" on="1"/>
        <pt x="418" y="0" on="1"/>
        <pt x="142" y="0" on="1"/>
        <pt x="105" y="708" on="1"/>
        <pt x="344" y="708" on="1"/>
        <pt x="330" y="262" on="1"/>
        <pt x="504" y="708" on="1"/>
        <pt x="746" y="708" on="1"/>
        <pt x="763" y="262" on="1"/>
        <pt x="906" y="708" on="1"/>
      </contour>
    </TTGlyph>
    <TTGlyph name="Wacute" xMin="105" yMin="0" xMax="1145" yMax="1004">
      <component glyphName="W" x="0" y="0" flags="0x0"/>
      <component glyphName="acute" x="411" y="144" flags="0x4"/>
    </TTGlyph>
    <TTGlyph name="Wcircumflex" xMin="105" yMin="0" xMax="1145" yMax="965">
      <component glyphName="W" x="0" y="0" flags="0x0"/>
      <component glyphName="circumflex" x="375" y="144" flags="0x4"/>
    </TTGlyph>
    <TTGlyph name="Wdieresis" xMin="105" yMin="0" xMax="1145" yMax="936">
      <component glyphName="W" x="0" y="0" flags="0x0"/>
      <component glyphName="dieresis" x="342" y="144" flags="0x4"/>
    </TTGlyph>
    <TTGlyph name="Wgrave" xMin="105" yMin="0" xMax="1145" yMax="1004">
      <component glyphName="W" x="0" y="0" flags="0x0"/>
      <component glyphName="grave" x="411" y="144" flags="0x4"/>
    </TTGlyph>
    <TTGlyph name="X" xMin="-40" yMin="0" xMax="820" yMax="708">
      <contour>
        <pt x="528" y="350" on="1"/>
        <pt x="714" y="0" on="1"/>
        <pt x="451" y="0" on="1"/>
        <pt x="354" y="184" on="1"/>
        <pt x="213" y="0" on="1"/>
        <pt x="-40" y="0" on="1"/>
        <pt x="257" y="365" on="1"/>
        <pt x="75" y="708" on="1"/>
        <pt x="338" y="708" on="1"/>
        <pt x="432" y="531" on="1"/>
        <pt x="567" y="708" on="1"/>
        <pt x="820" y="708" on="1"/>
      </contour>
    </TTGlyph>
    <TTGlyph name="Y" xMin="75" yMin="0" xMax="805" yMax="708">
      <contour>
        <pt x="805" y="708" on="1"/>
        <pt x="464" y="215" on="1"/>
        <pt x="426" y="0" on="1"/>
        <pt x="204" y="0" on="1"/>
        <pt x="242" y="215" on="1"/>
        <pt x="75" y="708" on="1"/>
        <pt x="329" y="708" on="1"/>
        <pt x="398" y="457" on="1"/>
        <pt x="555" y="708" on="1"/>
      </contour>
    </TTGlyph>
    <TTGlyph name="Yacute" xMin="75" yMin="0" xMax="805" yMax="1007">
      <component glyphName="Y" x="0" y="0" flags="0x0"/>
      <component glyphName="acute" x="251" y="147" flags="0x4"/>
    </TTGlyph>
    <TTGlyph name="Ycircumflex" xMin="75" yMin="0" xMax="805" yMax="968">
      <component glyphName="Y" x="0" y="0" flags="0x0"/>
      <component glyphName="circumflex" x="216" y="147" flags="0x4"/>
    </TTGlyph>
    <TTGlyph name="Ydieresis" xMin="75" yMin="0" xMax="805" yMax="939">
      <component glyphName="Y" x="0" y="0" flags="0x0"/>
      <component glyphName="dieresis" x="183" y="147" flags="0x4"/>
    </TTGlyph>
    <TTGlyph name="Ygrave" xMin="75" yMin="0" xMax="805" yMax="1007">
      <component glyphName="Y" x="0" y="0" flags="0x0"/>
      <component glyphName="grave" x="251" y="147" flags="0x4"/>
    </TTGlyph>
    <TTGlyph name="Z" xMin="0" yMin="0" xMax="655" yMax="708">
      <contour>
        <pt x="277" y="177" on="1"/>
        <pt x="561" y="177" on="1"/>
        <pt x="530" y="0" on="1"/>
        <pt x="0" y="0" on="1"/>
        <pt x="30" y="167" on="1"/>
        <pt x="374" y="532" on="1"/>
        <pt x="94" y="532" on="1"/>
        <pt x="125" y="708" on="1"/>
        <pt x="655" y="708" on="1"/>
        <pt x="626" y="541" on="1"/>
      </contour>
    </TTGlyph>
    <TTGlyph name="Zacute" xMin="0" yMin="0" xMax="655" yMax="1007">
      <component glyphName="Z" x="0" y="0" flags="0x0"/>
      <component glyphName="acute" x="200" y="147" flags="0x4"/>
    </TTGlyph>
    <TTGlyph name="Zcaron" xMin="0" yMin="0" xMax="655" yMax="968">
      <component glyphName="Z" x="0" y="0" flags="0x0"/>
      <component glyphName="caron" x="165" y="147" flags="0x4"/>
    </TTGlyph>
    <TTGlyph name="Zdotaccent" xMin="0" yMin="0" xMax="655" yMax="939">
      <component glyphName="Z" x="0" y="0" flags="0x0"/>
      <component glyphName="dotaccent" x="244" y="147" flags="0x4"/>
    </TTGlyph>
    <TTGlyph name="a" xMin="13" yMin="-7" xMax="680" yMax="571">
      <contour>
        <pt x="36" y="371" on="0"/>
        <pt x="120" y="502" on="0"/>
        <pt x="238" y="571" on="0"/>
        <pt x="304" y="571" on="1"/>
        <pt x="359" y="571" on="0"/>
        <pt x="431" y="526" on="0"/>
        <pt x="445" y="487" on="1"/>
        <pt x="459" y="564" on="1"/>
        <pt x="680" y="564" on="1"/>
        <pt x="580" y="0" on="1"/>
        <pt x="359" y="0" on="1"/>
        <pt x="373" y="77" on="1"/>
        <pt x="345" y="38" on="0"/>
        <pt x="257" y="-7" on="0"/>
        <pt x="202" y="-7" on="1"/>
        <pt x="117" y="-7" on="0"/>
        <pt x="13" y="107" on="0"/>
        <pt x="13" y="208" on="1"/>
        <pt x="13" y="246" on="0"/>
        <pt x="20" y="282" on="1"/>
      </contour>
      <contour>
        <pt x="411" y="291" on="0"/>
        <pt x="411" y="306" on="1"/>
        <pt x="411" y="340" on="0"/>
        <pt x="375" y="377" on="0"/>
        <pt x="344" y="377" on="1"/>
        <pt x="308" y="377" on="0"/>
        <pt x="253" y="327" on="0"/>
        <pt x="245" y="282" on="1"/>
        <pt x="243" y="273" on="0"/>
        <pt x="243" y="258" on="1"/>
        <pt x="243" y="224" on="0"/>
        <pt x="279" y="187" on="0"/>
        <pt x="310" y="187" on="1"/>
        <pt x="346" y="187" on="0"/>
        <pt x="401" y="237" on="0"/>
        <pt x="409" y="282" on="1"/>
      </contour>
    </TTGlyph>
    <TTGlyph name="a.ss02" xMin="-4" yMin="-11" xMax="608" yMax="572">
      <contour>
        <pt x="312" y="35" on="0"/>
        <pt x="204" y="-11" on="0"/>
        <pt x="145" y="-11" on="1"/>
        <pt x="79" y="-11" on="0"/>
        <pt x="-4" y="61" on="0"/>
        <pt x="-4" y="128" on="1"/>
        <pt x="-4" y="188" on="0"/>
        <pt x="72" y="279" on="0"/>
        <pt x="204" y="328" on="0"/>
        <pt x="284" y="328" on="1"/>
        <pt x="381" y="328" on="1"/>
        <pt x="383" y="340" on="0"/>
        <pt x="383" y="346" on="1"/>
        <pt x="383" y="369" on="0"/>
        <pt x="356" y="394" on="0"/>
        <pt x="332" y="394" on="1"/>
        <pt x="289" y="394" on="0"/>
        <pt x="266" y="354" on="1"/>
        <pt x="42" y="354" on="1"/>
        <pt x="75" y="451" on="0"/>
        <pt x="243" y="572" on="0"/>
        <pt x="360" y="572" on="1"/>
        <pt x="477" y="572" on="0"/>
        <pt x="608" y="468" on="0"/>
        <pt x="608" y="379" on="1"/>
        <pt x="608" y="354" on="0"/>
        <pt x="604" y="329" on="1"/>
        <pt x="546" y="0" on="1"/>
        <pt x="325" y="0" on="1"/>
        <pt x="338" y="76" on="1"/>
      </contour>
      <contour>
        <pt x="301" y="143" on="0"/>
        <pt x="356" y="190" on="0"/>
        <pt x="362" y="221" on="1"/>
        <pt x="362" y="223" on="1"/>
        <pt x="292" y="223" on="1"/>
        <pt x="264" y="223" on="0"/>
        <pt x="227" y="195" on="0"/>
        <pt x="227" y="174" on="1"/>
        <pt x="227" y="159" on="0"/>
        <pt x="249" y="143" on="0"/>
        <pt x="268" y="143" on="1"/>
      </contour>
    </TTGlyph>
    <TTGlyph name="aacute" xMin="13" yMin="-7" xMax="680" yMax="860">
      <component glyphName="a" x="0" y="0" flags="0x0"/>
      <component glyphName="acute" x="206" y="0" flags="0x0"/>
    </TTGlyph>
    <TTGlyph name="aacute.ss02" xMin="-4" yMin="-11" xMax="608" yMax="860">
      <component glyphName="acute" x="206" y="0" flags="0x0"/>
      <component glyphName="a.ss02" x="0" y="0" flags="0x0"/>
    </TTGlyph>
    <TTGlyph name="abreve" xMin="13" yMin="-7" xMax="680" yMax="820">
      <component glyphName="a" x="0" y="0" flags="0x0"/>
      <component glyphName="breve" x="149" y="0" flags="0x0"/>
    </TTGlyph>
    <TTGlyph name="abreve.ss02" xMin="-4" yMin="-11" xMax="630" yMax="820">
      <component glyphName="breve" x="149" y="0" flags="0x0"/>
      <component glyphName="a.ss02" x="0" y="0" flags="0x0"/>
    </TTGlyph>
    <TTGlyph name="acircumflex" xMin="13" yMin="-7" xMax="680" yMax="821">
      <component glyphName="a" x="0" y="0" flags="0x0"/>
      <component glyphName="circumflex" x="171" y="0" flags="0x0"/>
    </TTGlyph>
    <TTGlyph name="acircumflex.ss02" xMin="-4" yMin="-11" xMax="608" yMax="821">
      <component glyphName="circumflex" x="171" y="0" flags="0x0"/>
      <component glyphName="a.ss02" x="0" y="0" flags="0x0"/>
    </TTGlyph>
    <TTGlyph name="acute" xMin="66" yMin="602" xMax="371" yMax="860">
      <contour>
        <pt x="342" y="696" on="1"/>
        <pt x="66" y="602" on="1"/>
        <pt x="93" y="750" on="1"/>
        <pt x="371" y="860" on="1"/>
      </contour>
    </TTGlyph>
    <TTGlyph name="adieresis" xMin="13" yMin="-7" xMax="680" yMax="792">
      <component glyphName="a" x="0" y="0" flags="0x0"/>
      <component glyphName="dieresis" x="138" y="0" flags="0x0"/>
    </TTGlyph>
    <TTGlyph name="adieresis.ss02" xMin="-4" yMin="-11" xMax="621" yMax="792">
      <component glyphName="dieresis" x="138" y="0" flags="0x0"/>
      <component glyphName="a.ss02" x="0" y="0" flags="0x0"/>
    </TTGlyph>
    <TTGlyph name="ae" xMin="13" yMin="-7" xMax="1042" yMax="571">
      <contour>
        <pt x="937" y="571" on="0"/>
        <pt x="1042" y="459" on="0"/>
        <pt x="1042" y="359" on="1"/>
        <pt x="1042" y="333" on="0"/>
        <pt x="1035" y="287" on="1"/>
        <pt x="1029" y="260" on="0"/>
        <pt x="1022" y="243" on="1"/>
        <pt x="631" y="243" on="1"/>
        <pt x="629" y="201" on="0"/>
        <pt x="664" y="167" on="0"/>
        <pt x="697" y="167" on="1"/>
        <pt x="750" y="167" on="0"/>
        <pt x="773" y="203" on="1"/>
        <pt x="1008" y="203" on="1"/>
        <pt x="973" y="111" on="0"/>
        <pt x="831" y="-7" on="0"/>
        <pt x="745" y="-7" on="1"/>
        <pt x="685" y="-7" on="0"/>
        <pt x="609" y="37" on="0"/>
        <pt x="594" y="77" on="1"/>
        <pt x="580" y="0" on="1"/>
        <pt x="359" y="0" on="1"/>
        <pt x="373" y="77" on="1"/>
        <pt x="345" y="38" on="0"/>
        <pt x="257" y="-7" on="0"/>
        <pt x="202" y="-7" on="1"/>
        <pt x="117" y="-7" on="0"/>
        <pt x="13" y="107" on="0"/>
        <pt x="13" y="208" on="1"/>
        <pt x="13" y="246" on="0"/>
        <pt x="20" y="282" on="1"/>
        <pt x="36" y="371" on="0"/>
        <pt x="120" y="502" on="0"/>
        <pt x="238" y="571" on="0"/>
        <pt x="304" y="571" on="1"/>
        <pt x="359" y="571" on="0"/>
        <pt x="431" y="526" on="0"/>
        <pt x="445" y="487" on="1"/>
        <pt x="459" y="564" on="1"/>
        <pt x="680" y="564" on="1"/>
        <pt x="666" y="487" on="1"/>
        <pt x="693" y="527" on="0"/>
        <pt x="787" y="571" on="0"/>
        <pt x="847" y="571" on="1"/>
      </contour>
      <contour>
        <pt x="819" y="338" on="0"/>
        <pt x="819" y="346" on="1"/>
        <pt x="819" y="371" on="0"/>
        <pt x="777" y="397" on="0"/>
        <pt x="744" y="397" on="1"/>
        <pt x="672" y="397" on="0"/>
        <pt x="648" y="334" on="1"/>
        <pt x="818" y="334" on="1"/>
      </contour>
      <contour>
        <pt x="411" y="291" on="0"/>
        <pt x="411" y="306" on="1"/>
        <pt x="411" y="340" on="0"/>
        <pt x="375" y="377" on="0"/>
        <pt x="344" y="377" on="1"/>
        <pt x="308" y="377" on="0"/>
        <pt x="253" y="327" on="0"/>
        <pt x="245" y="282" on="1"/>
        <pt x="243" y="273" on="0"/>
        <pt x="243" y="258" on="1"/>
        <pt x="243" y="224" on="0"/>
        <pt x="279" y="187" on="0"/>
        <pt x="310" y="187" on="1"/>
        <pt x="346" y="187" on="0"/>
        <pt x="401" y="237" on="0"/>
        <pt x="409" y="282" on="1"/>
      </contour>
    </TTGlyph>
    <TTGlyph name="agrave" xMin="13" yMin="-7" xMax="680" yMax="860">
      <component glyphName="a" x="0" y="0" flags="0x0"/>
      <component glyphName="grave" x="206" y="0" flags="0x0"/>
    </TTGlyph>
    <TTGlyph name="agrave.ss02" xMin="-4" yMin="-11" xMax="608" yMax="860">
      <component glyphName="grave" x="206" y="0" flags="0x0"/>
      <component glyphName="a.ss02" x="0" y="0" flags="0x0"/>
    </TTGlyph>
    <TTGlyph name="amacron" xMin="13" yMin="-7" xMax="680" yMax="769">
      <component glyphName="a" x="0" y="0" flags="0x0"/>
      <component glyphName="macron" x="122" y="0" flags="0x0"/>
    </TTGlyph>
    <TTGlyph name="amacron.ss02" xMin="-4" yMin="-11" xMax="649" yMax="769">
      <component glyphName="macron" x="122" y="0" flags="0x0"/>
      <component glyphName="a.ss02" x="0" y="0" flags="0x0"/>
    </TTGlyph>
    <TTGlyph name="ampersand" xMin="7" yMin="-10" xMax="780" yMax="711">
      <contour>
        <pt x="706" y="234" on="0"/>
        <pt x="640" y="162" on="1"/>
        <pt x="779" y="0" on="1"/>
        <pt x="535" y="0" on="1"/>
        <pt x="494" y="46" on="1"/>
        <pt x="390" y="-10" on="0"/>
        <pt x="263" y="-10" on="1"/>
        <pt x="185" y="-10" on="0"/>
        <pt x="69" y="35" on="0"/>
        <pt x="7" y="117" on="0"/>
        <pt x="7" y="172" on="1"/>
        <pt x="7" y="246" on="0"/>
        <pt x="102" y="364" on="0"/>
        <pt x="182" y="402" on="1"/>
        <pt x="153" y="448" on="0"/>
        <pt x="153" y="493" on="1"/>
        <pt x="153" y="558" on="0"/>
        <pt x="225" y="657" on="0"/>
        <pt x="350" y="711" on="0"/>
        <pt x="428" y="711" on="1"/>
        <pt x="531" y="711" on="0"/>
        <pt x="641" y="623" on="0"/>
        <pt x="641" y="555" on="1"/>
        <pt x="641" y="541" on="0"/>
        <pt x="638" y="524" on="1"/>
        <pt x="436" y="524" on="1"/>
        <pt x="437" y="527" on="0"/>
        <pt x="437" y="533" on="1"/>
        <pt x="437" y="547" on="0"/>
        <pt x="417" y="562" on="0"/>
        <pt x="404" y="562" on="1"/>
        <pt x="386" y="562" on="0"/>
        <pt x="360" y="540" on="0"/>
        <pt x="360" y="519" on="1"/>
        <pt x="360" y="487" on="0"/>
        <pt x="391" y="452" on="1"/>
        <pt x="525" y="296" on="1"/>
        <pt x="545" y="326" on="0"/>
        <pt x="561" y="357" on="1"/>
        <pt x="565" y="366" on="1"/>
        <pt x="780" y="366" on="1"/>
        <pt x="766" y="340" on="1"/>
      </contour>
      <contour>
        <pt x="344" y="165" on="0"/>
        <pt x="379" y="175" on="1"/>
        <pt x="280" y="286" on="1"/>
        <pt x="259" y="271" on="0"/>
        <pt x="235" y="234" on="0"/>
        <pt x="235" y="217" on="1"/>
        <pt x="235" y="195" on="0"/>
        <pt x="275" y="165" on="0"/>
        <pt x="312" y="165" on="1"/>
      </contour>
    </TTGlyph>
    <TTGlyph name="ampersand.ss03" xMin="10" yMin="-7" xMax="650" yMax="715">
      <contour>
        <pt x="429" y="0" on="1"/>
        <pt x="399" y="56" on="1"/>
        <pt x="321" y="-7" on="0"/>
        <pt x="213" y="-7" on="1"/>
        <pt x="113" y="-7" on="0"/>
        <pt x="10" y="93" on="0"/>
        <pt x="10" y="173" on="1"/>
        <pt x="10" y="198" on="0"/>
        <pt x="14" y="218" on="1"/>
        <pt x="28" y="296" on="0"/>
        <pt x="126" y="407" on="0"/>
        <pt x="192" y="425" on="1"/>
        <pt x="179" y="457" on="0"/>
        <pt x="179" y="492" on="1"/>
        <pt x="179" y="516" on="0"/>
        <pt x="183" y="537" on="1"/>
        <pt x="191" y="584" on="0"/>
        <pt x="257" y="665" on="0"/>
        <pt x="367" y="715" on="0"/>
        <pt x="437" y="715" on="1"/>
        <pt x="610" y="715" on="0"/>
        <pt x="637" y="584" on="1"/>
        <pt x="641" y="565" on="0"/>
        <pt x="641" y="540" on="1"/>
        <pt x="641" y="500" on="0"/>
        <pt x="632" y="464" on="1"/>
        <pt x="426" y="464" on="1"/>
        <pt x="430" y="485" on="0"/>
        <pt x="430" y="505" on="1"/>
        <pt x="430" y="519" on="0"/>
        <pt x="421" y="532" on="0"/>
        <pt x="409" y="532" on="1"/>
        <pt x="400" y="532" on="0"/>
        <pt x="388" y="521" on="0"/>
        <pt x="386" y="512" on="1"/>
        <pt x="384" y="504" on="0"/>
        <pt x="390" y="487" on="0"/>
        <pt x="399" y="468" on="1"/>
        <pt x="650" y="0" on="1"/>
      </contour>
      <contour>
        <pt x="309" y="250" on="0"/>
        <pt x="285" y="270" on="0"/>
        <pt x="264" y="270" on="1"/>
        <pt x="238" y="270" on="0"/>
        <pt x="203" y="239" on="0"/>
        <pt x="203" y="214" on="1"/>
        <pt x="203" y="197" on="0"/>
        <pt x="227" y="176" on="0"/>
        <pt x="247" y="176" on="1"/>
        <pt x="273" y="176" on="0"/>
        <pt x="309" y="208" on="0"/>
        <pt x="309" y="233" on="1"/>
      </contour>
    </TTGlyph>
    <TTGlyph name="aogonek" xMin="13" yMin="-223" xMax="680" yMax="571">
      <contour>
        <pt x="489" y="-41" on="0"/>
        <pt x="449" y="-71" on="0"/>
        <pt x="446" y="-86" on="1"/>
        <pt x="444" y="-95" on="0"/>
        <pt x="460" y="-107" on="0"/>
        <pt x="476" y="-107" on="1"/>
        <pt x="513" y="-107" on="0"/>
        <pt x="564" y="-91" on="1"/>
        <pt x="544" y="-207" on="1"/>
        <pt x="488" y="-223" on="0"/>
        <pt x="428" y="-223" on="1"/>
        <pt x="360" y="-223" on="0"/>
        <pt x="286" y="-171" on="0"/>
        <pt x="286" y="-125" on="1"/>
        <pt x="286" y="-117" on="0"/>
        <pt x="288" y="-103" on="1"/>
        <pt x="294" y="-73" on="0"/>
        <pt x="326" y="-22" on="0"/>
        <pt x="359" y="2" on="1"/>
        <pt x="373" y="77" on="1"/>
        <pt x="345" y="38" on="0"/>
        <pt x="257" y="-7" on="0"/>
        <pt x="202" y="-7" on="1"/>
        <pt x="117" y="-7" on="0"/>
        <pt x="13" y="107" on="0"/>
        <pt x="13" y="208" on="1"/>
        <pt x="13" y="246" on="0"/>
        <pt x="20" y="282" on="1"/>
        <pt x="36" y="371" on="0"/>
        <pt x="120" y="502" on="0"/>
        <pt x="238" y="571" on="0"/>
        <pt x="304" y="571" on="1"/>
        <pt x="359" y="571" on="0"/>
        <pt x="431" y="526" on="0"/>
        <pt x="445" y="487" on="1"/>
        <pt x="459" y="564" on="1"/>
        <pt x="680" y="564" on="1"/>
        <pt x="580" y="0" on="1"/>
        <pt x="534" y="-21" on="1"/>
      </contour>
      <contour>
        <pt x="346" y="187" on="0"/>
        <pt x="401" y="237" on="0"/>
        <pt x="409" y="282" on="1"/>
        <pt x="411" y="291" on="0"/>
        <pt x="411" y="306" on="1"/>
        <pt x="411" y="340" on="0"/>
        <pt x="375" y="377" on="0"/>
        <pt x="344" y="377" on="1"/>
        <pt x="308" y="377" on="0"/>
        <pt x="253" y="327" on="0"/>
        <pt x="245" y="282" on="1"/>
        <pt x="243" y="273" on="0"/>
        <pt x="243" y="258" on="1"/>
        <pt x="243" y="224" on="0"/>
        <pt x="279" y="187" on="0"/>
        <pt x="310" y="187" on="1"/>
      </contour>
    </TTGlyph>
    <TTGlyph name="aogonek.ss02" xMin="-4" yMin="-223" xMax="608" yMax="572">
      <contour>
        <pt x="477" y="572" on="0"/>
        <pt x="608" y="468" on="0"/>
        <pt x="608" y="379" on="1"/>
        <pt x="608" y="354" on="0"/>
        <pt x="604" y="329" on="1"/>
        <pt x="546" y="0" on="1"/>
        <pt x="500" y="-21" on="1"/>
        <pt x="455" y="-41" on="0"/>
        <pt x="415" y="-71" on="0"/>
        <pt x="412" y="-86" on="1"/>
        <pt x="410" y="-95" on="0"/>
        <pt x="426" y="-107" on="0"/>
        <pt x="442" y="-107" on="1"/>
        <pt x="479" y="-107" on="0"/>
        <pt x="530" y="-91" on="1"/>
        <pt x="510" y="-207" on="1"/>
        <pt x="454" y="-223" on="0"/>
        <pt x="394" y="-223" on="1"/>
        <pt x="326" y="-223" on="0"/>
        <pt x="252" y="-171" on="0"/>
        <pt x="252" y="-125" on="1"/>
        <pt x="252" y="-117" on="0"/>
        <pt x="254" y="-103" on="1"/>
        <pt x="260" y="-73" on="0"/>
        <pt x="292" y="-22" on="0"/>
        <pt x="325" y="2" on="1"/>
        <pt x="338" y="76" on="1"/>
        <pt x="312" y="35" on="0"/>
        <pt x="204" y="-11" on="0"/>
        <pt x="145" y="-11" on="1"/>
        <pt x="79" y="-11" on="0"/>
        <pt x="-4" y="61" on="0"/>
        <pt x="-4" y="128" on="1"/>
        <pt x="-4" y="188" on="0"/>
        <pt x="72" y="279" on="0"/>
        <pt x="204" y="328" on="0"/>
        <pt x="284" y="328" on="1"/>
        <pt x="381" y="328" on="1"/>
        <pt x="383" y="340" on="0"/>
        <pt x="383" y="346" on="1"/>
        <pt x="383" y="369" on="0"/>
        <pt x="356" y="394" on="0"/>
        <pt x="332" y="394" on="1"/>
        <pt x="289" y="394" on="0"/>
        <pt x="266" y="354" on="1"/>
        <pt x="42" y="354" on="1"/>
        <pt x="75" y="451" on="0"/>
        <pt x="243" y="572" on="0"/>
        <pt x="360" y="572" on="1"/>
      </contour>
      <contour>
        <pt x="301" y="143" on="0"/>
        <pt x="356" y="190" on="0"/>
        <pt x="362" y="221" on="1"/>
        <pt x="362" y="223" on="1"/>
        <pt x="292" y="223" on="1"/>
        <pt x="264" y="223" on="0"/>
        <pt x="227" y="195" on="0"/>
        <pt x="227" y="174" on="1"/>
        <pt x="227" y="159" on="0"/>
        <pt x="249" y="143" on="0"/>
        <pt x="268" y="143" on="1"/>
      </contour>
    </TTGlyph>
    <TTGlyph name="apostrophemod.ss01" xMin="117" yMin="565" xMax="318" yMax="876">
      <component glyphName="quoteright.ss01" x="0" y="0" flags="0x0"/>
    </TTGlyph>
    <TTGlyph name="approxequal" xMin="2" yMin="70" xMax="720" yMax="611">
      <component glyphName="asciitilde" x="0" y="-111" flags="0x4"/>
      <component glyphName="asciitilde" x="0" y="164" flags="0x4"/>
    </TTGlyph>
    <TTGlyph name="aring" xMin="13" yMin="-7" xMax="680" yMax="857">
      <component glyphName="a" x="0" y="0" flags="0x0"/>
      <component glyphName="ring" x="205" y="0" flags="0x0"/>
    </TTGlyph>
    <TTGlyph name="aring.ss02" xMin="-4" yMin="-11" xMax="608" yMax="857">
      <component glyphName="ring" x="205" y="0" flags="0x0"/>
      <component glyphName="a.ss02" x="0" y="0" flags="0x0"/>
    </TTGlyph>
    <TTGlyph name="asciicircum" xMin="4" yMin="162" xMax="712" yMax="711">
      <contour>
        <pt x="224" y="162" on="1"/>
        <pt x="4" y="162" on="1"/>
        <pt x="347" y="711" on="1"/>
        <pt x="565" y="711" on="1"/>
        <pt x="712" y="162" on="1"/>
        <pt x="492" y="162" on="1"/>
        <pt x="411" y="460" on="1"/>
      </contour>
    </TTGlyph>
    <TTGlyph name="asciitilde" xMin="2" yMin="181" xMax="720" yMax="447">
      <contour>
        <pt x="47" y="317" on="0"/>
        <pt x="193" y="445" on="0"/>
        <pt x="284" y="445" on="1"/>
        <pt x="320" y="445" on="0"/>
        <pt x="376" y="424" on="0"/>
        <pt x="409" y="405" on="1"/>
        <pt x="435" y="391" on="0"/>
        <pt x="466" y="378" on="0"/>
        <pt x="483" y="378" on="1"/>
        <pt x="510" y="378" on="0"/>
        <pt x="542" y="409" on="0"/>
        <pt x="554" y="447" on="1"/>
        <pt x="720" y="447" on="1"/>
        <pt x="675" y="311" on="0"/>
        <pt x="529" y="183" on="0"/>
        <pt x="438" y="183" on="1"/>
        <pt x="402" y="183" on="0"/>
        <pt x="346" y="204" on="0"/>
        <pt x="313" y="223" on="1"/>
        <pt x="287" y="237" on="0"/>
        <pt x="255" y="250" on="0"/>
        <pt x="238" y="250" on="1"/>
        <pt x="211" y="250" on="0"/>
        <pt x="179" y="218" on="0"/>
        <pt x="166" y="181" on="1"/>
        <pt x="2" y="181" on="1"/>
      </contour>
    </TTGlyph>
    <TTGlyph name="asterisk" xMin="126" yMin="360" xMax="541" yMax="744">
      <contour>
        <pt x="495" y="709" on="1"/>
        <pt x="541" y="588" on="1"/>
        <pt x="424" y="552" on="1"/>
        <pt x="529" y="518" on="1"/>
        <pt x="433" y="391" on="1"/>
        <pt x="361" y="477" on="1"/>
        <pt x="369" y="360" on="1"/>
        <pt x="230" y="360" on="1"/>
        <pt x="278" y="477" on="1"/>
        <pt x="178" y="390" on="1"/>
        <pt x="126" y="519" on="1"/>
        <pt x="243" y="555" on="1"/>
        <pt x="140" y="587" on="1"/>
        <pt x="228" y="708" on="1"/>
        <pt x="305" y="625" on="1"/>
        <pt x="295" y="744" on="1"/>
        <pt x="437" y="744" on="1"/>
        <pt x="387" y="625" on="1"/>
      </contour>
    </TTGlyph>
    <TTGlyph name="at" xMin="60" yMin="-245" xMax="1037" yMax="687">
      <contour>
        <pt x="750" y="687" on="0"/>
        <pt x="936" y="593" on="0"/>
        <pt x="1037" y="424" on="0"/>
        <pt x="1037" y="315" on="1"/>
        <pt x="1037" y="225" on="0"/>
        <pt x="973" y="80" on="0"/>
        <pt x="849" y="-4" on="0"/>
        <pt x="762" y="-4" on="1"/>
        <pt x="707" y="-4" on="0"/>
        <pt x="630" y="36" on="0"/>
        <pt x="613" y="73" on="1"/>
        <pt x="588" y="34" on="0"/>
        <pt x="505" y="-7" on="0"/>
        <pt x="452" y="-7" on="1"/>
        <pt x="379" y="-7" on="0"/>
        <pt x="297" y="77" on="0"/>
        <pt x="297" y="153" on="1"/>
        <pt x="297" y="224" on="0"/>
        <pt x="353" y="350" on="0"/>
        <pt x="453" y="427" on="0"/>
        <pt x="515" y="427" on="1"/>
        <pt x="556" y="427" on="0"/>
        <pt x="611" y="393" on="0"/>
        <pt x="621" y="364" on="1"/>
        <pt x="631" y="422" on="1"/>
        <pt x="803" y="422" on="1"/>
        <pt x="764" y="201" on="1"/>
        <pt x="761" y="188" on="0"/>
        <pt x="761" y="176" on="1"/>
        <pt x="761" y="138" on="0"/>
        <pt x="793" y="138" on="1"/>
        <pt x="833" y="138" on="0"/>
        <pt x="874" y="235" on="0"/>
        <pt x="874" y="309" on="1"/>
        <pt x="874" y="378" on="0"/>
        <pt x="809" y="483" on="0"/>
        <pt x="690" y="541" on="0"/>
        <pt x="610" y="541" on="1"/>
        <pt x="502" y="541" on="0"/>
        <pt x="323" y="436" on="0"/>
        <pt x="220" y="257" on="0"/>
        <pt x="220" y="152" on="1"/>
        <pt x="220" y="38" on="0"/>
        <pt x="352" y="-96" on="0"/>
        <pt x="467" y="-96" on="1"/>
        <pt x="569" y="-96" on="0"/>
        <pt x="653" y="-60" on="1"/>
        <pt x="691" y="-199" on="1"/>
        <pt x="587" y="-245" on="0"/>
        <pt x="457" y="-245" on="1"/>
        <pt x="338" y="-245" on="0"/>
        <pt x="158" y="-151" on="0"/>
        <pt x="60" y="22" on="0"/>
        <pt x="60" y="136" on="1"/>
        <pt x="60" y="295" on="0"/>
        <pt x="210" y="546" on="0"/>
        <pt x="470" y="687" on="0"/>
        <pt x="629" y="687" on="1"/>
      </contour>
      <contour>
        <pt x="550" y="147" on="0"/>
        <pt x="591" y="191" on="0"/>
        <pt x="591" y="224" on="1"/>
        <pt x="591" y="247" on="0"/>
        <pt x="567" y="274" on="0"/>
        <pt x="548" y="274" on="1"/>
        <pt x="522" y="274" on="0"/>
        <pt x="482" y="229" on="0"/>
        <pt x="482" y="195" on="1"/>
        <pt x="482" y="173" on="0"/>
        <pt x="505" y="147" on="0"/>
        <pt x="525" y="147" on="1"/>
      </contour>
    </TTGlyph>
    <TTGlyph name="atilde" xMin="13" yMin="-7" xMax="680" yMax="789">
      <component glyphName="a" x="0" y="0" flags="0x0"/>
      <component glyphName="tilde" x="113" y="0" flags="0x0"/>
    </TTGlyph>
    <TTGlyph name="atilde.ss02" xMin="-4" yMin="-11" xMax="660" yMax="789">
      <component glyphName="tilde" x="113" y="0" flags="0x0"/>
      <component glyphName="a.ss02" x="0" y="0" flags="0x0"/>
    </TTGlyph>
    <TTGlyph name="b" xMin="0" yMin="-7" xMax="667" yMax="740">
      <contour>
        <pt x="336" y="526" on="0"/>
        <pt x="423" y="571" on="0"/>
        <pt x="478" y="571" on="1"/>
        <pt x="563" y="571" on="0"/>
        <pt x="667" y="457" on="0"/>
        <pt x="667" y="356" on="1"/>
        <pt x="667" y="318" on="0"/>
        <pt x="660" y="282" on="1"/>
        <pt x="644" y="193" on="0"/>
        <pt x="560" y="62" on="0"/>
        <pt x="442" y="-7" on="0"/>
        <pt x="376" y="-7" on="1"/>
        <pt x="321" y="-7" on="0"/>
        <pt x="250" y="38" on="0"/>
        <pt x="236" y="77" on="1"/>
        <pt x="222" y="0" on="1"/>
        <pt x="0" y="0" on="1"/>
        <pt x="131" y="740" on="1"/>
        <pt x="353" y="740" on="1"/>
        <pt x="308" y="487" on="1"/>
      </contour>
      <contour>
        <pt x="437" y="291" on="0"/>
        <pt x="437" y="306" on="1"/>
        <pt x="437" y="340" on="0"/>
        <pt x="401" y="377" on="0"/>
        <pt x="370" y="377" on="1"/>
        <pt x="334" y="377" on="0"/>
        <pt x="279" y="327" on="0"/>
        <pt x="271" y="282" on="1"/>
        <pt x="269" y="273" on="0"/>
        <pt x="269" y="258" on="1"/>
        <pt x="269" y="224" on="0"/>
        <pt x="305" y="187" on="0"/>
        <pt x="336" y="187" on="1"/>
        <pt x="372" y="187" on="0"/>
        <pt x="427" y="237" on="0"/>
        <pt x="435" y="282" on="1"/>
      </contour>
    </TTGlyph>
    <TTGlyph name="backslash" xMin="189" yMin="-198" xMax="437" yMax="955">
      <contour>
        <pt x="225" y="-198" on="1"/>
        <pt x="189" y="955" on="1"/>
        <pt x="401" y="955" on="1"/>
        <pt x="437" y="-198" on="1"/>
      </contour>
    </TTGlyph>
    <TTGlyph name="bar" xMin="-55" yMin="-144" xMax="338" yMax="828">
      <contour>
        <pt x="167" y="-144" on="1"/>
        <pt x="-55" y="-144" on="1"/>
        <pt x="116" y="828" on="1"/>
        <pt x="338" y="828" on="1"/>
      </contour>
    </TTGlyph>
    <TTGlyph name="braceleft" xMin="53" yMin="-231" xMax="538" yMax="895">
      <contour>
        <pt x="85" y="423" on="1"/>
        <pt x="136" y="423" on="0"/>
        <pt x="183" y="453" on="0"/>
        <pt x="188" y="486" on="1"/>
        <pt x="193" y="511" on="0"/>
        <pt x="193" y="581" on="1"/>
        <pt x="193" y="657" on="0"/>
        <pt x="199" y="688" on="1"/>
        <pt x="216" y="787" on="0"/>
        <pt x="357" y="895" on="0"/>
        <pt x="462" y="895" on="1"/>
        <pt x="538" y="895" on="1"/>
        <pt x="507" y="718" on="1"/>
        <pt x="473" y="718" on="1"/>
        <pt x="414" y="718" on="0"/>
        <pt x="404" y="664" on="1"/>
        <pt x="402" y="654" on="0"/>
        <pt x="398" y="586" on="1"/>
        <pt x="394" y="507" on="0"/>
        <pt x="389" y="477" on="1"/>
        <pt x="379" y="419" on="0"/>
        <pt x="312" y="343" on="0"/>
        <pt x="256" y="333" on="1"/>
        <pt x="256" y="331" on="1"/>
        <pt x="298" y="322" on="0"/>
        <pt x="342" y="270" on="0"/>
        <pt x="342" y="232" on="1"/>
        <pt x="342" y="189" on="0"/>
        <pt x="309" y="82" on="1"/>
        <pt x="300" y="52" on="0"/>
        <pt x="286" y="-2" on="0"/>
        <pt x="286" y="-15" on="1"/>
        <pt x="286" y="-54" on="0"/>
        <pt x="337" y="-54" on="1"/>
        <pt x="371" y="-54" on="1"/>
        <pt x="340" y="-231" on="1"/>
        <pt x="264" y="-231" on="1"/>
        <pt x="173" y="-231" on="0"/>
        <pt x="69" y="-148" on="0"/>
        <pt x="69" y="-70" on="1"/>
        <pt x="69" y="-38" on="0"/>
        <pt x="90" y="41" on="0"/>
        <pt x="110" y="98" on="1"/>
        <pt x="120" y="126" on="0"/>
        <pt x="135" y="178" on="0"/>
        <pt x="135" y="191" on="1"/>
        <pt x="135" y="216" on="0"/>
        <pt x="97" y="242" on="0"/>
        <pt x="53" y="242" on="1"/>
      </contour>
    </TTGlyph>
    <TTGlyph name="braceright" xMin="-36" yMin="-231" xMax="449" yMax="895">
      <contour>
        <pt x="324" y="242" on="0"/>
        <pt x="314" y="178" on="1"/>
        <pt x="310" y="155" on="0"/>
        <pt x="310" y="92" on="1"/>
        <pt x="310" y="20" on="0"/>
        <pt x="303" y="-24" on="1"/>
        <pt x="285" y="-123" on="0"/>
        <pt x="144" y="-231" on="0"/>
        <pt x="40" y="-231" on="1"/>
        <pt x="-36" y="-231" on="1"/>
        <pt x="-5" y="-54" on="1"/>
        <pt x="29" y="-54" on="1"/>
        <pt x="60" y="-54" on="0"/>
        <pt x="92" y="-26" on="0"/>
        <pt x="97" y="0" on="1"/>
        <pt x="100" y="15" on="0"/>
        <pt x="103" y="73" on="0"/>
        <pt x="104" y="83" on="1"/>
        <pt x="106" y="152" on="0"/>
        <pt x="112" y="187" on="1"/>
        <pt x="123" y="246" on="0"/>
        <pt x="190" y="321" on="0"/>
        <pt x="246" y="331" on="1"/>
        <pt x="246" y="333" on="1"/>
        <pt x="160" y="350" on="0"/>
        <pt x="160" y="440" on="1"/>
        <pt x="160" y="458" on="0"/>
        <pt x="163" y="477" on="1"/>
        <pt x="169" y="511" on="0"/>
        <pt x="192" y="583" on="1"/>
        <pt x="211" y="643" on="0"/>
        <pt x="214" y="664" on="1"/>
        <pt x="216" y="674" on="0"/>
        <pt x="216" y="679" on="1"/>
        <pt x="216" y="718" on="0"/>
        <pt x="165" y="718" on="1"/>
        <pt x="131" y="718" on="1"/>
        <pt x="162" y="895" on="1"/>
        <pt x="238" y="895" on="1"/>
        <pt x="330" y="895" on="0"/>
        <pt x="433" y="811" on="0"/>
        <pt x="433" y="733" on="1"/>
        <pt x="433" y="709" on="0"/>
        <pt x="429" y="688" on="1"/>
        <pt x="420" y="641" on="0"/>
        <pt x="394" y="572" on="1"/>
        <pt x="380" y="530" on="0"/>
        <pt x="367" y="486" on="0"/>
        <pt x="367" y="471" on="1"/>
        <pt x="367" y="446" on="0"/>
        <pt x="404" y="423" on="0"/>
        <pt x="449" y="423" on="1"/>
        <pt x="417" y="242" on="1"/>
      </contour>
    </TTGlyph>
    <TTGlyph name="bracketleft" xMin="5" yMin="-229" xMax="585" yMax="895">
      <contour>
        <pt x="585" y="895" on="1"/>
        <pt x="554" y="717" on="1"/>
        <pt x="380" y="717" on="1"/>
        <pt x="244" y="-51" on="1"/>
        <pt x="418" y="-51" on="1"/>
        <pt x="387" y="-229" on="1"/>
        <pt x="5" y="-229" on="1"/>
        <pt x="203" y="895" on="1"/>
      </contour>
    </TTGlyph>
    <TTGlyph name="bracketright" xMin="-34" yMin="-229" xMax="546" yMax="895">
      <contour>
        <pt x="348" y="-229" on="1"/>
        <pt x="-34" y="-229" on="1"/>
        <pt x="-3" y="-51" on="1"/>
        <pt x="171" y="-51" on="1"/>
        <pt x="307" y="717" on="1"/>
        <pt x="133" y="717" on="1"/>
        <pt x="164" y="895" on="1"/>
        <pt x="546" y="895" on="1"/>
      </contour>
    </TTGlyph>
    <TTGlyph name="breve" xMin="97" yMin="600" xMax="481" yMax="820">
      <contour>
        <pt x="461" y="704" on="0"/>
        <pt x="337" y="600" on="0"/>
        <pt x="254" y="600" on="1"/>
        <pt x="183" y="600" on="0"/>
        <pt x="97" y="677" on="0"/>
        <pt x="97" y="752" on="1"/>
        <pt x="97" y="773" on="0"/>
        <pt x="102" y="803" on="1"/>
        <pt x="105" y="820" on="1"/>
        <pt x="208" y="820" on="1"/>
        <pt x="206" y="810" on="0"/>
        <pt x="206" y="804" on="1"/>
        <pt x="206" y="781" on="0"/>
        <pt x="241" y="758" on="0"/>
        <pt x="282" y="758" on="1"/>
        <pt x="329" y="758" on="0"/>
        <pt x="372" y="789" on="0"/>
        <pt x="378" y="820" on="1"/>
        <pt x="481" y="820" on="1"/>
        <pt x="478" y="803" on="1"/>
      </contour>
    </TTGlyph>
    <TTGlyph name="brokenbar" xMin="30" yMin="-144" xMax="423" yMax="828">
      <contour>
        <pt x="201" y="828" on="1"/>
        <pt x="423" y="828" on="1"/>
        <pt x="347" y="398" on="1"/>
        <pt x="125" y="398" on="1"/>
      </contour>
      <contour>
        <pt x="252" y="-144" on="1"/>
        <pt x="30" y="-144" on="1"/>
        <pt x="106" y="287" on="1"/>
        <pt x="328" y="287" on="1"/>
      </contour>
    </TTGlyph>
    <TTGlyph name="bullet" xMin="106" yMin="166" xMax="448" yMax="502">
      <contour>
        <pt x="185" y="166" on="0"/>
        <pt x="106" y="243" on="0"/>
        <pt x="106" y="302" on="1"/>
        <pt x="106" y="318" on="0"/>
        <pt x="109" y="333" on="1"/>
        <pt x="117" y="380" on="0"/>
        <pt x="176" y="457" on="0"/>
        <pt x="261" y="502" on="0"/>
        <pt x="307" y="502" on="1"/>
        <pt x="370" y="502" on="0"/>
        <pt x="448" y="425" on="0"/>
        <pt x="448" y="365" on="1"/>
        <pt x="448" y="350" on="0"/>
        <pt x="445" y="333" on="1"/>
        <pt x="437" y="287" on="0"/>
        <pt x="379" y="210" on="0"/>
        <pt x="295" y="166" on="0"/>
        <pt x="248" y="166" on="1"/>
      </contour>
    </TTGlyph>
    <TTGlyph name="c" xMin="14" yMin="-7" xMax="599" yMax="571">
      <contour>
        <pt x="36" y="370" on="0"/>
        <pt x="132" y="501" on="0"/>
        <pt x="275" y="571" on="0"/>
        <pt x="359" y="571" on="1"/>
        <pt x="469" y="571" on="0"/>
        <pt x="598" y="447" on="0"/>
        <pt x="599" y="337" on="1"/>
        <pt x="364" y="337" on="1"/>
        <pt x="357" y="381" on="0"/>
        <pt x="320" y="381" on="1"/>
        <pt x="293" y="381" on="0"/>
        <pt x="254" y="331" on="0"/>
        <pt x="245" y="282" on="1"/>
        <pt x="241" y="254" on="0"/>
        <pt x="241" y="245" on="1"/>
        <pt x="241" y="214" on="0"/>
        <pt x="265" y="183" on="0"/>
        <pt x="286" y="183" on="1"/>
        <pt x="324" y="183" on="0"/>
        <pt x="344" y="227" on="1"/>
        <pt x="579" y="227" on="1"/>
        <pt x="540" y="117" on="0"/>
        <pt x="367" y="-7" on="0"/>
        <pt x="257" y="-7" on="1"/>
        <pt x="145" y="-7" on="0"/>
        <pt x="14" y="112" on="0"/>
        <pt x="14" y="218" on="1"/>
        <pt x="14" y="249" on="0"/>
        <pt x="20" y="282" on="1"/>
      </contour>
    </TTGlyph>
    <TTGlyph name="cacute" xMin="14" yMin="-7" xMax="599" yMax="860">
      <component glyphName="c" x="0" y="0" flags="0x0"/>
      <component glyphName="acute" x="158" y="0" flags="0x0"/>
    </TTGlyph>
    <TTGlyph name="caron" xMin="80" yMin="592" xMax="436" yMax="821">
      <contour>
        <pt x="411" y="677" on="1"/>
        <pt x="231" y="592" on="1"/>
        <pt x="80" y="677" on="1"/>
        <pt x="105" y="821" on="1"/>
        <pt x="256" y="733" on="1"/>
        <pt x="436" y="821" on="1"/>
      </contour>
    </TTGlyph>
    <TTGlyph name="ccaron" xMin="14" yMin="-7" xMax="599" yMax="821">
      <component glyphName="c" x="0" y="0" flags="0x0"/>
      <component glyphName="caron" x="123" y="0" flags="0x0"/>
    </TTGlyph>
    <TTGlyph name="ccedilla" xMin="14" yMin="-278" xMax="599" yMax="571">
      <contour>
        <pt x="324" y="183" on="0"/>
        <pt x="344" y="227" on="1"/>
        <pt x="579" y="227" on="1"/>
        <pt x="546" y="134" on="0"/>
        <pt x="411" y="16" on="0"/>
        <pt x="323" y="-1" on="1"/>
        <pt x="317" y="-34" on="1"/>
        <pt x="358" y="-34" on="0"/>
        <pt x="427" y="-80" on="0"/>
        <pt x="427" y="-130" on="1"/>
        <pt x="427" y="-147" on="0"/>
        <pt x="425" y="-156" on="1"/>
        <pt x="413" y="-221" on="0"/>
        <pt x="313" y="-278" on="0"/>
        <pt x="253" y="-278" on="1"/>
        <pt x="80" y="-278" on="1"/>
        <pt x="100" y="-165" on="1"/>
        <pt x="250" y="-165" on="1"/>
        <pt x="262" y="-165" on="0"/>
        <pt x="278" y="-156" on="0"/>
        <pt x="279" y="-149" on="1"/>
        <pt x="279" y="-146" on="1"/>
        <pt x="279" y="-134" on="0"/>
        <pt x="256" y="-134" on="1"/>
        <pt x="171" y="-134" on="1"/>
        <pt x="195" y="-2" on="1"/>
        <pt x="110" y="14" on="0"/>
        <pt x="14" y="128" on="0"/>
        <pt x="14" y="218" on="1"/>
        <pt x="14" y="248" on="0"/>
        <pt x="20" y="282" on="1"/>
        <pt x="36" y="370" on="0"/>
        <pt x="132" y="501" on="0"/>
        <pt x="275" y="571" on="0"/>
        <pt x="359" y="571" on="1"/>
        <pt x="469" y="571" on="0"/>
        <pt x="598" y="447" on="0"/>
        <pt x="599" y="337" on="1"/>
        <pt x="364" y="337" on="1"/>
        <pt x="357" y="381" on="0"/>
        <pt x="320" y="381" on="1"/>
        <pt x="293" y="381" on="0"/>
        <pt x="254" y="331" on="0"/>
        <pt x="245" y="282" on="1"/>
        <pt x="241" y="254" on="0"/>
        <pt x="241" y="245" on="1"/>
        <pt x="241" y="214" on="0"/>
        <pt x="265" y="183" on="0"/>
        <pt x="286" y="183" on="1"/>
      </contour>
    </TTGlyph>
    <TTGlyph name="cdotaccent" xMin="14" yMin="-7" xMax="599" yMax="792">
      <component glyphName="c" x="0" y="0" flags="0x0"/>
      <component glyphName="dotaccent" x="202" y="0" flags="0x0"/>
    </TTGlyph>
    <TTGlyph name="cedilla" xMin="-88" yMin="-271" xMax="259" yMax="7">
      <contour>
        <pt x="190" y="-27" on="0"/>
        <pt x="259" y="-73" on="0"/>
        <pt x="259" y="-123" on="1"/>
        <pt x="259" y="-140" on="0"/>
        <pt x="257" y="-149" on="1"/>
        <pt x="245" y="-214" on="0"/>
        <pt x="145" y="-271" on="0"/>
        <pt x="85" y="-271" on="1"/>
        <pt x="-88" y="-271" on="1"/>
        <pt x="-68" y="-158" on="1"/>
        <pt x="82" y="-158" on="1"/>
        <pt x="94" y="-158" on="0"/>
        <pt x="110" y="-149" on="0"/>
        <pt x="111" y="-142" on="1"/>
        <pt x="111" y="-139" on="1"/>
        <pt x="111" y="-127" on="0"/>
        <pt x="88" y="-127" on="1"/>
        <pt x="3" y="-127" on="1"/>
        <pt x="27" y="7" on="1"/>
        <pt x="155" y="7" on="1"/>
        <pt x="149" y="-27" on="1"/>
      </contour>
    </TTGlyph>
    <TTGlyph name="cent" xMin="10" yMin="-83" xMax="564" yMax="589">
      <contour>
        <pt x="277" y="337" on="0"/>
        <pt x="234" y="293" on="0"/>
        <pt x="227" y="253" on="1"/>
        <pt x="225" y="244" on="0"/>
        <pt x="225" y="228" on="1"/>
        <pt x="225" y="170" on="0"/>
        <pt x="281" y="170" on="1"/>
        <pt x="299" y="170" on="0"/>
        <pt x="335" y="188" on="0"/>
        <pt x="342" y="205" on="1"/>
        <pt x="545" y="205" on="1"/>
        <pt x="523" y="112" on="0"/>
        <pt x="373" y="1" on="0"/>
        <pt x="278" y="-7" on="1"/>
        <pt x="265" y="-83" on="1"/>
        <pt x="203" y="-83" on="1"/>
        <pt x="216" y="-7" on="1"/>
        <pt x="119" y="1" on="0"/>
        <pt x="10" y="104" on="0"/>
        <pt x="10" y="194" on="1"/>
        <pt x="10" y="228" on="0"/>
        <pt x="15" y="254" on="1"/>
        <pt x="36" y="370" on="0"/>
        <pt x="191" y="504" on="0"/>
        <pt x="307" y="513" on="1"/>
        <pt x="321" y="589" on="1"/>
        <pt x="383" y="589" on="1"/>
        <pt x="369" y="513" on="1"/>
        <pt x="454" y="506" on="0"/>
        <pt x="564" y="409" on="0"/>
        <pt x="564" y="328" on="1"/>
        <pt x="564" y="311" on="0"/>
        <pt x="563" y="302" on="1"/>
        <pt x="360" y="302" on="1"/>
        <pt x="356" y="321" on="0"/>
        <pt x="328" y="337" on="0"/>
        <pt x="311" y="337" on="1"/>
      </contour>
    </TTGlyph>
    <TTGlyph name="circumflex" xMin="65" yMin="592" xMax="421" yMax="821">
      <contour>
        <pt x="246" y="680" on="1"/>
        <pt x="65" y="592" on="1"/>
        <pt x="90" y="736" on="1"/>
        <pt x="271" y="821" on="1"/>
        <pt x="421" y="736" on="1"/>
        <pt x="396" y="592" on="1"/>
      </contour>
    </TTGlyph>
    <TTGlyph name="colon" xMin="-2" yMin="-8" xMax="257" yMax="608">
      <component glyphName="period" x="0" y="0" flags="0x0"/>
      <component glyphName="period" x="0" y="396" flags="0x4"/>
    </TTGlyph>
    <TTGlyph name="colon.ss01" xMin="12" yMin="0" xMax="339" yMax="603">
      <contour>
        <pt x="339" y="603" on="1"/>
        <pt x="301" y="391" on="1"/>
        <pt x="81" y="391" on="1"/>
        <pt x="119" y="603" on="1"/>
      </contour>
      <contour>
        <pt x="270" y="212" on="1"/>
        <pt x="232" y="0" on="1"/>
        <pt x="12" y="0" on="1"/>
        <pt x="50" y="212" on="1"/>
      </contour>
    </TTGlyph>
    <TTGlyph name="comma" xMin="-13" yMin="-118" xMax="290" yMax="185">
      <contour>
        <pt x="290" y="185" on="1"/>
        <pt x="133" y="-118" on="1"/>
        <pt x="-13" y="-118" on="1"/>
        <pt x="70" y="185" on="1"/>
      </contour>
    </TTGlyph>
    <TTGlyph name="comma.ss01" xMin="-35" yMin="-210" xMax="188" yMax="131">
      <contour>
        <pt x="188" y="87" on="0"/>
        <pt x="188" y="31" on="1"/>
        <pt x="188" y="7" on="0"/>
        <pt x="183" y="-23" on="1"/>
        <pt x="169" y="-103" on="0"/>
        <pt x="62" y="-210" on="0"/>
        <pt x="-30" y="-210" on="1"/>
        <pt x="-16" y="-132" on="1"/>
        <pt x="12" y="-132" on="0"/>
        <pt x="43" y="-108" on="0"/>
        <pt x="50" y="-72" on="1"/>
        <pt x="52" y="-61" on="1"/>
        <pt x="-35" y="-61" on="1"/>
        <pt x="-2" y="131" on="1"/>
        <pt x="169" y="131" on="1"/>
      </contour>
    </TTGlyph>
    <TTGlyph name="copyright" xMin="36" yMin="-6" xMax="761" yMax="720">
      <contour>
        <pt x="554" y="720" on="0"/>
        <pt x="689" y="649" on="0"/>
        <pt x="761" y="520" on="0"/>
        <pt x="761" y="435" on="1"/>
        <pt x="761" y="396" on="0"/>
        <pt x="754" y="358" on="1"/>
        <pt x="736" y="253" on="0"/>
        <pt x="617" y="87" on="0"/>
        <pt x="439" y="-6" on="0"/>
        <pt x="335" y="-6" on="1"/>
        <pt x="244" y="-6" on="0"/>
        <pt x="109" y="66" on="0"/>
        <pt x="36" y="197" on="0"/>
        <pt x="36" y="283" on="1"/>
        <pt x="36" y="322" on="0"/>
        <pt x="43" y="358" on="1"/>
        <pt x="62" y="463" on="0"/>
        <pt x="181" y="628" on="0"/>
        <pt x="359" y="720" on="0"/>
        <pt x="463" y="720" on="1"/>
      </contour>
      <contour>
        <pt x="364" y="655" on="0"/>
        <pt x="222" y="582" on="0"/>
        <pt x="129" y="448" on="0"/>
        <pt x="113" y="358" on="1"/>
        <pt x="107" y="322" on="0"/>
        <pt x="107" y="290" on="1"/>
        <pt x="107" y="183" on="0"/>
        <pt x="233" y="59" on="0"/>
        <pt x="347" y="59" on="1"/>
        <pt x="434" y="59" on="0"/>
        <pt x="576" y="133" on="0"/>
        <pt x="670" y="269" on="0"/>
        <pt x="685" y="358" on="1"/>
        <pt x="691" y="394" on="0"/>
        <pt x="691" y="428" on="1"/>
        <pt x="691" y="534" on="0"/>
        <pt x="565" y="655" on="0"/>
        <pt x="452" y="655" on="1"/>
      </contour>
      <contour>
        <pt x="340" y="578" on="0"/>
        <pt x="195" y="458" on="0"/>
        <pt x="177" y="357" on="1"/>
        <pt x="173" y="334" on="0"/>
        <pt x="173" y="309" on="1"/>
        <pt x="173" y="228" on="0"/>
        <pt x="275" y="136" on="0"/>
        <pt x="364" y="136" on="1"/>
        <pt x="446" y="136" on="0"/>
        <pt x="581" y="234" on="0"/>
        <pt x="608" y="316" on="1"/>
        <pt x="424" y="316" on="1"/>
        <pt x="408" y="281" on="0"/>
        <pt x="380" y="281" on="1"/>
        <pt x="345" y="281" on="0"/>
        <pt x="345" y="328" on="1"/>
        <pt x="345" y="341" on="0"/>
        <pt x="348" y="357" on="1"/>
        <pt x="355" y="395" on="0"/>
        <pt x="385" y="433" on="0"/>
        <pt x="407" y="433" on="1"/>
        <pt x="434" y="433" on="0"/>
        <pt x="438" y="398" on="1"/>
        <pt x="622" y="398" on="1"/>
        <pt x="624" y="452" on="0"/>
        <pt x="579" y="534" on="0"/>
        <pt x="495" y="578" on="0"/>
        <pt x="442" y="578" on="1"/>
      </contour>
    </TTGlyph>
    <TTGlyph name="currency" xMin="49" yMin="138" xMax="589" yMax="622">
      <contour>
        <pt x="529" y="491" on="1"/>
        <pt x="552" y="457" on="0"/>
        <pt x="552" y="412" on="1"/>
        <pt x="552" y="397" on="0"/>
        <pt x="549" y="379" on="1"/>
        <pt x="537" y="314" on="0"/>
        <pt x="491" y="268" on="1"/>
        <pt x="532" y="219" on="1"/>
        <pt x="438" y="138" on="1"/>
        <pt x="382" y="206" on="1"/>
        <pt x="340" y="193" on="0"/>
        <pt x="288" y="193" on="1"/>
        <pt x="236" y="193" on="0"/>
        <pt x="196" y="207" on="1"/>
        <pt x="115" y="138" on="1"/>
        <pt x="49" y="219" on="1"/>
        <pt x="110" y="271" on="1"/>
        <pt x="90" y="303" on="0"/>
        <pt x="90" y="345" on="1"/>
        <pt x="90" y="361" on="0"/>
        <pt x="93" y="379" on="1"/>
        <pt x="105" y="444" on="0"/>
        <pt x="150" y="488" on="1"/>
        <pt x="106" y="541" on="1"/>
        <pt x="200" y="622" on="1"/>
        <pt x="260" y="549" on="1"/>
        <pt x="304" y="561" on="0"/>
        <pt x="353" y="561" on="1"/>
        <pt x="398" y="561" on="0"/>
        <pt x="439" y="550" on="1"/>
        <pt x="523" y="622" on="1"/>
        <pt x="589" y="541" on="1"/>
      </contour>
      <contour>
        <pt x="262" y="372" on="0"/>
        <pt x="262" y="363" on="1"/>
        <pt x="262" y="341" on="0"/>
        <pt x="289" y="320" on="0"/>
        <pt x="311" y="320" on="1"/>
        <pt x="336" y="320" on="0"/>
        <pt x="373" y="348" on="0"/>
        <pt x="379" y="377" on="1"/>
        <pt x="380" y="382" on="0"/>
        <pt x="380" y="392" on="1"/>
        <pt x="380" y="415" on="0"/>
        <pt x="353" y="436" on="0"/>
        <pt x="331" y="436" on="1"/>
        <pt x="306" y="436" on="0"/>
        <pt x="268" y="408" on="0"/>
        <pt x="263" y="377" on="1"/>
      </contour>
    </TTGlyph>
    <TTGlyph name="d" xMin="13" yMin="-7" xMax="711" yMax="740">
      <contour>
        <pt x="36" y="371" on="0"/>
        <pt x="120" y="502" on="0"/>
        <pt x="238" y="571" on="0"/>
        <pt x="304" y="571" on="1"/>
        <pt x="359" y="571" on="0"/>
        <pt x="430" y="526" on="0"/>
        <pt x="444" y="487" on="1"/>
        <pt x="489" y="740" on="1"/>
        <pt x="711" y="740" on="1"/>
        <pt x="580" y="0" on="1"/>
        <pt x="358" y="0" on="1"/>
        <pt x="372" y="77" on="1"/>
        <pt x="344" y="38" on="0"/>
        <pt x="257" y="-7" on="0"/>
        <pt x="202" y="-7" on="1"/>
        <pt x="117" y="-7" on="0"/>
        <pt x="13" y="107" on="0"/>
        <pt x="13" y="208" on="1"/>
        <pt x="13" y="246" on="0"/>
        <pt x="20" y="282" on="1"/>
      </contour>
      <contour>
        <pt x="411" y="291" on="0"/>
        <pt x="411" y="306" on="1"/>
        <pt x="411" y="340" on="0"/>
        <pt x="375" y="377" on="0"/>
        <pt x="344" y="377" on="1"/>
        <pt x="308" y="377" on="0"/>
        <pt x="253" y="327" on="0"/>
        <pt x="245" y="282" on="1"/>
        <pt x="243" y="273" on="0"/>
        <pt x="243" y="258" on="1"/>
        <pt x="243" y="224" on="0"/>
        <pt x="279" y="187" on="0"/>
        <pt x="310" y="187" on="1"/>
        <pt x="346" y="187" on="0"/>
        <pt x="401" y="237" on="0"/>
        <pt x="409" y="282" on="1"/>
      </contour>
    </TTGlyph>
    <TTGlyph name="dagger" xMin="71" yMin="-270" xMax="716" yMax="794">
      <contour>
        <pt x="686" y="398" on="1"/>
        <pt x="470" y="413" on="1"/>
        <pt x="372" y="-270" on="1"/>
        <pt x="150" y="-270" on="1"/>
        <pt x="291" y="413" on="1"/>
        <pt x="71" y="398" on="1"/>
        <pt x="101" y="564" on="1"/>
        <pt x="315" y="549" on="1"/>
        <pt x="337" y="794" on="1"/>
        <pt x="559" y="794" on="1"/>
        <pt x="494" y="549" on="1"/>
        <pt x="716" y="564" on="1"/>
      </contour>
    </TTGlyph>
    <TTGlyph name="daggerdbl" xMin="-7" yMin="-270" xMax="716" yMax="794">
      <contour>
        <pt x="470" y="413" on="1"/>
        <pt x="417" y="111" on="1"/>
        <pt x="639" y="127" on="1"/>
        <pt x="609" y="-40" on="1"/>
        <pt x="393" y="-25" on="1"/>
        <pt x="371" y="-270" on="1"/>
        <pt x="149" y="-270" on="1"/>
        <pt x="214" y="-25" on="1"/>
        <pt x="-7" y="-40" on="1"/>
        <pt x="23" y="127" on="1"/>
        <pt x="238" y="111" on="1"/>
        <pt x="291" y="413" on="1"/>
        <pt x="70" y="398" on="1"/>
        <pt x="100" y="564" on="1"/>
        <pt x="315" y="549" on="1"/>
        <pt x="336" y="794" on="1"/>
        <pt x="558" y="794" on="1"/>
        <pt x="494" y="549" on="1"/>
        <pt x="716" y="564" on="1"/>
        <pt x="686" y="398" on="1"/>
      </contour>
    </TTGlyph>
    <TTGlyph name="danda" xMin="76" yMin="0" xMax="408" yMax="740">
      <contour>
        <pt x="408" y="740" on="1"/>
        <pt x="278" y="0" on="1"/>
        <pt x="76" y="0" on="1"/>
        <pt x="206" y="740" on="1"/>
      </contour>
    </TTGlyph>
    <TTGlyph name="dcaron" xMin="13" yMin="-7" xMax="935" yMax="740">
      <contour>
        <pt x="36" y="371" on="0"/>
        <pt x="120" y="502" on="0"/>
        <pt x="238" y="571" on="0"/>
        <pt x="304" y="571" on="1"/>
        <pt x="359" y="571" on="0"/>
        <pt x="430" y="526" on="0"/>
        <pt x="444" y="487" on="1"/>
        <pt x="489" y="740" on="1"/>
        <pt x="711" y="740" on="1"/>
        <pt x="580" y="0" on="1"/>
        <pt x="358" y="0" on="1"/>
        <pt x="372" y="77" on="1"/>
        <pt x="344" y="38" on="0"/>
        <pt x="257" y="-7" on="0"/>
        <pt x="202" y="-7" on="1"/>
        <pt x="117" y="-7" on="0"/>
        <pt x="13" y="107" on="0"/>
        <pt x="13" y="208" on="1"/>
        <pt x="13" y="246" on="0"/>
        <pt x="20" y="282" on="1"/>
      </contour>
      <contour>
        <pt x="935" y="702" on="0"/>
        <pt x="935" y="668" on="1"/>
        <pt x="935" y="636" on="0"/>
        <pt x="929" y="606" on="1"/>
        <pt x="915" y="528" on="0"/>
        <pt x="814" y="429" on="0"/>
        <pt x="733" y="429" on="1"/>
        <pt x="747" y="508" on="1"/>
        <pt x="802" y="508" on="0"/>
        <pt x="815" y="582" on="1"/>
        <pt x="817" y="594" on="1"/>
        <pt x="745" y="594" on="1"/>
        <pt x="771" y="740" on="1"/>
        <pt x="927" y="740" on="1"/>
      </contour>
      <contour>
        <pt x="411" y="291" on="0"/>
        <pt x="411" y="306" on="1"/>
        <pt x="411" y="340" on="0"/>
        <pt x="375" y="377" on="0"/>
        <pt x="344" y="377" on="1"/>
        <pt x="308" y="377" on="0"/>
        <pt x="253" y="327" on="0"/>
        <pt x="245" y="282" on="1"/>
        <pt x="243" y="273" on="0"/>
        <pt x="243" y="258" on="1"/>
        <pt x="243" y="224" on="0"/>
        <pt x="279" y="187" on="0"/>
        <pt x="310" y="187" on="1"/>
        <pt x="346" y="187" on="0"/>
        <pt x="401" y="237" on="0"/>
        <pt x="409" y="282" on="1"/>
      </contour>
    </TTGlyph>
    <TTGlyph name="dcroat" xMin="13" yMin="-7" xMax="766" yMax="740">
      <contour>
        <pt x="749" y="592" on="1"/>
        <pt x="685" y="592" on="1"/>
        <pt x="580" y="0" on="1"/>
        <pt x="358" y="0" on="1"/>
        <pt x="372" y="77" on="1"/>
        <pt x="344" y="38" on="0"/>
        <pt x="257" y="-7" on="0"/>
        <pt x="202" y="-7" on="1"/>
        <pt x="117" y="-7" on="0"/>
        <pt x="13" y="107" on="0"/>
        <pt x="13" y="208" on="1"/>
        <pt x="13" y="246" on="0"/>
        <pt x="20" y="282" on="1"/>
        <pt x="36" y="371" on="0"/>
        <pt x="120" y="502" on="0"/>
        <pt x="238" y="571" on="0"/>
        <pt x="304" y="571" on="1"/>
        <pt x="359" y="571" on="0"/>
        <pt x="430" y="526" on="0"/>
        <pt x="444" y="487" on="1"/>
        <pt x="463" y="592" on="1"/>
        <pt x="404" y="592" on="1"/>
        <pt x="421" y="688" on="1"/>
        <pt x="480" y="688" on="1"/>
        <pt x="489" y="740" on="1"/>
        <pt x="711" y="740" on="1"/>
        <pt x="702" y="688" on="1"/>
        <pt x="766" y="688" on="1"/>
      </contour>
      <contour>
        <pt x="411" y="291" on="0"/>
        <pt x="411" y="306" on="1"/>
        <pt x="411" y="340" on="0"/>
        <pt x="375" y="377" on="0"/>
        <pt x="344" y="377" on="1"/>
        <pt x="308" y="377" on="0"/>
        <pt x="253" y="327" on="0"/>
        <pt x="245" y="282" on="1"/>
        <pt x="243" y="273" on="0"/>
        <pt x="243" y="258" on="1"/>
        <pt x="243" y="224" on="0"/>
        <pt x="279" y="187" on="0"/>
        <pt x="310" y="187" on="1"/>
        <pt x="346" y="187" on="0"/>
        <pt x="401" y="237" on="0"/>
        <pt x="409" y="282" on="1"/>
      </contour>
    </TTGlyph>
    <TTGlyph name="degree" xMin="64" yMin="347" xMax="520" yMax="715">
      <contour>
        <pt x="83" y="618" on="0"/>
        <pt x="222" y="715" on="0"/>
        <pt x="325" y="715" on="1"/>
        <pt x="416" y="715" on="0"/>
        <pt x="520" y="638" on="0"/>
        <pt x="520" y="569" on="1"/>
        <pt x="520" y="551" on="0"/>
        <pt x="517" y="533" on="1"/>
        <pt x="502" y="448" on="0"/>
        <pt x="365" y="347" on="0"/>
        <pt x="264" y="347" on="1"/>
        <pt x="173" y="347" on="0"/>
        <pt x="64" y="429" on="0"/>
        <pt x="64" y="500" on="1"/>
        <pt x="64" y="517" on="0"/>
        <pt x="67" y="533" on="1"/>
      </contour>
      <contour>
        <pt x="350" y="545" on="0"/>
        <pt x="350" y="550" on="1"/>
        <pt x="350" y="576" on="0"/>
        <pt x="324" y="600" on="0"/>
        <pt x="306" y="600" on="1"/>
        <pt x="283" y="600" on="0"/>
        <pt x="242" y="566" on="0"/>
        <pt x="236" y="531" on="1"/>
        <pt x="234" y="519" on="0"/>
        <pt x="234" y="515" on="1"/>
        <pt x="234" y="490" on="0"/>
        <pt x="265" y="464" on="0"/>
        <pt x="285" y="464" on="1"/>
        <pt x="306" y="464" on="0"/>
        <pt x="342" y="497" on="0"/>
        <pt x="348" y="531" on="1"/>
      </contour>
    </TTGlyph>
    <TTGlyph name="dieresis" xMin="83" yMin="620" xMax="483" yMax="792">
      <contour>
        <pt x="124" y="620" on="0"/>
        <pt x="83" y="659" on="0"/>
        <pt x="83" y="689" on="1"/>
        <pt x="83" y="732" on="0"/>
        <pt x="144" y="792" on="0"/>
        <pt x="185" y="792" on="1"/>
        <pt x="218" y="792" on="0"/>
        <pt x="258" y="753" on="0"/>
        <pt x="258" y="721" on="1"/>
        <pt x="258" y="679" on="0"/>
        <pt x="197" y="620" on="0"/>
        <pt x="155" y="620" on="1"/>
      </contour>
      <contour>
        <pt x="349" y="620" on="0"/>
        <pt x="308" y="659" on="0"/>
        <pt x="308" y="689" on="1"/>
        <pt x="308" y="732" on="0"/>
        <pt x="369" y="792" on="0"/>
        <pt x="410" y="792" on="1"/>
        <pt x="443" y="792" on="0"/>
        <pt x="483" y="753" on="0"/>
        <pt x="483" y="721" on="1"/>
        <pt x="483" y="679" on="0"/>
        <pt x="422" y="620" on="0"/>
        <pt x="380" y="620" on="1"/>
      </contour>
    </TTGlyph>
    <TTGlyph name="divide" xMin="13" yMin="-8" xMax="559" yMax="687">
      <contour>
        <pt x="265" y="467" on="0"/>
        <pt x="206" y="517" on="0"/>
        <pt x="206" y="557" on="1"/>
        <pt x="206" y="592" on="0"/>
        <pt x="245" y="652" on="0"/>
        <pt x="314" y="687" on="0"/>
        <pt x="356" y="687" on="1"/>
        <pt x="407" y="687" on="0"/>
        <pt x="465" y="636" on="0"/>
        <pt x="465" y="596" on="1"/>
        <pt x="465" y="561" on="0"/>
        <pt x="427" y="502" on="0"/>
        <pt x="359" y="467" on="0"/>
        <pt x="317" y="467" on="1"/>
      </contour>
      <contour>
        <pt x="559" y="441" on="1"/>
        <pt x="524" y="240" on="1"/>
        <pt x="13" y="240" on="1"/>
        <pt x="48" y="441" on="1"/>
      </contour>
      <contour>
        <pt x="155" y="-8" on="0"/>
        <pt x="96" y="42" on="0"/>
        <pt x="96" y="82" on="1"/>
        <pt x="96" y="117" on="0"/>
        <pt x="135" y="177" on="0"/>
        <pt x="204" y="212" on="0"/>
        <pt x="246" y="212" on="1"/>
        <pt x="297" y="212" on="0"/>
        <pt x="355" y="161" on="0"/>
        <pt x="355" y="121" on="1"/>
        <pt x="355" y="86" on="0"/>
        <pt x="317" y="27" on="0"/>
        <pt x="249" y="-8" on="0"/>
        <pt x="207" y="-8" on="1"/>
      </contour>
    </TTGlyph>
    <TTGlyph name="divide.ss01" xMin="13" yMin="0" xMax="559" yMax="681">
      <contour>
        <pt x="454" y="681" on="1"/>
        <pt x="417" y="469" on="1"/>
        <pt x="197" y="469" on="1"/>
        <pt x="234" y="681" on="1"/>
      </contour>
      <contour>
        <pt x="559" y="441" on="1"/>
        <pt x="524" y="240" on="1"/>
        <pt x="13" y="240" on="1"/>
        <pt x="48" y="441" on="1"/>
      </contour>
      <contour>
        <pt x="372" y="212" on="1"/>
        <pt x="334" y="0" on="1"/>
        <pt x="114" y="0" on="1"/>
        <pt x="152" y="212" on="1"/>
      </contour>
    </TTGlyph>
    <TTGlyph name="dollar" xMin="20" yMin="-87" xMax="664" yMax="800">
      <contour>
        <pt x="423" y="491" on="1"/>
        <pt x="426" y="528" on="0"/>
        <pt x="407" y="543" on="1"/>
        <pt x="390" y="445" on="1"/>
        <pt x="420" y="435" on="1"/>
        <pt x="483" y="415" on="0"/>
        <pt x="567" y="376" on="0"/>
        <pt x="628" y="304" on="0"/>
        <pt x="628" y="248" on="1"/>
        <pt x="628" y="237" on="0"/>
        <pt x="624" y="209" on="1"/>
        <pt x="613" y="149" on="0"/>
        <pt x="531" y="53" on="0"/>
        <pt x="397" y="-5" on="0"/>
        <pt x="310" y="-7" on="1"/>
        <pt x="296" y="-87" on="1"/>
        <pt x="234" y="-87" on="1"/>
        <pt x="248" y="-5" on="1"/>
        <pt x="143" y="5" on="0"/>
        <pt x="20" y="107" on="0"/>
        <pt x="20" y="197" on="1"/>
        <pt x="20" y="207" on="0"/>
        <pt x="22" y="227" on="1"/>
        <pt x="258" y="227" on="1"/>
        <pt x="254" y="186" on="0"/>
        <pt x="279" y="171" on="1"/>
        <pt x="297" y="269" on="1"/>
        <pt x="222" y="290" on="0"/>
        <pt x="135" y="325" on="0"/>
        <pt x="65" y="400" on="0"/>
        <pt x="65" y="463" on="1"/>
        <pt x="65" y="484" on="0"/>
        <pt x="69" y="504" on="1"/>
        <pt x="81" y="569" on="0"/>
        <pt x="169" y="664" on="0"/>
        <pt x="301" y="716" on="0"/>
        <pt x="376" y="719" on="1"/>
        <pt x="390" y="800" on="1"/>
        <pt x="452" y="800" on="1"/>
        <pt x="438" y="719" on="1"/>
        <pt x="546" y="711" on="0"/>
        <pt x="664" y="611" on="0"/>
        <pt x="664" y="522" on="1"/>
        <pt x="664" y="513" on="0"/>
        <pt x="662" y="491" on="1"/>
      </contour>
      <contour>
        <pt x="308" y="486" on="0"/>
        <pt x="332" y="470" on="1"/>
        <pt x="346" y="550" on="1"/>
        <pt x="328" y="547" on="0"/>
        <pt x="308" y="525" on="0"/>
        <pt x="308" y="507" on="1"/>
      </contour>
      <contour>
        <pt x="387" y="231" on="0"/>
        <pt x="355" y="248" on="1"/>
        <pt x="340" y="162" on="1"/>
        <pt x="361" y="165" on="0"/>
        <pt x="387" y="191" on="0"/>
        <pt x="387" y="211" on="1"/>
      </contour>
    </TTGlyph>
    <TTGlyph name="dotaccent" xMin="83" yMin="620" xMax="258" yMax="792">
      <contour>
        <pt x="124" y="620" on="0"/>
        <pt x="83" y="659" on="0"/>
        <pt x="83" y="689" on="1"/>
        <pt x="83" y="732" on="0"/>
        <pt x="144" y="792" on="0"/>
        <pt x="185" y="792" on="1"/>
        <pt x="218" y="792" on="0"/>
        <pt x="258" y="753" on="0"/>
        <pt x="258" y="721" on="1"/>
        <pt x="258" y="679" on="0"/>
        <pt x="197" y="620" on="0"/>
        <pt x="155" y="620" on="1"/>
      </contour>
    </TTGlyph>
    <TTGlyph name="dotlessi" xMin="25" yMin="0" xMax="347" yMax="564">
      <contour>
        <pt x="347" y="564" on="1"/>
        <pt x="247" y="0" on="1"/>
        <pt x="25" y="0" on="1"/>
        <pt x="125" y="564" on="1"/>
      </contour>
    </TTGlyph>
    <TTGlyph name="dottedcircle" xMin="50" yMin="-9" xMax="601" yMax="540">
      <contour>
        <pt x="344" y="479" on="0"/>
        <pt x="320" y="456" on="0"/>
        <pt x="301" y="456" on="1"/>
        <pt x="282" y="456" on="0"/>
        <pt x="258" y="479" on="0"/>
        <pt x="258" y="498" on="1"/>
        <pt x="258" y="517" on="0"/>
        <pt x="282" y="540" on="0"/>
        <pt x="301" y="540" on="1"/>
        <pt x="320" y="540" on="0"/>
        <pt x="344" y="517" on="0"/>
        <pt x="344" y="498" on="1"/>
      </contour>
      <contour>
        <pt x="465" y="464" on="0"/>
        <pt x="441" y="441" on="0"/>
        <pt x="422" y="441" on="1"/>
        <pt x="403" y="441" on="0"/>
        <pt x="379" y="464" on="0"/>
        <pt x="379" y="483" on="1"/>
        <pt x="379" y="502" on="0"/>
        <pt x="403" y="525" on="0"/>
        <pt x="422" y="525" on="1"/>
        <pt x="441" y="525" on="0"/>
        <pt x="465" y="502" on="0"/>
        <pt x="465" y="483" on="1"/>
      </contour>
      <contour>
        <pt x="227" y="437" on="0"/>
        <pt x="203" y="414" on="0"/>
        <pt x="184" y="414" on="1"/>
        <pt x="165" y="414" on="0"/>
        <pt x="141" y="437" on="0"/>
        <pt x="141" y="456" on="1"/>
        <pt x="141" y="475" on="0"/>
        <pt x="165" y="498" on="0"/>
        <pt x="184" y="498" on="1"/>
        <pt x="203" y="498" on="0"/>
        <pt x="227" y="475" on="0"/>
        <pt x="227" y="456" on="1"/>
      </contour>
      <contour>
        <pt x="557" y="390" on="0"/>
        <pt x="533" y="367" on="0"/>
        <pt x="514" y="367" on="1"/>
        <pt x="495" y="367" on="0"/>
        <pt x="471" y="390" on="0"/>
        <pt x="471" y="409" on="1"/>
        <pt x="471" y="428" on="0"/>
        <pt x="495" y="451" on="0"/>
        <pt x="514" y="451" on="1"/>
        <pt x="533" y="451" on="0"/>
        <pt x="557" y="428" on="0"/>
        <pt x="557" y="409" on="1"/>
      </contour>
      <contour>
        <pt x="151" y="338" on="0"/>
        <pt x="127" y="315" on="0"/>
        <pt x="108" y="315" on="1"/>
        <pt x="89" y="315" on="0"/>
        <pt x="65" y="338" on="0"/>
        <pt x="65" y="357" on="1"/>
        <pt x="65" y="376" on="0"/>
        <pt x="89" y="399" on="0"/>
        <pt x="108" y="399" on="1"/>
        <pt x="127" y="399" on="0"/>
        <pt x="151" y="376" on="0"/>
        <pt x="151" y="357" on="1"/>
      </contour>
      <contour>
        <pt x="601" y="276" on="0"/>
        <pt x="577" y="253" on="0"/>
        <pt x="558" y="253" on="1"/>
        <pt x="539" y="253" on="0"/>
        <pt x="515" y="276" on="0"/>
        <pt x="515" y="295" on="1"/>
        <pt x="515" y="314" on="0"/>
        <pt x="539" y="337" on="0"/>
        <pt x="558" y="337" on="1"/>
        <pt x="577" y="337" on="0"/>
        <pt x="601" y="314" on="0"/>
        <pt x="601" y="295" on="1"/>
      </contour>
      <contour>
        <pt x="136" y="217" on="0"/>
        <pt x="112" y="194" on="0"/>
        <pt x="93" y="194" on="1"/>
        <pt x="74" y="194" on="0"/>
        <pt x="50" y="217" on="0"/>
        <pt x="50" y="236" on="1"/>
        <pt x="50" y="255" on="0"/>
        <pt x="74" y="278" on="0"/>
        <pt x="93" y="278" on="1"/>
        <pt x="112" y="278" on="0"/>
        <pt x="136" y="255" on="0"/>
        <pt x="136" y="236" on="1"/>
      </contour>
      <contour>
        <pt x="591" y="156" on="0"/>
        <pt x="567" y="133" on="0"/>
        <pt x="548" y="133" on="1"/>
        <pt x="529" y="133" on="0"/>
        <pt x="505" y="156" on="0"/>
        <pt x="505" y="175" on="1"/>
        <pt x="505" y="194" on="0"/>
        <pt x="529" y="217" on="0"/>
        <pt x="548" y="217" on="1"/>
        <pt x="567" y="217" on="0"/>
        <pt x="591" y="194" on="0"/>
        <pt x="591" y="175" on="1"/>
      </contour>
      <contour>
        <pt x="181" y="104" on="0"/>
        <pt x="157" y="81" on="0"/>
        <pt x="138" y="81" on="1"/>
        <pt x="119" y="81" on="0"/>
        <pt x="95" y="104" on="0"/>
        <pt x="95" y="123" on="1"/>
        <pt x="95" y="142" on="0"/>
        <pt x="119" y="165" on="0"/>
        <pt x="138" y="165" on="1"/>
        <pt x="157" y="165" on="0"/>
        <pt x="181" y="142" on="0"/>
        <pt x="181" y="123" on="1"/>
      </contour>
      <contour>
        <pt x="518" y="60" on="0"/>
        <pt x="494" y="37" on="0"/>
        <pt x="475" y="37" on="1"/>
        <pt x="456" y="37" on="0"/>
        <pt x="432" y="60" on="0"/>
        <pt x="432" y="79" on="1"/>
        <pt x="432" y="98" on="0"/>
        <pt x="456" y="121" on="0"/>
        <pt x="475" y="121" on="1"/>
        <pt x="494" y="121" on="0"/>
        <pt x="518" y="98" on="0"/>
        <pt x="518" y="79" on="1"/>
      </contour>
      <contour>
        <pt x="279" y="28" on="0"/>
        <pt x="255" y="5" on="0"/>
        <pt x="236" y="5" on="1"/>
        <pt x="217" y="5" on="0"/>
        <pt x="193" y="28" on="0"/>
        <pt x="193" y="47" on="1"/>
        <pt x="193" y="66" on="0"/>
        <pt x="217" y="89" on="0"/>
        <pt x="236" y="89" on="1"/>
        <pt x="255" y="89" on="0"/>
        <pt x="279" y="66" on="0"/>
        <pt x="279" y="47" on="1"/>
      </contour>
      <contour>
        <pt x="403" y="14" on="0"/>
        <pt x="379" y="-9" on="0"/>
        <pt x="360" y="-9" on="1"/>
        <pt x="341" y="-9" on="0"/>
        <pt x="317" y="14" on="0"/>
        <pt x="317" y="33" on="1"/>
        <pt x="317" y="52" on="0"/>
        <pt x="341" y="75" on="0"/>
        <pt x="360" y="75" on="1"/>
        <pt x="379" y="75" on="0"/>
        <pt x="403" y="52" on="0"/>
        <pt x="403" y="33" on="1"/>
      </contour>
    </TTGlyph>
    <TTGlyph name="doubledanda" xMin="76" yMin="0" xMax="720" yMax="740">
      <contour>
        <pt x="408" y="740" on="1"/>
        <pt x="278" y="0" on="1"/>
        <pt x="76" y="0" on="1"/>
        <pt x="206" y="740" on="1"/>
      </contour>
      <contour>
        <pt x="720" y="740" on="1"/>
        <pt x="590" y="0" on="1"/>
        <pt x="387" y="0" on="1"/>
        <pt x="517" y="740" on="1"/>
      </contour>
    </TTGlyph>
    <TTGlyph name="dvA" xMin="30" yMin="0" xMax="921" yMax="749">
      <contour>
        <pt x="921" y="740" on="1"/>
        <pt x="892" y="571" on="1"/>
        <pt x="815" y="571" on="1"/>
        <pt x="714" y="0" on="1"/>
        <pt x="511" y="0" on="1"/>
        <pt x="550" y="222" on="1"/>
        <pt x="476" y="222" on="1"/>
        <pt x="451" y="148" on="0"/>
        <pt x="325" y="63" on="0"/>
        <pt x="240" y="63" on="1"/>
        <pt x="142" y="63" on="0"/>
        <pt x="30" y="157" on="0"/>
        <pt x="30" y="237" on="1"/>
        <pt x="30" y="259" on="0"/>
        <pt x="34" y="279" on="1"/>
        <pt x="224" y="279" on="1"/>
        <pt x="223" y="276" on="0"/>
        <pt x="223" y="270" on="1"/>
        <pt x="223" y="256" on="0"/>
        <pt x="241" y="237" on="0"/>
        <pt x="258" y="237" on="1"/>
        <pt x="279" y="237" on="0"/>
        <pt x="306" y="267" on="0"/>
        <pt x="306" y="289" on="1"/>
        <pt x="306" y="308" on="0"/>
        <pt x="278" y="330" on="0"/>
        <pt x="251" y="330" on="1"/>
        <pt x="202" y="330" on="1"/>
        <pt x="231" y="493" on="1"/>
        <pt x="280" y="493" on="1"/>
        <pt x="308" y="493" on="0"/>
        <pt x="347" y="520" on="0"/>
        <pt x="347" y="546" on="1"/>
        <pt x="347" y="560" on="0"/>
        <pt x="331" y="577" on="0"/>
        <pt x="317" y="577" on="1"/>
        <pt x="300" y="577" on="0"/>
        <pt x="276" y="555" on="0"/>
        <pt x="273" y="539" on="1"/>
        <pt x="86" y="539" on="1"/>
        <pt x="97" y="600" on="0"/>
        <pt x="168" y="696" on="0"/>
        <pt x="279" y="749" on="0"/>
        <pt x="347" y="749" on="1"/>
        <pt x="435" y="749" on="0"/>
        <pt x="533" y="670" on="0"/>
        <pt x="533" y="601" on="1"/>
        <pt x="533" y="584" on="0"/>
        <pt x="530" y="564" on="1"/>
        <pt x="521" y="512" on="0"/>
        <pt x="458" y="437" on="0"/>
        <pt x="410" y="418" on="1"/>
        <pt x="409" y="414" on="1"/>
        <pt x="435" y="405" on="0"/>
        <pt x="453" y="389" on="1"/>
        <pt x="580" y="389" on="1"/>
        <pt x="641" y="740" on="1"/>
      </contour>
    </TTGlyph>
    <TTGlyph name="dvAA" xMin="30" yMin="0" xMax="1255" yMax="749">
      <contour>
        <pt x="1225" y="571" on="1"/>
        <pt x="1149" y="571" on="1"/>
        <pt x="1049" y="0" on="1"/>
        <pt x="845" y="0" on="1"/>
        <pt x="945" y="571" on="1"/>
        <pt x="815" y="571" on="1"/>
        <pt x="714" y="0" on="1"/>
        <pt x="511" y="0" on="1"/>
        <pt x="550" y="222" on="1"/>
        <pt x="476" y="222" on="1"/>
        <pt x="451" y="148" on="0"/>
        <pt x="325" y="63" on="0"/>
        <pt x="240" y="63" on="1"/>
        <pt x="142" y="63" on="0"/>
        <pt x="30" y="157" on="0"/>
        <pt x="30" y="237" on="1"/>
        <pt x="30" y="259" on="0"/>
        <pt x="34" y="279" on="1"/>
        <pt x="224" y="279" on="1"/>
        <pt x="223" y="276" on="0"/>
        <pt x="223" y="270" on="1"/>
        <pt x="223" y="256" on="0"/>
        <pt x="241" y="237" on="0"/>
        <pt x="258" y="237" on="1"/>
        <pt x="279" y="237" on="0"/>
        <pt x="306" y="267" on="0"/>
        <pt x="306" y="289" on="1"/>
        <pt x="306" y="308" on="0"/>
        <pt x="278" y="330" on="0"/>
        <pt x="251" y="330" on="1"/>
        <pt x="202" y="330" on="1"/>
        <pt x="231" y="493" on="1"/>
        <pt x="280" y="493" on="1"/>
        <pt x="308" y="493" on="0"/>
        <pt x="347" y="520" on="0"/>
        <pt x="347" y="546" on="1"/>
        <pt x="347" y="560" on="0"/>
        <pt x="331" y="577" on="0"/>
        <pt x="317" y="577" on="1"/>
        <pt x="300" y="577" on="0"/>
        <pt x="276" y="555" on="0"/>
        <pt x="273" y="539" on="1"/>
        <pt x="86" y="539" on="1"/>
        <pt x="97" y="600" on="0"/>
        <pt x="168" y="696" on="0"/>
        <pt x="279" y="749" on="0"/>
        <pt x="347" y="749" on="1"/>
        <pt x="435" y="749" on="0"/>
        <pt x="533" y="670" on="0"/>
        <pt x="533" y="601" on="1"/>
        <pt x="533" y="584" on="0"/>
        <pt x="530" y="564" on="1"/>
        <pt x="521" y="512" on="0"/>
        <pt x="458" y="437" on="0"/>
        <pt x="410" y="418" on="1"/>
        <pt x="409" y="414" on="1"/>
        <pt x="435" y="405" on="0"/>
        <pt x="453" y="389" on="1"/>
        <pt x="580" y="389" on="1"/>
        <pt x="641" y="740" on="1"/>
        <pt x="1255" y="740" on="1"/>
      </contour>
    </TTGlyph>
    <TTGlyph name="dvAI" xMin="24" yMin="19" xMax="729" yMax="1012">
      <contour>
        <pt x="699" y="571" on="1"/>
        <pt x="628" y="571" on="1"/>
        <pt x="618" y="515" on="1"/>
        <pt x="599" y="408" on="0"/>
        <pt x="489" y="293" on="0"/>
        <pt x="387" y="293" on="1"/>
        <pt x="361" y="293" on="0"/>
        <pt x="324" y="298" on="1"/>
        <pt x="356" y="480" on="1"/>
        <pt x="368" y="478" on="0"/>
        <pt x="373" y="478" on="1"/>
        <pt x="393" y="478" on="0"/>
        <pt x="418" y="500" on="0"/>
        <pt x="421" y="520" on="1"/>
        <pt x="430" y="571" on="1"/>
        <pt x="308" y="571" on="1"/>
        <pt x="253" y="258" on="1"/>
        <pt x="251" y="246" on="0"/>
        <pt x="251" y="241" on="1"/>
        <pt x="251" y="216" on="0"/>
        <pt x="277" y="192" on="0"/>
        <pt x="297" y="192" on="1"/>
        <pt x="320" y="192" on="0"/>
        <pt x="355" y="219" on="0"/>
        <pt x="359" y="243" on="1"/>
        <pt x="558" y="243" on="1"/>
        <pt x="540" y="136" on="0"/>
        <pt x="393" y="19" on="0"/>
        <pt x="282" y="19" on="1"/>
        <pt x="170" y="19" on="0"/>
        <pt x="47" y="126" on="0"/>
        <pt x="47" y="217" on="1"/>
        <pt x="47" y="243" on="0"/>
        <pt x="51" y="266" on="1"/>
        <pt x="104" y="571" on="1"/>
        <pt x="24" y="571" on="1"/>
        <pt x="54" y="740" on="1"/>
        <pt x="456" y="740" on="1"/>
        <pt x="431" y="790" on="0"/>
        <pt x="400" y="832" on="0"/>
        <pt x="356" y="849" on="0"/>
        <pt x="314" y="849" on="1"/>
        <pt x="255" y="849" on="1"/>
        <pt x="284" y="1012" on="1"/>
        <pt x="340" y="1012" on="1"/>
        <pt x="430" y="1011" on="0"/>
        <pt x="528" y="973" on="0"/>
        <pt x="602" y="861" on="0"/>
        <pt x="646" y="740" on="1"/>
        <pt x="729" y="740" on="1"/>
      </contour>
    </TTGlyph>
    <TTGlyph name="dvAU" xMin="30" yMin="0" xMax="1255" yMax="1091">
      <contour>
        <pt x="1255" y="740" on="1"/>
        <pt x="1225" y="571" on="1"/>
        <pt x="1149" y="571" on="1"/>
        <pt x="1049" y="0" on="1"/>
        <pt x="845" y="0" on="1"/>
        <pt x="945" y="571" on="1"/>
        <pt x="815" y="571" on="1"/>
        <pt x="714" y="0" on="1"/>
        <pt x="511" y="0" on="1"/>
        <pt x="550" y="222" on="1"/>
        <pt x="476" y="222" on="1"/>
        <pt x="451" y="148" on="0"/>
        <pt x="325" y="63" on="0"/>
        <pt x="240" y="63" on="1"/>
        <pt x="142" y="63" on="0"/>
        <pt x="30" y="157" on="0"/>
        <pt x="30" y="237" on="1"/>
        <pt x="30" y="259" on="0"/>
        <pt x="34" y="279" on="1"/>
        <pt x="224" y="279" on="1"/>
        <pt x="223" y="276" on="0"/>
        <pt x="223" y="270" on="1"/>
        <pt x="223" y="256" on="0"/>
        <pt x="241" y="237" on="0"/>
        <pt x="258" y="237" on="1"/>
        <pt x="279" y="237" on="0"/>
        <pt x="306" y="267" on="0"/>
        <pt x="306" y="289" on="1"/>
        <pt x="306" y="308" on="0"/>
        <pt x="278" y="330" on="0"/>
        <pt x="251" y="330" on="1"/>
        <pt x="202" y="330" on="1"/>
        <pt x="231" y="493" on="1"/>
        <pt x="280" y="493" on="1"/>
        <pt x="308" y="493" on="0"/>
        <pt x="347" y="520" on="0"/>
        <pt x="347" y="546" on="1"/>
        <pt x="347" y="560" on="0"/>
        <pt x="331" y="577" on="0"/>
        <pt x="317" y="577" on="1"/>
        <pt x="300" y="577" on="0"/>
        <pt x="276" y="555" on="0"/>
        <pt x="273" y="539" on="1"/>
        <pt x="86" y="539" on="1"/>
        <pt x="97" y="600" on="0"/>
        <pt x="168" y="696" on="0"/>
        <pt x="279" y="749" on="0"/>
        <pt x="347" y="749" on="1"/>
        <pt x="435" y="749" on="0"/>
        <pt x="533" y="670" on="0"/>
        <pt x="533" y="601" on="1"/>
        <pt x="533" y="584" on="0"/>
        <pt x="530" y="564" on="1"/>
        <pt x="521" y="512" on="0"/>
        <pt x="458" y="437" on="0"/>
        <pt x="410" y="418" on="1"/>
        <pt x="409" y="414" on="1"/>
        <pt x="435" y="405" on="0"/>
        <pt x="453" y="389" on="1"/>
        <pt x="580" y="389" on="1"/>
        <pt x="641" y="740" on="1"/>
        <pt x="986" y="740" on="1"/>
        <pt x="954" y="758" on="1"/>
        <pt x="923" y="776" on="0"/>
        <pt x="895" y="788" on="0"/>
        <pt x="858" y="791" on="0"/>
        <pt x="807" y="791" on="1"/>
        <pt x="746" y="791" on="1"/>
        <pt x="768" y="916" on="1"/>
        <pt x="824" y="916" on="1"/>
        <pt x="875" y="916" on="0"/>
        <pt x="922" y="912" on="0"/>
        <pt x="961" y="896" on="0"/>
        <pt x="984" y="877" on="1"/>
        <pt x="964" y="919" on="0"/>
        <pt x="921" y="956" on="0"/>
        <pt x="879" y="965" on="0"/>
        <pt x="842" y="965" on="1"/>
        <pt x="777" y="965" on="1"/>
        <pt x="799" y="1091" on="1"/>
        <pt x="859" y="1091" on="1"/>
        <pt x="950" y="1091" on="0"/>
        <pt x="1033" y="1053" on="0"/>
        <pt x="1103" y="917" on="0"/>
        <pt x="1164" y="740" on="1"/>
      </contour>
    </TTGlyph>
    <TTGlyph name="dvAbbreviationsign" xMin="54" yMin="157" xMax="411" yMax="500">
      <contour>
        <pt x="332" y="500" on="0"/>
        <pt x="411" y="425" on="0"/>
        <pt x="411" y="363" on="1"/>
        <pt x="411" y="346" on="0"/>
        <pt x="408" y="328" on="1"/>
        <pt x="394" y="253" on="0"/>
        <pt x="281" y="157" on="0"/>
        <pt x="204" y="157" on="1"/>
        <pt x="135" y="157" on="0"/>
        <pt x="54" y="232" on="0"/>
        <pt x="54" y="294" on="1"/>
        <pt x="54" y="310" on="0"/>
        <pt x="57" y="328" on="1"/>
        <pt x="71" y="404" on="0"/>
        <pt x="186" y="500" on="0"/>
        <pt x="264" y="500" on="1"/>
      </contour>
      <contour>
        <pt x="216" y="381" on="0"/>
        <pt x="177" y="345" on="0"/>
        <pt x="177" y="318" on="1"/>
        <pt x="177" y="299" on="0"/>
        <pt x="204" y="276" on="0"/>
        <pt x="225" y="276" on="1"/>
        <pt x="248" y="276" on="0"/>
        <pt x="282" y="305" on="0"/>
        <pt x="286" y="328" on="1"/>
        <pt x="287" y="331" on="0"/>
        <pt x="287" y="338" on="1"/>
        <pt x="287" y="358" on="0"/>
        <pt x="263" y="381" on="0"/>
        <pt x="243" y="381" on="1"/>
      </contour>
    </TTGlyph>
    <TTGlyph name="dvAcandra" xMin="30" yMin="0" xMax="1066" yMax="1047">
      <component glyphName="dvA" x="0" y="0" flags="0x0"/>
      <component glyphName="dvmEcandra" x="854" y="7" flags="0x4"/>
    </TTGlyph>
    <TTGlyph name="dvAnusvara" xMin="-192" yMin="799" xMax="40" yMax="1026">
      <contour>
        <pt x="40" y="898" on="0"/>
        <pt x="1" y="836" on="0"/>
        <pt x="-62" y="799" on="0"/>
        <pt x="-97" y="799" on="1"/>
        <pt x="-139" y="799" on="0"/>
        <pt x="-192" y="852" on="0"/>
        <pt x="-192" y="892" on="1"/>
        <pt x="-192" y="928" on="0"/>
        <pt x="-154" y="989" on="0"/>
        <pt x="-91" y="1026" on="0"/>
        <pt x="-57" y="1026" on="1"/>
        <pt x="-14" y="1026" on="0"/>
        <pt x="40" y="973" on="0"/>
        <pt x="40" y="932" on="1"/>
      </contour>
    </TTGlyph>
    <TTGlyph name="dvAnusvara.amI" xMin="24" yMin="799" xMax="256" yMax="1026">
      <contour>
        <pt x="256" y="898" on="0"/>
        <pt x="217" y="836" on="0"/>
        <pt x="154" y="799" on="0"/>
        <pt x="119" y="799" on="1"/>
        <pt x="77" y="799" on="0"/>
        <pt x="24" y="852" on="0"/>
        <pt x="24" y="892" on="1"/>
        <pt x="24" y="928" on="0"/>
        <pt x="62" y="989" on="0"/>
        <pt x="125" y="1026" on="0"/>
        <pt x="159" y="1026" on="1"/>
        <pt x="202" y="1026" on="0"/>
        <pt x="256" y="973" on="0"/>
        <pt x="256" y="932" on="1"/>
      </contour>
    </TTGlyph>
    <TTGlyph name="dvAvagraha" xMin="-11" yMin="37" xMax="590" yMax="672">
      <contour>
        <pt x="-11" y="37" on="1"/>
        <pt x="19" y="207" on="1"/>
        <pt x="256" y="207" on="1"/>
        <pt x="294" y="207" on="0"/>
        <pt x="294" y="234" on="1"/>
        <pt x="294" y="247" on="0"/>
        <pt x="270" y="274" on="0"/>
        <pt x="244" y="295" on="1"/>
        <pt x="211" y="323" on="0"/>
        <pt x="168" y="368" on="0"/>
        <pt x="136" y="434" on="0"/>
        <pt x="136" y="476" on="1"/>
        <pt x="136" y="494" on="0"/>
        <pt x="139" y="515" on="1"/>
        <pt x="152" y="590" on="0"/>
        <pt x="265" y="672" on="0"/>
        <pt x="347" y="672" on="1"/>
        <pt x="590" y="672" on="1"/>
        <pt x="560" y="501" on="1"/>
        <pt x="369" y="501" on="1"/>
        <pt x="344" y="501" on="0"/>
        <pt x="342" y="483" on="1"/>
        <pt x="340" y="470" on="0"/>
        <pt x="363" y="444" on="0"/>
        <pt x="390" y="421" on="1"/>
        <pt x="424" y="394" on="0"/>
        <pt x="468" y="349" on="0"/>
        <pt x="501" y="281" on="0"/>
        <pt x="501" y="238" on="1"/>
        <pt x="501" y="227" on="0"/>
        <pt x="497" y="199" on="1"/>
        <pt x="483" y="122" on="0"/>
        <pt x="362" y="37" on="0"/>
        <pt x="280" y="37" on="1"/>
      </contour>
    </TTGlyph>
    <TTGlyph name="dvB" xMin="24" yMin="38" xMax="657" yMax="740">
      <contour>
        <pt x="657" y="740" on="1"/>
        <pt x="627" y="571" on="1"/>
        <pt x="24" y="571" on="1"/>
        <pt x="54" y="740" on="1"/>
      </contour>
      <contour>
        <pt x="411" y="526" on="0"/>
        <pt x="520" y="473" on="0"/>
        <pt x="575" y="381" on="0"/>
        <pt x="575" y="324" on="1"/>
        <pt x="575" y="306" on="0"/>
        <pt x="572" y="288" on="1"/>
        <pt x="562" y="217" on="0"/>
        <pt x="485" y="104" on="0"/>
        <pt x="353" y="38" on="0"/>
        <pt x="264" y="38" on="1"/>
        <pt x="189" y="38" on="0"/>
        <pt x="81" y="94" on="0"/>
        <pt x="24" y="190" on="0"/>
        <pt x="24" y="251" on="1"/>
        <pt x="24" y="270" on="0"/>
        <pt x="27" y="288" on="1"/>
        <pt x="36" y="354" on="0"/>
        <pt x="115" y="462" on="0"/>
        <pt x="247" y="526" on="0"/>
        <pt x="334" y="526" on="1"/>
      </contour>
      <contour>
        <pt x="416" y="296" on="0"/>
        <pt x="416" y="303" on="1"/>
        <pt x="416" y="341" on="0"/>
        <pt x="366" y="389" on="0"/>
        <pt x="324" y="389" on="1"/>
        <pt x="289" y="389" on="0"/>
        <pt x="260" y="372" on="1"/>
        <pt x="407" y="257" on="1"/>
        <pt x="411" y="266" on="0"/>
        <pt x="414" y="282" on="1"/>
      </contour>
      <contour>
        <pt x="192" y="268" on="0"/>
        <pt x="192" y="263" on="1"/>
        <pt x="192" y="223" on="0"/>
        <pt x="245" y="176" on="0"/>
        <pt x="286" y="176" on="1"/>
        <pt x="319" y="176" on="0"/>
        <pt x="348" y="192" on="1"/>
        <pt x="201" y="305" on="1"/>
        <pt x="195" y="291" on="0"/>
        <pt x="194" y="282" on="1"/>
      </contour>
    </TTGlyph>
    <TTGlyph name="dvBA" xMin="24" yMin="0" xMax="763" yMax="740">
      <contour>
        <pt x="763" y="740" on="1"/>
        <pt x="733" y="571" on="1"/>
        <pt x="657" y="571" on="1"/>
        <pt x="557" y="0" on="1"/>
        <pt x="361" y="0" on="1"/>
        <pt x="376" y="85" on="1"/>
        <pt x="349" y="62" on="0"/>
        <pt x="272" y="39" on="0"/>
        <pt x="228" y="39" on="1"/>
        <pt x="167" y="39" on="0"/>
        <pt x="75" y="92" on="0"/>
        <pt x="26" y="187" on="0"/>
        <pt x="26" y="247" on="1"/>
        <pt x="26" y="274" on="0"/>
        <pt x="30" y="298" on="1"/>
        <pt x="48" y="401" on="0"/>
        <pt x="202" y="524" on="0"/>
        <pt x="313" y="524" on="1"/>
        <pt x="396" y="524" on="0"/>
        <pt x="447" y="489" on="1"/>
        <pt x="461" y="571" on="1"/>
        <pt x="24" y="571" on="1"/>
        <pt x="54" y="740" on="1"/>
      </contour>
      <contour>
        <pt x="300" y="395" on="0"/>
        <pt x="271" y="378" on="1"/>
        <pt x="418" y="265" on="1"/>
        <pt x="424" y="284" on="0"/>
        <pt x="424" y="288" on="1"/>
        <pt x="426" y="302" on="0"/>
        <pt x="426" y="308" on="1"/>
        <pt x="426" y="347" on="0"/>
        <pt x="376" y="395" on="0"/>
        <pt x="334" y="395" on="1"/>
      </contour>
      <contour>
        <pt x="203" y="274" on="0"/>
        <pt x="203" y="267" on="1"/>
        <pt x="203" y="228" on="0"/>
        <pt x="256" y="182" on="0"/>
        <pt x="297" y="182" on="1"/>
        <pt x="330" y="182" on="0"/>
        <pt x="359" y="198" on="1"/>
        <pt x="212" y="312" on="1"/>
        <pt x="206" y="296" on="0"/>
        <pt x="205" y="288" on="1"/>
      </contour>
    </TTGlyph>
    <TTGlyph name="dvBH" xMin="17" yMin="36" xMax="744" yMax="749">
      <contour>
        <pt x="715" y="305" on="1"/>
        <pt x="509" y="305" on="1"/>
        <pt x="504" y="277" on="1"/>
        <pt x="484" y="165" on="0"/>
        <pt x="340" y="36" on="0"/>
        <pt x="224" y="36" on="1"/>
        <pt x="128" y="36" on="0"/>
        <pt x="17" y="130" on="0"/>
        <pt x="17" y="211" on="1"/>
        <pt x="17" y="235" on="0"/>
        <pt x="21" y="255" on="1"/>
        <pt x="40" y="362" on="0"/>
        <pt x="198" y="471" on="0"/>
        <pt x="305" y="471" on="1"/>
        <pt x="348" y="471" on="1"/>
        <pt x="359" y="534" on="1"/>
        <pt x="360" y="539" on="0"/>
        <pt x="360" y="549" on="1"/>
        <pt x="360" y="576" on="0"/>
        <pt x="336" y="576" on="1"/>
        <pt x="321" y="576" on="0"/>
        <pt x="301" y="554" on="0"/>
        <pt x="298" y="537" on="1"/>
        <pt x="295" y="522" on="0"/>
        <pt x="296" y="509" on="1"/>
        <pt x="92" y="509" on="1"/>
        <pt x="92" y="518" on="1"/>
        <pt x="92" y="527" on="0"/>
        <pt x="94" y="545" on="1"/>
        <pt x="110" y="635" on="0"/>
        <pt x="246" y="749" on="0"/>
        <pt x="358" y="749" on="1"/>
        <pt x="459" y="749" on="0"/>
        <pt x="549" y="653" on="0"/>
        <pt x="549" y="570" on="1"/>
        <pt x="549" y="532" on="0"/>
        <pt x="542" y="496" on="1"/>
        <pt x="538" y="471" on="1"/>
        <pt x="744" y="471" on="1"/>
      </contour>
      <contour>
        <pt x="319" y="305" on="1"/>
        <pt x="282" y="305" on="1"/>
        <pt x="250" y="305" on="0"/>
        <pt x="209" y="274" on="0"/>
        <pt x="209" y="245" on="1"/>
        <pt x="209" y="227" on="0"/>
        <pt x="232" y="208" on="0"/>
        <pt x="251" y="208" on="1"/>
        <pt x="277" y="208" on="0"/>
        <pt x="307" y="240" on="0"/>
        <pt x="312" y="266" on="1"/>
      </contour>
    </TTGlyph>
    <TTGlyph name="dvBHA" xMin="17" yMin="0" xMax="965" yMax="749">
      <contour>
        <pt x="965" y="740" on="1"/>
        <pt x="936" y="571" on="1"/>
        <pt x="858" y="571" on="1"/>
        <pt x="757" y="0" on="1"/>
        <pt x="553" y="0" on="1"/>
        <pt x="607" y="305" on="1"/>
        <pt x="509" y="305" on="1"/>
        <pt x="504" y="277" on="1"/>
        <pt x="484" y="165" on="0"/>
        <pt x="340" y="36" on="0"/>
        <pt x="224" y="36" on="1"/>
        <pt x="128" y="36" on="0"/>
        <pt x="17" y="130" on="0"/>
        <pt x="17" y="211" on="1"/>
        <pt x="17" y="235" on="0"/>
        <pt x="21" y="255" on="1"/>
        <pt x="40" y="362" on="0"/>
        <pt x="198" y="471" on="0"/>
        <pt x="305" y="471" on="1"/>
        <pt x="348" y="471" on="1"/>
        <pt x="359" y="534" on="1"/>
        <pt x="360" y="539" on="0"/>
        <pt x="360" y="549" on="1"/>
        <pt x="360" y="576" on="0"/>
        <pt x="336" y="576" on="1"/>
        <pt x="321" y="576" on="0"/>
        <pt x="301" y="554" on="0"/>
        <pt x="298" y="537" on="1"/>
        <pt x="295" y="522" on="0"/>
        <pt x="296" y="509" on="1"/>
        <pt x="92" y="509" on="1"/>
        <pt x="92" y="518" on="1"/>
        <pt x="92" y="527" on="0"/>
        <pt x="94" y="545" on="1"/>
        <pt x="110" y="635" on="0"/>
        <pt x="246" y="749" on="0"/>
        <pt x="358" y="749" on="1"/>
        <pt x="459" y="749" on="0"/>
        <pt x="549" y="653" on="0"/>
        <pt x="549" y="570" on="1"/>
        <pt x="549" y="532" on="0"/>
        <pt x="542" y="496" on="1"/>
        <pt x="538" y="471" on="1"/>
        <pt x="636" y="471" on="1"/>
        <pt x="683" y="740" on="1"/>
      </contour>
      <contour>
        <pt x="319" y="305" on="1"/>
        <pt x="282" y="305" on="1"/>
        <pt x="250" y="305" on="0"/>
        <pt x="209" y="274" on="0"/>
        <pt x="209" y="245" on="1"/>
        <pt x="209" y="227" on="0"/>
        <pt x="232" y="208" on="0"/>
        <pt x="251" y="208" on="1"/>
        <pt x="277" y="208" on="0"/>
        <pt x="307" y="240" on="0"/>
        <pt x="312" y="266" on="1"/>
      </contour>
    </TTGlyph>
    <TTGlyph name="dvBH_LA" xMin="17" yMin="3" xMax="1551" yMax="749">
      <contour>
        <pt x="1361" y="571" on="1"/>
        <pt x="1344" y="473" on="1"/>
        <pt x="1379" y="447" on="0"/>
        <pt x="1418" y="364" on="0"/>
        <pt x="1418" y="309" on="1"/>
        <pt x="1418" y="277" on="0"/>
        <pt x="1413" y="251" on="1"/>
        <pt x="1399" y="175" on="0"/>
        <pt x="1315" y="62" on="0"/>
        <pt x="1181" y="3" on="0"/>
        <pt x="1096" y="5" on="1"/>
        <pt x="1061" y="7" on="1"/>
        <pt x="1093" y="183" on="1"/>
        <pt x="1103" y="181" on="0"/>
        <pt x="1118" y="181" on="1"/>
        <pt x="1150" y="181" on="0"/>
        <pt x="1200" y="222" on="0"/>
        <pt x="1206" y="261" on="1"/>
        <pt x="1208" y="273" on="0"/>
        <pt x="1208" y="279" on="1"/>
        <pt x="1208" y="304" on="0"/>
        <pt x="1180" y="333" on="0"/>
        <pt x="1155" y="333" on="1"/>
        <pt x="1122" y="333" on="0"/>
        <pt x="1084" y="288" on="0"/>
        <pt x="1078" y="256" on="1"/>
        <pt x="1073" y="227" on="1"/>
        <pt x="905" y="227" on="1"/>
        <pt x="910" y="256" on="1"/>
        <pt x="912" y="270" on="0"/>
        <pt x="912" y="278" on="1"/>
        <pt x="912" y="302" on="0"/>
        <pt x="888" y="333" on="0"/>
        <pt x="861" y="333" on="1"/>
        <pt x="831" y="333" on="0"/>
        <pt x="790" y="294" on="0"/>
        <pt x="784" y="261" on="1"/>
        <pt x="782" y="247" on="0"/>
        <pt x="782" y="242" on="1"/>
        <pt x="782" y="212" on="0"/>
        <pt x="817" y="181" on="0"/>
        <pt x="849" y="181" on="1"/>
        <pt x="855" y="181" on="0"/>
        <pt x="871" y="183" on="1"/>
        <pt x="839" y="6" on="1"/>
        <pt x="825" y="5" on="0"/>
        <pt x="809" y="5" on="1"/>
        <pt x="697" y="5" on="0"/>
        <pt x="575" y="121" on="0"/>
        <pt x="575" y="216" on="1"/>
        <pt x="575" y="248" on="0"/>
        <pt x="580" y="273" on="1"/>
        <pt x="584" y="295" on="0"/>
        <pt x="587" y="305" on="1"/>
        <pt x="509" y="305" on="1"/>
        <pt x="504" y="277" on="1"/>
        <pt x="484" y="165" on="0"/>
        <pt x="340" y="36" on="0"/>
        <pt x="224" y="36" on="1"/>
        <pt x="128" y="36" on="0"/>
        <pt x="17" y="130" on="0"/>
        <pt x="17" y="211" on="1"/>
        <pt x="17" y="235" on="0"/>
        <pt x="21" y="255" on="1"/>
        <pt x="40" y="362" on="0"/>
        <pt x="198" y="471" on="0"/>
        <pt x="305" y="471" on="1"/>
        <pt x="348" y="471" on="1"/>
        <pt x="359" y="534" on="1"/>
        <pt x="360" y="539" on="0"/>
        <pt x="360" y="549" on="1"/>
        <pt x="360" y="576" on="0"/>
        <pt x="336" y="576" on="1"/>
        <pt x="321" y="576" on="0"/>
        <pt x="301" y="554" on="0"/>
        <pt x="298" y="537" on="1"/>
        <pt x="295" y="522" on="0"/>
        <pt x="296" y="509" on="1"/>
        <pt x="92" y="509" on="1"/>
        <pt x="92" y="518" on="1"/>
        <pt x="92" y="527" on="0"/>
        <pt x="94" y="545" on="1"/>
        <pt x="110" y="635" on="0"/>
        <pt x="246" y="749" on="0"/>
        <pt x="358" y="749" on="1"/>
        <pt x="459" y="749" on="0"/>
        <pt x="549" y="653" on="0"/>
        <pt x="549" y="570" on="1"/>
        <pt x="549" y="532" on="0"/>
        <pt x="542" y="496" on="1"/>
        <pt x="538" y="471" on="1"/>
        <pt x="704" y="471" on="1"/>
        <pt x="770" y="512" on="0"/>
        <pt x="856" y="512" on="1"/>
        <pt x="920" y="512" on="0"/>
        <pt x="1002" y="461" on="0"/>
        <pt x="1019" y="418" on="1"/>
        <pt x="1022" y="418" on="1"/>
        <pt x="1069" y="484" on="0"/>
        <pt x="1149" y="504" on="1"/>
        <pt x="1161" y="571" on="1"/>
        <pt x="633" y="571" on="1"/>
        <pt x="663" y="740" on="1"/>
        <pt x="1551" y="740" on="1"/>
        <pt x="1521" y="571" on="1"/>
      </contour>
      <contour>
        <pt x="319" y="305" on="1"/>
        <pt x="282" y="305" on="1"/>
        <pt x="250" y="305" on="0"/>
        <pt x="209" y="274" on="0"/>
        <pt x="209" y="245" on="1"/>
        <pt x="209" y="227" on="0"/>
        <pt x="232" y="208" on="0"/>
        <pt x="251" y="208" on="1"/>
        <pt x="277" y="208" on="0"/>
        <pt x="307" y="240" on="0"/>
        <pt x="312" y="266" on="1"/>
      </contour>
    </TTGlyph>
    <TTGlyph name="dvBH_NA" xMin="17" yMin="0" xMax="1478" yMax="749">
      <contour>
        <pt x="1448" y="571" on="1"/>
        <pt x="1372" y="571" on="1"/>
        <pt x="1271" y="0" on="1"/>
        <pt x="1067" y="0" on="1"/>
        <pt x="1124" y="322" on="1"/>
        <pt x="1032" y="322" on="1"/>
        <pt x="1038" y="294" on="0"/>
        <pt x="1038" y="276" on="1"/>
        <pt x="1038" y="256" on="0"/>
        <pt x="1034" y="237" on="1"/>
        <pt x="1023" y="173" on="0"/>
        <pt x="949" y="84" on="0"/>
        <pt x="846" y="39" on="0"/>
        <pt x="790" y="39" on="1"/>
        <pt x="729" y="39" on="0"/>
        <pt x="631" y="89" on="0"/>
        <pt x="576" y="179" on="0"/>
        <pt x="576" y="236" on="1"/>
        <pt x="576" y="250" on="0"/>
        <pt x="580" y="278" on="1"/>
        <pt x="586" y="305" on="1"/>
        <pt x="509" y="305" on="1"/>
        <pt x="504" y="277" on="1"/>
        <pt x="484" y="165" on="0"/>
        <pt x="340" y="36" on="0"/>
        <pt x="224" y="36" on="1"/>
        <pt x="128" y="36" on="0"/>
        <pt x="17" y="130" on="0"/>
        <pt x="17" y="211" on="1"/>
        <pt x="17" y="235" on="0"/>
        <pt x="21" y="255" on="1"/>
        <pt x="40" y="362" on="0"/>
        <pt x="198" y="471" on="0"/>
        <pt x="305" y="471" on="1"/>
        <pt x="348" y="471" on="1"/>
        <pt x="359" y="534" on="1"/>
        <pt x="360" y="539" on="0"/>
        <pt x="360" y="549" on="1"/>
        <pt x="360" y="576" on="0"/>
        <pt x="336" y="576" on="1"/>
        <pt x="321" y="576" on="0"/>
        <pt x="301" y="554" on="0"/>
        <pt x="298" y="537" on="1"/>
        <pt x="295" y="522" on="0"/>
        <pt x="296" y="509" on="1"/>
        <pt x="92" y="509" on="1"/>
        <pt x="92" y="518" on="1"/>
        <pt x="92" y="527" on="0"/>
        <pt x="94" y="545" on="1"/>
        <pt x="110" y="635" on="0"/>
        <pt x="246" y="749" on="0"/>
        <pt x="358" y="749" on="1"/>
        <pt x="459" y="749" on="0"/>
        <pt x="549" y="653" on="0"/>
        <pt x="549" y="570" on="1"/>
        <pt x="549" y="532" on="0"/>
        <pt x="542" y="496" on="1"/>
        <pt x="538" y="471" on="1"/>
        <pt x="742" y="471" on="1"/>
        <pt x="796" y="491" on="0"/>
        <pt x="868" y="491" on="1"/>
        <pt x="1154" y="491" on="1"/>
        <pt x="1168" y="571" on="1"/>
        <pt x="634" y="571" on="1"/>
        <pt x="664" y="740" on="1"/>
        <pt x="1478" y="740" on="1"/>
      </contour>
      <contour>
        <pt x="879" y="297" on="0"/>
        <pt x="854" y="322" on="0"/>
        <pt x="832" y="322" on="1"/>
        <pt x="803" y="322" on="0"/>
        <pt x="763" y="283" on="0"/>
        <pt x="763" y="255" on="1"/>
        <pt x="763" y="235" on="0"/>
        <pt x="790" y="210" on="0"/>
        <pt x="812" y="210" on="1"/>
        <pt x="839" y="210" on="0"/>
        <pt x="879" y="248" on="0"/>
        <pt x="879" y="276" on="1"/>
      </contour>
      <contour>
        <pt x="319" y="305" on="1"/>
        <pt x="282" y="305" on="1"/>
        <pt x="250" y="305" on="0"/>
        <pt x="209" y="274" on="0"/>
        <pt x="209" y="245" on="1"/>
        <pt x="209" y="227" on="0"/>
        <pt x="232" y="208" on="0"/>
        <pt x="251" y="208" on="1"/>
        <pt x="277" y="208" on="0"/>
        <pt x="307" y="240" on="0"/>
        <pt x="312" y="266" on="1"/>
      </contour>
    </TTGlyph>
    <TTGlyph name="dvBH_R" xMin="19" yMin="-99" xMax="745" yMax="749">
      <contour>
        <pt x="717" y="317" on="1"/>
        <pt x="685" y="137" on="1"/>
        <pt x="409" y="-99" on="1"/>
        <pt x="189" y="-99" on="1"/>
        <pt x="714" y="317" on="1"/>
        <pt x="507" y="317" on="1"/>
        <pt x="503" y="296" on="1"/>
        <pt x="484" y="190" on="0"/>
        <pt x="339" y="59" on="0"/>
        <pt x="227" y="59" on="1"/>
        <pt x="131" y="59" on="0"/>
        <pt x="19" y="150" on="0"/>
        <pt x="19" y="229" on="1"/>
        <pt x="19" y="240" on="0"/>
        <pt x="23" y="268" on="1"/>
        <pt x="41" y="373" on="0"/>
        <pt x="199" y="479" on="0"/>
        <pt x="306" y="479" on="1"/>
        <pt x="352" y="479" on="1"/>
        <pt x="362" y="534" on="1"/>
        <pt x="363" y="538" on="0"/>
        <pt x="363" y="546" on="1"/>
        <pt x="363" y="577" on="0"/>
        <pt x="332" y="577" on="1"/>
        <pt x="316" y="577" on="0"/>
        <pt x="295" y="555" on="0"/>
        <pt x="292" y="539" on="1"/>
        <pt x="290" y="530" on="0"/>
        <pt x="290" y="513" on="1"/>
        <pt x="92" y="513" on="1"/>
        <pt x="92" y="532" on="0"/>
        <pt x="95" y="550" on="1"/>
        <pt x="109" y="637" on="0"/>
        <pt x="246" y="749" on="0"/>
        <pt x="358" y="749" on="1"/>
        <pt x="457" y="749" on="0"/>
        <pt x="545" y="653" on="0"/>
        <pt x="545" y="570" on="1"/>
        <pt x="545" y="532" on="0"/>
        <pt x="538" y="496" on="1"/>
        <pt x="535" y="479" on="1"/>
        <pt x="745" y="479" on="1"/>
      </contour>
      <contour>
        <pt x="324" y="317" on="1"/>
        <pt x="279" y="317" on="1"/>
        <pt x="253" y="317" on="0"/>
        <pt x="214" y="292" on="0"/>
        <pt x="210" y="269" on="1"/>
        <pt x="209" y="266" on="0"/>
        <pt x="209" y="260" on="1"/>
        <pt x="209" y="244" on="0"/>
        <pt x="233" y="225" on="0"/>
        <pt x="253" y="225" on="1"/>
        <pt x="281" y="225" on="0"/>
        <pt x="313" y="258" on="0"/>
        <pt x="318" y="285" on="1"/>
      </contour>
    </TTGlyph>
    <TTGlyph name="dvBH_RA" xMin="19" yMin="-99" xMax="985" yMax="749">
      <contour>
        <pt x="985" y="740" on="1"/>
        <pt x="955" y="571" on="1"/>
        <pt x="877" y="571" on="1"/>
        <pt x="777" y="0" on="1"/>
        <pt x="594" y="0" on="1"/>
        <pt x="606" y="69" on="1"/>
        <pt x="409" y="-99" on="1"/>
        <pt x="189" y="-99" on="1"/>
        <pt x="626" y="247" on="1"/>
        <pt x="639" y="317" on="1"/>
        <pt x="507" y="317" on="1"/>
        <pt x="503" y="296" on="1"/>
        <pt x="484" y="190" on="0"/>
        <pt x="339" y="59" on="0"/>
        <pt x="227" y="59" on="1"/>
        <pt x="131" y="59" on="0"/>
        <pt x="19" y="150" on="0"/>
        <pt x="19" y="229" on="1"/>
        <pt x="19" y="240" on="0"/>
        <pt x="23" y="268" on="1"/>
        <pt x="41" y="373" on="0"/>
        <pt x="199" y="479" on="0"/>
        <pt x="306" y="479" on="1"/>
        <pt x="352" y="479" on="1"/>
        <pt x="362" y="534" on="1"/>
        <pt x="363" y="538" on="0"/>
        <pt x="363" y="546" on="1"/>
        <pt x="363" y="577" on="0"/>
        <pt x="332" y="577" on="1"/>
        <pt x="316" y="577" on="0"/>
        <pt x="295" y="555" on="0"/>
        <pt x="292" y="539" on="1"/>
        <pt x="290" y="530" on="0"/>
        <pt x="290" y="513" on="1"/>
        <pt x="92" y="513" on="1"/>
        <pt x="92" y="532" on="0"/>
        <pt x="95" y="550" on="1"/>
        <pt x="109" y="637" on="0"/>
        <pt x="246" y="749" on="0"/>
        <pt x="358" y="749" on="1"/>
        <pt x="457" y="749" on="0"/>
        <pt x="545" y="653" on="0"/>
        <pt x="545" y="570" on="1"/>
        <pt x="545" y="532" on="0"/>
        <pt x="538" y="496" on="1"/>
        <pt x="535" y="479" on="1"/>
        <pt x="667" y="479" on="1"/>
        <pt x="713" y="740" on="1"/>
      </contour>
      <contour>
        <pt x="324" y="317" on="1"/>
        <pt x="279" y="317" on="1"/>
        <pt x="253" y="317" on="0"/>
        <pt x="214" y="292" on="0"/>
        <pt x="210" y="269" on="1"/>
        <pt x="209" y="266" on="0"/>
        <pt x="209" y="260" on="1"/>
        <pt x="209" y="244" on="0"/>
        <pt x="233" y="225" on="0"/>
        <pt x="253" y="225" on="1"/>
        <pt x="281" y="225" on="0"/>
        <pt x="313" y="258" on="0"/>
        <pt x="318" y="285" on="1"/>
      </contour>
    </TTGlyph>
    <TTGlyph name="dvBH_R_YA" xMin="19" yMin="-99" xMax="1384" yMax="749">
      <contour>
        <pt x="1355" y="571" on="1"/>
        <pt x="1278" y="571" on="1"/>
        <pt x="1177" y="0" on="1"/>
        <pt x="973" y="0" on="1"/>
        <pt x="994" y="117" on="1"/>
        <pt x="924" y="63" on="0"/>
        <pt x="822" y="63" on="1"/>
        <pt x="720" y="63" on="0"/>
        <pt x="655" y="111" on="1"/>
        <pt x="409" y="-99" on="1"/>
        <pt x="189" y="-99" on="1"/>
        <pt x="584" y="214" on="1"/>
        <pt x="575" y="246" on="0"/>
        <pt x="575" y="281" on="1"/>
        <pt x="575" y="293" on="0"/>
        <pt x="577" y="317" on="1"/>
        <pt x="507" y="317" on="1"/>
        <pt x="503" y="296" on="1"/>
        <pt x="484" y="190" on="0"/>
        <pt x="339" y="59" on="0"/>
        <pt x="227" y="59" on="1"/>
        <pt x="131" y="59" on="0"/>
        <pt x="19" y="150" on="0"/>
        <pt x="19" y="229" on="1"/>
        <pt x="19" y="240" on="0"/>
        <pt x="23" y="268" on="1"/>
        <pt x="41" y="368" on="0"/>
        <pt x="199" y="471" on="0"/>
        <pt x="306" y="471" on="1"/>
        <pt x="351" y="471" on="1"/>
        <pt x="362" y="534" on="1"/>
        <pt x="363" y="538" on="0"/>
        <pt x="363" y="546" on="1"/>
        <pt x="363" y="577" on="0"/>
        <pt x="332" y="577" on="1"/>
        <pt x="316" y="577" on="0"/>
        <pt x="295" y="555" on="0"/>
        <pt x="292" y="539" on="1"/>
        <pt x="290" y="530" on="0"/>
        <pt x="290" y="513" on="1"/>
        <pt x="92" y="513" on="1"/>
        <pt x="92" y="532" on="0"/>
        <pt x="95" y="550" on="1"/>
        <pt x="109" y="637" on="0"/>
        <pt x="246" y="749" on="0"/>
        <pt x="358" y="749" on="1"/>
        <pt x="457" y="749" on="0"/>
        <pt x="545" y="653" on="0"/>
        <pt x="545" y="570" on="1"/>
        <pt x="545" y="532" on="0"/>
        <pt x="538" y="496" on="1"/>
        <pt x="534" y="471" on="1"/>
        <pt x="663" y="471" on="1"/>
        <pt x="697" y="471" on="0"/>
        <pt x="733" y="482" on="0"/>
        <pt x="751" y="511" on="0"/>
        <pt x="756" y="540" on="1"/>
        <pt x="762" y="571" on="1"/>
        <pt x="634" y="571" on="1"/>
        <pt x="663" y="740" on="1"/>
        <pt x="1384" y="740" on="1"/>
      </contour>
      <contour>
        <pt x="1074" y="571" on="1"/>
        <pt x="963" y="571" on="1"/>
        <pt x="950" y="502" on="1"/>
        <pt x="923" y="343" on="0"/>
        <pt x="778" y="320" on="1"/>
        <pt x="774" y="283" on="0"/>
        <pt x="827" y="232" on="0"/>
        <pt x="881" y="232" on="1"/>
        <pt x="946" y="232" on="0"/>
        <pt x="1028" y="312" on="0"/>
        <pt x="1039" y="375" on="1"/>
      </contour>
      <contour>
        <pt x="324" y="317" on="1"/>
        <pt x="279" y="317" on="1"/>
        <pt x="253" y="317" on="0"/>
        <pt x="214" y="292" on="0"/>
        <pt x="210" y="269" on="1"/>
        <pt x="209" y="266" on="0"/>
        <pt x="209" y="260" on="1"/>
        <pt x="209" y="244" on="0"/>
        <pt x="233" y="225" on="0"/>
        <pt x="253" y="225" on="1"/>
        <pt x="281" y="225" on="0"/>
        <pt x="313" y="258" on="0"/>
        <pt x="318" y="285" on="1"/>
      </contour>
    </TTGlyph>
    <TTGlyph name="dvBH_VA" xMin="17" yMin="0" xMax="1291" yMax="749">
      <contour>
        <pt x="1291" y="740" on="1"/>
        <pt x="1261" y="571" on="1"/>
        <pt x="1185" y="571" on="1"/>
        <pt x="1085" y="0" on="1"/>
        <pt x="886" y="0" on="1"/>
        <pt x="902" y="93" on="1"/>
        <pt x="847" y="41" on="0"/>
        <pt x="765" y="41" on="1"/>
        <pt x="678" y="41" on="0"/>
        <pt x="578" y="145" on="0"/>
        <pt x="578" y="234" on="1"/>
        <pt x="578" y="260" on="0"/>
        <pt x="585" y="300" on="1"/>
        <pt x="586" y="305" on="1"/>
        <pt x="509" y="305" on="1"/>
        <pt x="504" y="277" on="1"/>
        <pt x="484" y="165" on="0"/>
        <pt x="340" y="36" on="0"/>
        <pt x="224" y="36" on="1"/>
        <pt x="128" y="36" on="0"/>
        <pt x="17" y="130" on="0"/>
        <pt x="17" y="211" on="1"/>
        <pt x="17" y="235" on="0"/>
        <pt x="21" y="255" on="1"/>
        <pt x="40" y="362" on="0"/>
        <pt x="198" y="471" on="0"/>
        <pt x="305" y="471" on="1"/>
        <pt x="348" y="471" on="1"/>
        <pt x="359" y="534" on="1"/>
        <pt x="360" y="539" on="0"/>
        <pt x="360" y="549" on="1"/>
        <pt x="360" y="576" on="0"/>
        <pt x="336" y="576" on="1"/>
        <pt x="321" y="576" on="0"/>
        <pt x="301" y="554" on="0"/>
        <pt x="298" y="537" on="1"/>
        <pt x="295" y="522" on="0"/>
        <pt x="296" y="509" on="1"/>
        <pt x="92" y="509" on="1"/>
        <pt x="92" y="518" on="1"/>
        <pt x="92" y="527" on="0"/>
        <pt x="94" y="545" on="1"/>
        <pt x="110" y="635" on="0"/>
        <pt x="246" y="749" on="0"/>
        <pt x="358" y="749" on="1"/>
        <pt x="459" y="749" on="0"/>
        <pt x="549" y="653" on="0"/>
        <pt x="549" y="570" on="1"/>
        <pt x="549" y="532" on="0"/>
        <pt x="542" y="496" on="1"/>
        <pt x="538" y="471" on="1"/>
        <pt x="687" y="471" on="1"/>
        <pt x="750" y="517" on="0"/>
        <pt x="842" y="517" on="1"/>
        <pt x="883" y="517" on="0"/>
        <pt x="948" y="490" on="0"/>
        <pt x="967" y="465" on="1"/>
        <pt x="986" y="571" on="1"/>
        <pt x="633" y="571" on="1"/>
        <pt x="663" y="740" on="1"/>
      </contour>
      <contour>
        <pt x="778" y="238" on="0"/>
        <pt x="814" y="203" on="0"/>
        <pt x="845" y="203" on="1"/>
        <pt x="883" y="203" on="0"/>
        <pt x="936" y="257" on="0"/>
        <pt x="936" y="295" on="1"/>
        <pt x="936" y="322" on="0"/>
        <pt x="901" y="355" on="0"/>
        <pt x="871" y="355" on="1"/>
        <pt x="831" y="355" on="0"/>
        <pt x="778" y="302" on="0"/>
        <pt x="778" y="265" on="1"/>
      </contour>
      <contour>
        <pt x="319" y="305" on="1"/>
        <pt x="282" y="305" on="1"/>
        <pt x="250" y="305" on="0"/>
        <pt x="209" y="274" on="0"/>
        <pt x="209" y="245" on="1"/>
        <pt x="209" y="227" on="0"/>
        <pt x="232" y="208" on="0"/>
        <pt x="251" y="208" on="1"/>
        <pt x="277" y="208" on="0"/>
        <pt x="307" y="240" on="0"/>
        <pt x="312" y="266" on="1"/>
      </contour>
    </TTGlyph>
    <TTGlyph name="dvBH_YA" xMin="17" yMin="0" xMax="1384" yMax="749">
      <contour>
        <pt x="1355" y="571" on="1"/>
        <pt x="1278" y="571" on="1"/>
        <pt x="1177" y="0" on="1"/>
        <pt x="973" y="0" on="1"/>
        <pt x="994" y="117" on="1"/>
        <pt x="924" y="63" on="0"/>
        <pt x="822" y="63" on="1"/>
        <pt x="707" y="63" on="0"/>
        <pt x="575" y="181" on="0"/>
        <pt x="575" y="282" on="1"/>
        <pt x="575" y="297" on="0"/>
        <pt x="576" y="305" on="1"/>
        <pt x="509" y="305" on="1"/>
        <pt x="504" y="277" on="1"/>
        <pt x="484" y="165" on="0"/>
        <pt x="340" y="36" on="0"/>
        <pt x="224" y="36" on="1"/>
        <pt x="128" y="36" on="0"/>
        <pt x="17" y="130" on="0"/>
        <pt x="17" y="211" on="1"/>
        <pt x="17" y="235" on="0"/>
        <pt x="21" y="255" on="1"/>
        <pt x="40" y="362" on="0"/>
        <pt x="198" y="471" on="0"/>
        <pt x="305" y="471" on="1"/>
        <pt x="348" y="471" on="1"/>
        <pt x="359" y="534" on="1"/>
        <pt x="360" y="539" on="0"/>
        <pt x="360" y="549" on="1"/>
        <pt x="360" y="576" on="0"/>
        <pt x="336" y="576" on="1"/>
        <pt x="321" y="576" on="0"/>
        <pt x="301" y="554" on="0"/>
        <pt x="298" y="537" on="1"/>
        <pt x="295" y="522" on="0"/>
        <pt x="296" y="509" on="1"/>
        <pt x="92" y="509" on="1"/>
        <pt x="92" y="518" on="1"/>
        <pt x="92" y="527" on="0"/>
        <pt x="94" y="545" on="1"/>
        <pt x="110" y="635" on="0"/>
        <pt x="246" y="749" on="0"/>
        <pt x="358" y="749" on="1"/>
        <pt x="459" y="749" on="0"/>
        <pt x="549" y="653" on="0"/>
        <pt x="549" y="570" on="1"/>
        <pt x="549" y="532" on="0"/>
        <pt x="542" y="496" on="1"/>
        <pt x="538" y="471" on="1"/>
        <pt x="663" y="471" on="1"/>
        <pt x="697" y="471" on="0"/>
        <pt x="733" y="482" on="0"/>
        <pt x="751" y="511" on="0"/>
        <pt x="756" y="540" on="1"/>
        <pt x="762" y="571" on="1"/>
        <pt x="634" y="571" on="1"/>
        <pt x="663" y="740" on="1"/>
        <pt x="1384" y="740" on="1"/>
      </contour>
      <contour>
        <pt x="1074" y="571" on="1"/>
        <pt x="963" y="571" on="1"/>
        <pt x="950" y="502" on="1"/>
        <pt x="923" y="343" on="0"/>
        <pt x="778" y="320" on="1"/>
        <pt x="774" y="283" on="0"/>
        <pt x="827" y="232" on="0"/>
        <pt x="881" y="232" on="1"/>
        <pt x="946" y="232" on="0"/>
        <pt x="1028" y="312" on="0"/>
        <pt x="1039" y="375" on="1"/>
      </contour>
      <contour>
        <pt x="319" y="305" on="1"/>
        <pt x="282" y="305" on="1"/>
        <pt x="250" y="305" on="0"/>
        <pt x="209" y="274" on="0"/>
        <pt x="209" y="245" on="1"/>
        <pt x="209" y="227" on="0"/>
        <pt x="232" y="208" on="0"/>
        <pt x="251" y="208" on="1"/>
        <pt x="277" y="208" on="0"/>
        <pt x="307" y="240" on="0"/>
        <pt x="312" y="266" on="1"/>
      </contour>
    </TTGlyph>
    <TTGlyph name="dvB_BA" xMin="24" yMin="0" xMax="1150" yMax="740">
      <contour>
        <pt x="1120" y="571" on="1"/>
        <pt x="1044" y="571" on="1"/>
        <pt x="944" y="0" on="1"/>
        <pt x="748" y="0" on="1"/>
        <pt x="763" y="85" on="1"/>
        <pt x="736" y="62" on="0"/>
        <pt x="659" y="39" on="0"/>
        <pt x="615" y="39" on="1"/>
        <pt x="569" y="39" on="0"/>
        <pt x="492" y="71" on="0"/>
        <pt x="465" y="100" on="1"/>
        <pt x="386" y="38" on="0"/>
        <pt x="264" y="38" on="1"/>
        <pt x="189" y="38" on="0"/>
        <pt x="81" y="94" on="0"/>
        <pt x="24" y="190" on="0"/>
        <pt x="24" y="251" on="1"/>
        <pt x="24" y="270" on="0"/>
        <pt x="27" y="288" on="1"/>
        <pt x="36" y="354" on="0"/>
        <pt x="115" y="462" on="0"/>
        <pt x="247" y="526" on="0"/>
        <pt x="334" y="526" on="1"/>
        <pt x="450" y="526" on="0"/>
        <pt x="516" y="466" on="1"/>
        <pt x="552" y="494" on="0"/>
        <pt x="646" y="524" on="0"/>
        <pt x="700" y="524" on="1"/>
        <pt x="783" y="524" on="0"/>
        <pt x="834" y="489" on="1"/>
        <pt x="848" y="571" on="1"/>
        <pt x="24" y="571" on="1"/>
        <pt x="54" y="740" on="1"/>
        <pt x="1150" y="740" on="1"/>
      </contour>
      <contour>
        <pt x="687" y="395" on="0"/>
        <pt x="658" y="378" on="1"/>
        <pt x="805" y="265" on="1"/>
        <pt x="811" y="284" on="0"/>
        <pt x="811" y="288" on="1"/>
        <pt x="813" y="302" on="0"/>
        <pt x="813" y="308" on="1"/>
        <pt x="813" y="347" on="0"/>
        <pt x="763" y="395" on="0"/>
        <pt x="721" y="395" on="1"/>
      </contour>
      <contour>
        <pt x="416" y="296" on="0"/>
        <pt x="416" y="303" on="1"/>
        <pt x="416" y="341" on="0"/>
        <pt x="366" y="389" on="0"/>
        <pt x="324" y="389" on="1"/>
        <pt x="289" y="389" on="0"/>
        <pt x="260" y="372" on="1"/>
        <pt x="407" y="257" on="1"/>
        <pt x="411" y="266" on="0"/>
        <pt x="414" y="282" on="1"/>
      </contour>
      <contour>
        <pt x="590" y="274" on="0"/>
        <pt x="590" y="267" on="1"/>
        <pt x="590" y="228" on="0"/>
        <pt x="643" y="182" on="0"/>
        <pt x="684" y="182" on="1"/>
        <pt x="717" y="182" on="0"/>
        <pt x="746" y="198" on="1"/>
        <pt x="599" y="312" on="1"/>
        <pt x="593" y="296" on="0"/>
        <pt x="592" y="288" on="1"/>
      </contour>
      <contour>
        <pt x="192" y="268" on="0"/>
        <pt x="192" y="263" on="1"/>
        <pt x="192" y="223" on="0"/>
        <pt x="245" y="176" on="0"/>
        <pt x="286" y="176" on="1"/>
        <pt x="319" y="176" on="0"/>
        <pt x="348" y="192" on="1"/>
        <pt x="201" y="305" on="1"/>
        <pt x="195" y="291" on="0"/>
        <pt x="194" y="282" on="1"/>
      </contour>
    </TTGlyph>
    <TTGlyph name="dvB_BHA" xMin="24" yMin="0" xMax="1353" yMax="749">
      <contour>
        <pt x="1353" y="740" on="1"/>
        <pt x="1324" y="571" on="1"/>
        <pt x="1246" y="571" on="1"/>
        <pt x="1145" y="0" on="1"/>
        <pt x="941" y="0" on="1"/>
        <pt x="995" y="305" on="1"/>
        <pt x="897" y="305" on="1"/>
        <pt x="892" y="277" on="1"/>
        <pt x="872" y="165" on="0"/>
        <pt x="728" y="36" on="0"/>
        <pt x="612" y="36" on="1"/>
        <pt x="561" y="36" on="0"/>
        <pt x="479" y="64" on="0"/>
        <pt x="452" y="90" on="1"/>
        <pt x="374" y="38" on="0"/>
        <pt x="264" y="38" on="1"/>
        <pt x="189" y="38" on="0"/>
        <pt x="81" y="94" on="0"/>
        <pt x="24" y="190" on="0"/>
        <pt x="24" y="251" on="1"/>
        <pt x="24" y="270" on="0"/>
        <pt x="27" y="288" on="1"/>
        <pt x="36" y="354" on="0"/>
        <pt x="115" y="462" on="0"/>
        <pt x="247" y="526" on="0"/>
        <pt x="334" y="526" on="1"/>
        <pt x="407" y="526" on="0"/>
        <pt x="511" y="479" on="0"/>
        <pt x="541" y="437" on="1"/>
        <pt x="608" y="471" on="0"/>
        <pt x="693" y="471" on="1"/>
        <pt x="736" y="471" on="1"/>
        <pt x="747" y="534" on="1"/>
        <pt x="748" y="539" on="0"/>
        <pt x="748" y="549" on="1"/>
        <pt x="748" y="576" on="0"/>
        <pt x="724" y="576" on="1"/>
        <pt x="715" y="576" on="0"/>
        <pt x="707" y="571" on="1"/>
        <pt x="24" y="571" on="1"/>
        <pt x="54" y="740" on="1"/>
        <pt x="666" y="740" on="1"/>
        <pt x="702" y="749" on="0"/>
        <pt x="746" y="749" on="1"/>
        <pt x="847" y="749" on="0"/>
        <pt x="937" y="653" on="0"/>
        <pt x="937" y="570" on="1"/>
        <pt x="937" y="532" on="0"/>
        <pt x="930" y="496" on="1"/>
        <pt x="926" y="471" on="1"/>
        <pt x="1024" y="471" on="1"/>
        <pt x="1071" y="740" on="1"/>
      </contour>
      <contour>
        <pt x="416" y="296" on="0"/>
        <pt x="416" y="303" on="1"/>
        <pt x="416" y="341" on="0"/>
        <pt x="366" y="389" on="0"/>
        <pt x="324" y="389" on="1"/>
        <pt x="289" y="389" on="0"/>
        <pt x="260" y="372" on="1"/>
        <pt x="407" y="257" on="1"/>
        <pt x="411" y="266" on="0"/>
        <pt x="414" y="282" on="1"/>
      </contour>
      <contour>
        <pt x="192" y="268" on="0"/>
        <pt x="192" y="263" on="1"/>
        <pt x="192" y="223" on="0"/>
        <pt x="245" y="176" on="0"/>
        <pt x="286" y="176" on="1"/>
        <pt x="319" y="176" on="0"/>
        <pt x="348" y="192" on="1"/>
        <pt x="201" y="305" on="1"/>
        <pt x="195" y="291" on="0"/>
        <pt x="194" y="282" on="1"/>
      </contour>
      <contour>
        <pt x="707" y="305" on="1"/>
        <pt x="670" y="305" on="1"/>
        <pt x="638" y="305" on="0"/>
        <pt x="597" y="274" on="0"/>
        <pt x="597" y="245" on="1"/>
        <pt x="597" y="227" on="0"/>
        <pt x="620" y="208" on="0"/>
        <pt x="639" y="208" on="1"/>
        <pt x="665" y="208" on="0"/>
        <pt x="695" y="240" on="0"/>
        <pt x="700" y="266" on="1"/>
      </contour>
    </TTGlyph>
    <TTGlyph name="dvB_BH_RA" xMin="24" yMin="-99" xMax="1377" yMax="749">
      <contour>
        <pt x="1377" y="740" on="1"/>
        <pt x="1347" y="571" on="1"/>
        <pt x="1269" y="571" on="1"/>
        <pt x="1169" y="0" on="1"/>
        <pt x="986" y="0" on="1"/>
        <pt x="998" y="69" on="1"/>
        <pt x="801" y="-99" on="1"/>
        <pt x="581" y="-99" on="1"/>
        <pt x="1018" y="247" on="1"/>
        <pt x="1031" y="317" on="1"/>
        <pt x="899" y="317" on="1"/>
        <pt x="895" y="296" on="1"/>
        <pt x="876" y="190" on="0"/>
        <pt x="731" y="59" on="0"/>
        <pt x="619" y="59" on="1"/>
        <pt x="525" y="59" on="0"/>
        <pt x="470" y="103" on="1"/>
        <pt x="387" y="38" on="0"/>
        <pt x="264" y="38" on="1"/>
        <pt x="189" y="38" on="0"/>
        <pt x="81" y="94" on="0"/>
        <pt x="24" y="190" on="0"/>
        <pt x="24" y="251" on="1"/>
        <pt x="24" y="270" on="0"/>
        <pt x="27" y="288" on="1"/>
        <pt x="36" y="354" on="0"/>
        <pt x="115" y="462" on="0"/>
        <pt x="247" y="526" on="0"/>
        <pt x="334" y="526" on="1"/>
        <pt x="405" y="526" on="0"/>
        <pt x="507" y="482" on="0"/>
        <pt x="537" y="442" on="1"/>
        <pt x="607" y="479" on="0"/>
        <pt x="698" y="479" on="1"/>
        <pt x="744" y="479" on="1"/>
        <pt x="754" y="534" on="1"/>
        <pt x="755" y="538" on="0"/>
        <pt x="755" y="546" on="1"/>
        <pt x="755" y="577" on="0"/>
        <pt x="724" y="577" on="1"/>
        <pt x="712" y="577" on="0"/>
        <pt x="703" y="571" on="1"/>
        <pt x="24" y="571" on="1"/>
        <pt x="54" y="740" on="1"/>
        <pt x="669" y="740" on="1"/>
        <pt x="706" y="749" on="0"/>
        <pt x="750" y="749" on="1"/>
        <pt x="849" y="749" on="0"/>
        <pt x="937" y="653" on="0"/>
        <pt x="937" y="570" on="1"/>
        <pt x="937" y="532" on="0"/>
        <pt x="930" y="496" on="1"/>
        <pt x="927" y="479" on="1"/>
        <pt x="1059" y="479" on="1"/>
        <pt x="1105" y="740" on="1"/>
      </contour>
      <contour>
        <pt x="416" y="296" on="0"/>
        <pt x="416" y="303" on="1"/>
        <pt x="416" y="341" on="0"/>
        <pt x="366" y="389" on="0"/>
        <pt x="324" y="389" on="1"/>
        <pt x="289" y="389" on="0"/>
        <pt x="260" y="372" on="1"/>
        <pt x="407" y="257" on="1"/>
        <pt x="411" y="266" on="0"/>
        <pt x="414" y="282" on="1"/>
      </contour>
      <contour>
        <pt x="716" y="317" on="1"/>
        <pt x="671" y="317" on="1"/>
        <pt x="645" y="317" on="0"/>
        <pt x="606" y="292" on="0"/>
        <pt x="602" y="269" on="1"/>
        <pt x="601" y="266" on="0"/>
        <pt x="601" y="260" on="1"/>
        <pt x="601" y="244" on="0"/>
        <pt x="625" y="225" on="0"/>
        <pt x="645" y="225" on="1"/>
        <pt x="673" y="225" on="0"/>
        <pt x="705" y="258" on="0"/>
        <pt x="710" y="285" on="1"/>
      </contour>
      <contour>
        <pt x="192" y="268" on="0"/>
        <pt x="192" y="263" on="1"/>
        <pt x="192" y="223" on="0"/>
        <pt x="245" y="176" on="0"/>
        <pt x="286" y="176" on="1"/>
        <pt x="319" y="176" on="0"/>
        <pt x="348" y="192" on="1"/>
        <pt x="201" y="305" on="1"/>
        <pt x="195" y="291" on="0"/>
        <pt x="194" y="282" on="1"/>
      </contour>
    </TTGlyph>
    <TTGlyph name="dvB_DA" xMin="24" yMin="-44" xMax="1077" yMax="740">
      <contour>
        <pt x="670" y="336" on="0"/>
        <pt x="620" y="288" on="0"/>
        <pt x="620" y="251" on="1"/>
        <pt x="620" y="229" on="0"/>
        <pt x="646" y="204" on="0"/>
        <pt x="670" y="204" on="1"/>
        <pt x="698" y="204" on="0"/>
        <pt x="734" y="239" on="0"/>
        <pt x="739" y="267" on="1"/>
        <pt x="928" y="267" on="1"/>
        <pt x="873" y="-44" on="1"/>
        <pt x="674" y="-44" on="1"/>
        <pt x="696" y="79" on="1"/>
        <pt x="650" y="44" on="0"/>
        <pt x="581" y="44" on="1"/>
        <pt x="545" y="44" on="0"/>
        <pt x="480" y="69" on="0"/>
        <pt x="457" y="93" on="1"/>
        <pt x="378" y="38" on="0"/>
        <pt x="264" y="38" on="1"/>
        <pt x="189" y="38" on="0"/>
        <pt x="81" y="94" on="0"/>
        <pt x="24" y="190" on="0"/>
        <pt x="24" y="251" on="1"/>
        <pt x="24" y="270" on="0"/>
        <pt x="27" y="288" on="1"/>
        <pt x="36" y="354" on="0"/>
        <pt x="115" y="462" on="0"/>
        <pt x="247" y="526" on="0"/>
        <pt x="334" y="526" on="1"/>
        <pt x="398" y="526" on="0"/>
        <pt x="494" y="489" on="0"/>
        <pt x="525" y="456" on="1"/>
        <pt x="605" y="510" on="0"/>
        <pt x="722" y="510" on="1"/>
        <pt x="737" y="510" on="1"/>
        <pt x="748" y="571" on="1"/>
        <pt x="24" y="571" on="1"/>
        <pt x="54" y="740" on="1"/>
        <pt x="1077" y="740" on="1"/>
        <pt x="1046" y="571" on="1"/>
        <pt x="953" y="571" on="1"/>
        <pt x="911" y="336" on="1"/>
        <pt x="713" y="336" on="1"/>
      </contour>
      <contour>
        <pt x="416" y="296" on="0"/>
        <pt x="416" y="303" on="1"/>
        <pt x="416" y="341" on="0"/>
        <pt x="366" y="389" on="0"/>
        <pt x="324" y="389" on="1"/>
        <pt x="289" y="389" on="0"/>
        <pt x="260" y="372" on="1"/>
        <pt x="407" y="257" on="1"/>
        <pt x="411" y="266" on="0"/>
        <pt x="414" y="282" on="1"/>
      </contour>
      <contour>
        <pt x="192" y="268" on="0"/>
        <pt x="192" y="263" on="1"/>
        <pt x="192" y="223" on="0"/>
        <pt x="245" y="176" on="0"/>
        <pt x="286" y="176" on="1"/>
        <pt x="319" y="176" on="0"/>
        <pt x="348" y="192" on="1"/>
        <pt x="201" y="305" on="1"/>
        <pt x="195" y="291" on="0"/>
        <pt x="194" y="282" on="1"/>
      </contour>
    </TTGlyph>
    <TTGlyph name="dvB_DHA" xMin="24" yMin="0" xMax="1201" yMax="749">
      <contour>
        <pt x="1172" y="571" on="1"/>
        <pt x="1100" y="571" on="1"/>
        <pt x="999" y="0" on="1"/>
        <pt x="795" y="0" on="1"/>
        <pt x="819" y="137" on="1"/>
        <pt x="741" y="65" on="0"/>
        <pt x="609" y="65" on="1"/>
        <pt x="511" y="65" on="0"/>
        <pt x="455" y="112" on="1"/>
        <pt x="416" y="76" on="0"/>
        <pt x="313" y="38" on="0"/>
        <pt x="255" y="38" on="1"/>
        <pt x="191" y="38" on="0"/>
        <pt x="86" y="89" on="0"/>
        <pt x="25" y="185" on="0"/>
        <pt x="25" y="249" on="1"/>
        <pt x="25" y="274" on="0"/>
        <pt x="29" y="297" on="1"/>
        <pt x="41" y="368" on="0"/>
        <pt x="126" y="471" on="0"/>
        <pt x="255" y="526" on="0"/>
        <pt x="332" y="526" on="1"/>
        <pt x="372" y="526" on="0"/>
        <pt x="399" y="519" on="1"/>
        <pt x="376" y="387" on="1"/>
        <pt x="355" y="391" on="0"/>
        <pt x="330" y="391" on="1"/>
        <pt x="291" y="391" on="0"/>
        <pt x="257" y="371" on="1"/>
        <pt x="408" y="254" on="1"/>
        <pt x="417" y="275" on="1"/>
        <pt x="433" y="323" on="0"/>
        <pt x="506" y="382" on="0"/>
        <pt x="547" y="394" on="1"/>
        <pt x="548" y="398" on="1"/>
        <pt x="508" y="413" on="0"/>
        <pt x="455" y="483" on="0"/>
        <pt x="455" y="535" on="1"/>
        <pt x="455" y="552" on="0"/>
        <pt x="458" y="571" on="1"/>
        <pt x="24" y="571" on="1"/>
        <pt x="53" y="740" on="1"/>
        <pt x="604" y="740" on="1"/>
        <pt x="637" y="749" on="0"/>
        <pt x="674" y="749" on="1"/>
        <pt x="756" y="749" on="0"/>
        <pt x="847" y="672" on="0"/>
        <pt x="847" y="603" on="1"/>
        <pt x="847" y="569" on="0"/>
        <pt x="835" y="528" on="1"/>
        <pt x="686" y="528" on="1"/>
        <pt x="689" y="537" on="0"/>
        <pt x="689" y="549" on="1"/>
        <pt x="689" y="579" on="0"/>
        <pt x="662" y="579" on="1"/>
        <pt x="645" y="579" on="0"/>
        <pt x="624" y="550" on="0"/>
        <pt x="624" y="527" on="1"/>
        <pt x="624" y="481" on="0"/>
        <pt x="694" y="481" on="1"/>
        <pt x="786" y="481" on="1"/>
        <pt x="757" y="318" on="1"/>
        <pt x="705" y="318" on="1"/>
        <pt x="630" y="318" on="0"/>
        <pt x="622" y="274" on="1"/>
        <pt x="618" y="253" on="0"/>
        <pt x="654" y="231" on="0"/>
        <pt x="692" y="231" on="1"/>
        <pt x="758" y="231" on="0"/>
        <pt x="848" y="311" on="0"/>
        <pt x="862" y="379" on="1"/>
        <pt x="896" y="571" on="1"/>
        <pt x="925" y="740" on="1"/>
        <pt x="1201" y="740" on="1"/>
      </contour>
      <contour>
        <pt x="191" y="266" on="0"/>
        <pt x="191" y="260" on="1"/>
        <pt x="191" y="221" on="0"/>
        <pt x="248" y="174" on="0"/>
        <pt x="291" y="174" on="1"/>
        <pt x="322" y="174" on="0"/>
        <pt x="347" y="189" on="1"/>
        <pt x="200" y="303" on="1"/>
        <pt x="196" y="294" on="0"/>
        <pt x="193" y="278" on="1"/>
      </contour>
    </TTGlyph>
    <TTGlyph name="dvB_DH_VA" xMin="24" yMin="0" xMax="1556" yMax="749">
      <contour>
        <pt x="1556" y="740" on="1"/>
        <pt x="1526" y="571" on="1"/>
        <pt x="1450" y="571" on="1"/>
        <pt x="1350" y="0" on="1"/>
        <pt x="1151" y="0" on="1"/>
        <pt x="1167" y="93" on="1"/>
        <pt x="1112" y="41" on="0"/>
        <pt x="1030" y="41" on="1"/>
        <pt x="975" y="41" on="0"/>
        <pt x="893" y="84" on="0"/>
        <pt x="870" y="124" on="1"/>
        <pt x="790" y="63" on="0"/>
        <pt x="665" y="63" on="1"/>
        <pt x="601" y="63" on="0"/>
        <pt x="497" y="91" on="0"/>
        <pt x="462" y="119" on="1"/>
        <pt x="423" y="80" on="0"/>
        <pt x="315" y="38" on="0"/>
        <pt x="255" y="38" on="1"/>
        <pt x="191" y="38" on="0"/>
        <pt x="86" y="89" on="0"/>
        <pt x="25" y="185" on="0"/>
        <pt x="25" y="249" on="1"/>
        <pt x="25" y="274" on="0"/>
        <pt x="29" y="297" on="1"/>
        <pt x="41" y="368" on="0"/>
        <pt x="126" y="471" on="0"/>
        <pt x="255" y="526" on="0"/>
        <pt x="332" y="526" on="1"/>
        <pt x="372" y="526" on="0"/>
        <pt x="399" y="519" on="1"/>
        <pt x="376" y="387" on="1"/>
        <pt x="355" y="391" on="0"/>
        <pt x="330" y="391" on="1"/>
        <pt x="291" y="391" on="0"/>
        <pt x="257" y="371" on="1"/>
        <pt x="408" y="254" on="1"/>
        <pt x="416" y="270" on="0"/>
        <pt x="419" y="279" on="1"/>
        <pt x="433" y="328" on="0"/>
        <pt x="505" y="383" on="0"/>
        <pt x="548" y="394" on="1"/>
        <pt x="549" y="398" on="1"/>
        <pt x="508" y="413" on="0"/>
        <pt x="455" y="485" on="0"/>
        <pt x="455" y="537" on="1"/>
        <pt x="455" y="553" on="0"/>
        <pt x="458" y="571" on="1"/>
        <pt x="24" y="571" on="1"/>
        <pt x="53" y="740" on="1"/>
        <pt x="604" y="740" on="1"/>
        <pt x="637" y="749" on="0"/>
        <pt x="674" y="749" on="1"/>
        <pt x="756" y="749" on="0"/>
        <pt x="847" y="672" on="0"/>
        <pt x="847" y="603" on="1"/>
        <pt x="847" y="569" on="0"/>
        <pt x="835" y="528" on="1"/>
        <pt x="686" y="528" on="1"/>
        <pt x="689" y="537" on="0"/>
        <pt x="689" y="549" on="1"/>
        <pt x="689" y="579" on="0"/>
        <pt x="662" y="579" on="1"/>
        <pt x="645" y="579" on="0"/>
        <pt x="624" y="550" on="0"/>
        <pt x="624" y="526" on="1"/>
        <pt x="624" y="481" on="0"/>
        <pt x="694" y="481" on="1"/>
        <pt x="786" y="481" on="1"/>
        <pt x="757" y="318" on="1"/>
        <pt x="705" y="318" on="1"/>
        <pt x="632" y="318" on="0"/>
        <pt x="623" y="274" on="1"/>
        <pt x="615" y="231" on="0"/>
        <pt x="704" y="231" on="1"/>
        <pt x="771" y="231" on="0"/>
        <pt x="839" y="276" on="0"/>
        <pt x="856" y="328" on="1"/>
        <pt x="881" y="416" on="0"/>
        <pt x="1011" y="517" on="0"/>
        <pt x="1107" y="517" on="1"/>
        <pt x="1148" y="517" on="0"/>
        <pt x="1213" y="490" on="0"/>
        <pt x="1232" y="465" on="1"/>
        <pt x="1251" y="571" on="1"/>
        <pt x="923" y="571" on="1"/>
        <pt x="953" y="740" on="1"/>
      </contour>
      <contour>
        <pt x="1043" y="238" on="0"/>
        <pt x="1079" y="203" on="0"/>
        <pt x="1110" y="203" on="1"/>
        <pt x="1148" y="203" on="0"/>
        <pt x="1201" y="257" on="0"/>
        <pt x="1201" y="295" on="1"/>
        <pt x="1201" y="322" on="0"/>
        <pt x="1166" y="355" on="0"/>
        <pt x="1136" y="355" on="1"/>
        <pt x="1096" y="355" on="0"/>
        <pt x="1043" y="302" on="0"/>
        <pt x="1043" y="265" on="1"/>
      </contour>
      <contour>
        <pt x="191" y="266" on="0"/>
        <pt x="191" y="260" on="1"/>
        <pt x="191" y="221" on="0"/>
        <pt x="248" y="174" on="0"/>
        <pt x="291" y="174" on="1"/>
        <pt x="322" y="174" on="0"/>
        <pt x="347" y="189" on="1"/>
        <pt x="200" y="303" on="1"/>
        <pt x="196" y="294" on="0"/>
        <pt x="193" y="278" on="1"/>
      </contour>
    </TTGlyph>
    <TTGlyph name="dvB_JA" xMin="24" yMin="0" xMax="1304" yMax="740">
      <contour>
        <pt x="1274" y="571" on="1"/>
        <pt x="1198" y="571" on="1"/>
        <pt x="1098" y="0" on="1"/>
        <pt x="894" y="0" on="1"/>
        <pt x="948" y="308" on="1"/>
        <pt x="880" y="308" on="1"/>
        <pt x="858" y="204" on="0"/>
        <pt x="718" y="80" on="0"/>
        <pt x="610" y="80" on="1"/>
        <pt x="528" y="80" on="0"/>
        <pt x="483" y="112" on="1"/>
        <pt x="394" y="38" on="0"/>
        <pt x="266" y="38" on="1"/>
        <pt x="190" y="38" on="0"/>
        <pt x="80" y="94" on="0"/>
        <pt x="24" y="191" on="0"/>
        <pt x="24" y="250" on="1"/>
        <pt x="24" y="271" on="0"/>
        <pt x="29" y="298" on="1"/>
        <pt x="40" y="364" on="0"/>
        <pt x="122" y="467" on="0"/>
        <pt x="256" y="526" on="0"/>
        <pt x="343" y="526" on="1"/>
        <pt x="423" y="526" on="0"/>
        <pt x="533" y="474" on="0"/>
        <pt x="588" y="385" on="0"/>
        <pt x="588" y="329" on="1"/>
        <pt x="588" y="313" on="0"/>
        <pt x="587" y="304" on="1"/>
        <pt x="586" y="281" on="0"/>
        <pt x="604" y="258" on="0"/>
        <pt x="626" y="258" on="1"/>
        <pt x="672" y="258" on="0"/>
        <pt x="684" y="325" on="1"/>
        <pt x="712" y="481" on="1"/>
        <pt x="978" y="481" on="1"/>
        <pt x="994" y="571" on="1"/>
        <pt x="24" y="571" on="1"/>
        <pt x="54" y="740" on="1"/>
        <pt x="1304" y="740" on="1"/>
      </contour>
      <contour>
        <pt x="416" y="296" on="0"/>
        <pt x="416" y="303" on="1"/>
        <pt x="416" y="341" on="0"/>
        <pt x="366" y="389" on="0"/>
        <pt x="324" y="389" on="1"/>
        <pt x="289" y="389" on="0"/>
        <pt x="260" y="372" on="1"/>
        <pt x="407" y="257" on="1"/>
        <pt x="413" y="273" on="0"/>
        <pt x="414" y="282" on="1"/>
      </contour>
      <contour>
        <pt x="192" y="268" on="0"/>
        <pt x="192" y="263" on="1"/>
        <pt x="192" y="223" on="0"/>
        <pt x="246" y="176" on="0"/>
        <pt x="287" y="176" on="1"/>
        <pt x="319" y="176" on="0"/>
        <pt x="349" y="191" on="1"/>
        <pt x="201" y="306" on="1"/>
        <pt x="195" y="290" on="0"/>
        <pt x="194" y="282" on="1"/>
      </contour>
    </TTGlyph>
    <TTGlyph name="dvB_JHA" xMin="23" yMin="-89" xMax="1455" yMax="740">
      <contour>
        <pt x="1425" y="571" on="1"/>
        <pt x="1349" y="571" on="1"/>
        <pt x="1249" y="0" on="1"/>
        <pt x="1048" y="0" on="1"/>
        <pt x="1081" y="187" on="1"/>
        <pt x="984" y="187" on="1"/>
        <pt x="985" y="162" on="0"/>
        <pt x="981" y="132" on="1"/>
        <pt x="970" y="64" on="0"/>
        <pt x="869" y="-20" on="0"/>
        <pt x="795" y="-20" on="1"/>
        <pt x="764" y="-20" on="0"/>
        <pt x="714" y="-6" on="0"/>
        <pt x="698" y="5" on="1"/>
        <pt x="682" y="-89" on="1"/>
        <pt x="499" y="-89" on="1"/>
        <pt x="544" y="168" on="1"/>
        <pt x="717" y="168" on="1"/>
        <pt x="714" y="148" on="0"/>
        <pt x="735" y="128" on="0"/>
        <pt x="754" y="128" on="1"/>
        <pt x="776" y="128" on="0"/>
        <pt x="800" y="150" on="0"/>
        <pt x="800" y="168" on="1"/>
        <pt x="800" y="197" on="0"/>
        <pt x="752" y="197" on="1"/>
        <pt x="629" y="197" on="0"/>
        <pt x="597" y="199" on="1"/>
        <pt x="563" y="201" on="0"/>
        <pt x="536" y="212" on="1"/>
        <pt x="459" y="38" on="0"/>
        <pt x="263" y="38" on="1"/>
        <pt x="190" y="38" on="0"/>
        <pt x="81" y="92" on="0"/>
        <pt x="23" y="187" on="0"/>
        <pt x="23" y="246" on="1"/>
        <pt x="23" y="260" on="0"/>
        <pt x="27" y="288" on="1"/>
        <pt x="46" y="394" on="0"/>
        <pt x="201" y="526" on="0"/>
        <pt x="342" y="526" on="1"/>
        <pt x="385" y="526" on="0"/>
        <pt x="421" y="517" on="1"/>
        <pt x="398" y="385" on="1"/>
        <pt x="370" y="392" on="0"/>
        <pt x="340" y="392" on="1"/>
        <pt x="293" y="392" on="0"/>
        <pt x="259" y="373" on="1"/>
        <pt x="419" y="248" on="1"/>
        <pt x="443" y="289" on="0"/>
        <pt x="452" y="341" on="1"/>
        <pt x="456" y="363" on="1"/>
        <pt x="470" y="444" on="0"/>
        <pt x="586" y="528" on="0"/>
        <pt x="669" y="528" on="1"/>
        <pt x="772" y="528" on="1"/>
        <pt x="779" y="571" on="1"/>
        <pt x="24" y="571" on="1"/>
        <pt x="54" y="740" on="1"/>
        <pt x="1455" y="740" on="1"/>
      </contour>
      <contour>
        <pt x="1148" y="571" on="1"/>
        <pt x="975" y="571" on="1"/>
        <pt x="968" y="528" on="1"/>
        <pt x="942" y="384" on="1"/>
        <pt x="689" y="384" on="1"/>
        <pt x="673" y="384" on="0"/>
        <pt x="654" y="370" on="0"/>
        <pt x="654" y="357" on="1"/>
        <pt x="654" y="339" on="0"/>
        <pt x="681" y="339" on="1"/>
        <pt x="816" y="339" on="1"/>
        <pt x="1107" y="339" on="1"/>
      </contour>
      <contour>
        <pt x="192" y="268" on="0"/>
        <pt x="192" y="263" on="1"/>
        <pt x="192" y="223" on="0"/>
        <pt x="246" y="176" on="0"/>
        <pt x="287" y="176" on="1"/>
        <pt x="325" y="176" on="0"/>
        <pt x="352" y="189" on="1"/>
        <pt x="200" y="306" on="1"/>
        <pt x="199" y="302" on="0"/>
        <pt x="195" y="290" on="0"/>
        <pt x="194" y="282" on="1"/>
      </contour>
    </TTGlyph>
    <TTGlyph name="dvB_J_YA" xMin="24" yMin="0" xMax="1757" yMax="740">
      <contour>
        <pt x="1727" y="571" on="1"/>
        <pt x="1652" y="571" on="1"/>
        <pt x="1551" y="0" on="1"/>
        <pt x="1346" y="0" on="1"/>
        <pt x="1367" y="119" on="1"/>
        <pt x="1293" y="63" on="0"/>
        <pt x="1187" y="63" on="1"/>
        <pt x="1081" y="63" on="0"/>
        <pt x="955" y="175" on="0"/>
        <pt x="950" y="273" on="1"/>
        <pt x="927" y="272" on="0"/>
        <pt x="870" y="272" on="1"/>
        <pt x="842" y="183" on="0"/>
        <pt x="708" y="80" on="0"/>
        <pt x="610" y="80" on="1"/>
        <pt x="528" y="80" on="0"/>
        <pt x="483" y="112" on="1"/>
        <pt x="394" y="38" on="0"/>
        <pt x="266" y="38" on="1"/>
        <pt x="190" y="38" on="0"/>
        <pt x="80" y="94" on="0"/>
        <pt x="24" y="191" on="0"/>
        <pt x="24" y="250" on="1"/>
        <pt x="24" y="271" on="0"/>
        <pt x="29" y="298" on="1"/>
        <pt x="40" y="364" on="0"/>
        <pt x="122" y="467" on="0"/>
        <pt x="256" y="526" on="0"/>
        <pt x="343" y="526" on="1"/>
        <pt x="423" y="526" on="0"/>
        <pt x="533" y="474" on="0"/>
        <pt x="588" y="385" on="0"/>
        <pt x="588" y="329" on="1"/>
        <pt x="588" y="313" on="0"/>
        <pt x="587" y="304" on="1"/>
        <pt x="586" y="281" on="0"/>
        <pt x="604" y="258" on="0"/>
        <pt x="626" y="258" on="1"/>
        <pt x="672" y="258" on="0"/>
        <pt x="684" y="325" on="1"/>
        <pt x="705" y="441" on="1"/>
        <pt x="984" y="441" on="1"/>
        <pt x="1061" y="441" on="0"/>
        <pt x="1121" y="493" on="0"/>
        <pt x="1129" y="540" on="1"/>
        <pt x="1135" y="571" on="1"/>
        <pt x="24" y="571" on="1"/>
        <pt x="54" y="740" on="1"/>
        <pt x="1757" y="740" on="1"/>
      </contour>
      <contour>
        <pt x="1447" y="571" on="1"/>
        <pt x="1337" y="571" on="1"/>
        <pt x="1324" y="502" on="1"/>
        <pt x="1312" y="434" on="0"/>
        <pt x="1224" y="329" on="0"/>
        <pt x="1152" y="310" on="1"/>
        <pt x="1151" y="277" on="0"/>
        <pt x="1204" y="232" on="0"/>
        <pt x="1254" y="232" on="1"/>
        <pt x="1319" y="232" on="0"/>
        <pt x="1401" y="312" on="0"/>
        <pt x="1412" y="375" on="1"/>
      </contour>
      <contour>
        <pt x="416" y="296" on="0"/>
        <pt x="416" y="303" on="1"/>
        <pt x="416" y="341" on="0"/>
        <pt x="366" y="389" on="0"/>
        <pt x="324" y="389" on="1"/>
        <pt x="289" y="389" on="0"/>
        <pt x="260" y="372" on="1"/>
        <pt x="407" y="257" on="1"/>
        <pt x="413" y="273" on="0"/>
        <pt x="414" y="282" on="1"/>
      </contour>
      <contour>
        <pt x="192" y="268" on="0"/>
        <pt x="192" y="263" on="1"/>
        <pt x="192" y="223" on="0"/>
        <pt x="246" y="176" on="0"/>
        <pt x="287" y="176" on="1"/>
        <pt x="319" y="176" on="0"/>
        <pt x="349" y="191" on="1"/>
        <pt x="201" y="306" on="1"/>
        <pt x="195" y="290" on="0"/>
        <pt x="194" y="282" on="1"/>
      </contour>
    </TTGlyph>
    <TTGlyph name="dvB_JxA" xMin="24" yMin="-189" xMax="1304" yMax="740">
      <component glyphName="dvNukta" x="802" y="146" flags="0x4"/>
      <component glyphName="dvB_JA" x="0" y="0" flags="0x0"/>
    </TTGlyph>
    <TTGlyph name="dvB_LA" xMin="24" yMin="3" xMax="1357" yMax="740">
      <contour>
        <pt x="1167" y="571" on="1"/>
        <pt x="1150" y="473" on="1"/>
        <pt x="1185" y="447" on="0"/>
        <pt x="1224" y="364" on="0"/>
        <pt x="1224" y="309" on="1"/>
        <pt x="1224" y="277" on="0"/>
        <pt x="1219" y="251" on="1"/>
        <pt x="1205" y="175" on="0"/>
        <pt x="1121" y="62" on="0"/>
        <pt x="987" y="3" on="0"/>
        <pt x="902" y="5" on="1"/>
        <pt x="867" y="7" on="1"/>
        <pt x="899" y="183" on="1"/>
        <pt x="909" y="181" on="0"/>
        <pt x="924" y="181" on="1"/>
        <pt x="956" y="181" on="0"/>
        <pt x="1006" y="222" on="0"/>
        <pt x="1012" y="261" on="1"/>
        <pt x="1014" y="273" on="0"/>
        <pt x="1014" y="279" on="1"/>
        <pt x="1014" y="304" on="0"/>
        <pt x="986" y="333" on="0"/>
        <pt x="961" y="333" on="1"/>
        <pt x="928" y="333" on="0"/>
        <pt x="890" y="288" on="0"/>
        <pt x="884" y="256" on="1"/>
        <pt x="879" y="227" on="1"/>
        <pt x="711" y="227" on="1"/>
        <pt x="716" y="256" on="1"/>
        <pt x="718" y="270" on="0"/>
        <pt x="718" y="278" on="1"/>
        <pt x="718" y="302" on="0"/>
        <pt x="694" y="333" on="0"/>
        <pt x="667" y="333" on="1"/>
        <pt x="637" y="333" on="0"/>
        <pt x="596" y="294" on="0"/>
        <pt x="590" y="261" on="1"/>
        <pt x="588" y="247" on="0"/>
        <pt x="588" y="242" on="1"/>
        <pt x="588" y="212" on="0"/>
        <pt x="623" y="181" on="0"/>
        <pt x="655" y="181" on="1"/>
        <pt x="661" y="181" on="0"/>
        <pt x="677" y="183" on="1"/>
        <pt x="645" y="6" on="1"/>
        <pt x="631" y="5" on="0"/>
        <pt x="615" y="5" on="1"/>
        <pt x="555" y="5" on="0"/>
        <pt x="466" y="45" on="0"/>
        <pt x="440" y="82" on="1"/>
        <pt x="366" y="38" on="0"/>
        <pt x="264" y="38" on="1"/>
        <pt x="189" y="38" on="0"/>
        <pt x="81" y="94" on="0"/>
        <pt x="24" y="190" on="0"/>
        <pt x="24" y="251" on="1"/>
        <pt x="24" y="270" on="0"/>
        <pt x="27" y="288" on="1"/>
        <pt x="36" y="354" on="0"/>
        <pt x="115" y="462" on="0"/>
        <pt x="247" y="526" on="0"/>
        <pt x="334" y="526" on="1"/>
        <pt x="394" y="526" on="0"/>
        <pt x="487" y="493" on="0"/>
        <pt x="518" y="463" on="1"/>
        <pt x="580" y="512" on="0"/>
        <pt x="662" y="512" on="1"/>
        <pt x="726" y="512" on="0"/>
        <pt x="808" y="461" on="0"/>
        <pt x="825" y="418" on="1"/>
        <pt x="828" y="418" on="1"/>
        <pt x="875" y="484" on="0"/>
        <pt x="955" y="504" on="1"/>
        <pt x="967" y="571" on="1"/>
        <pt x="24" y="571" on="1"/>
        <pt x="54" y="740" on="1"/>
        <pt x="1357" y="740" on="1"/>
        <pt x="1327" y="571" on="1"/>
      </contour>
      <contour>
        <pt x="416" y="296" on="0"/>
        <pt x="416" y="303" on="1"/>
        <pt x="416" y="341" on="0"/>
        <pt x="366" y="389" on="0"/>
        <pt x="324" y="389" on="1"/>
        <pt x="289" y="389" on="0"/>
        <pt x="260" y="372" on="1"/>
        <pt x="407" y="257" on="1"/>
        <pt x="411" y="266" on="0"/>
        <pt x="414" y="282" on="1"/>
      </contour>
      <contour>
        <pt x="192" y="268" on="0"/>
        <pt x="192" y="263" on="1"/>
        <pt x="192" y="223" on="0"/>
        <pt x="245" y="176" on="0"/>
        <pt x="286" y="176" on="1"/>
        <pt x="319" y="176" on="0"/>
        <pt x="348" y="192" on="1"/>
        <pt x="201" y="305" on="1"/>
        <pt x="195" y="291" on="0"/>
        <pt x="194" y="282" on="1"/>
      </contour>
    </TTGlyph>
</ttFont>
